<?xml version="1.0" encoding="UTF-8"?>
<svg version="1.1" viewBox="0 0 48 48" xml:space="preserve" xmlns="http://www.w3.org/2000/svg">
<path d="m33.888 1c-0.43708 0-0.87473 0.096904-1.3118 0.24226-0.24282 0.096904-0.38776 0.29052-0.43632 0.53278l-0.87454 6.8798c-0.29139-1.4051-0.77703-2.7612-1.4569-4.021l-0.43727-0.72678c-0.19426-0.29071-0.43708-0.48471-0.72847-0.67852-0.48565-0.29071-1.0193-0.43626-1.6021-0.43626h-0.19445c-0.43708 0-0.87397 0.048452-1.2625 0.24226-0.48565 0.24226-0.92292 0.63026-1.1657 1.1148-0.38852 0.72678-0.48565 1.5989-0.24282 2.4226 0.19426 0.58142 0.48584 1.1623 0.92292 1.5984 0.38852 0.43607 0.82522 0.82388 1.3109 1.163 0.19426 0.14536 0.38833 0.24283 0.53402 0.33973-0.53421-0.048452-1.0679-0.049209-1.6021-0.049209-0.77703 0-1.6034 0.04902-2.4776 0.097472-2.3797 0.29071-8.1099 0.92078-13.209 5.2815-2.1854 1.8896-3.9334 4.1661-5.196 6.7341-0.097129 0.19381-0.24301 0.38762-0.43727 0.48452l-2.0887 1.4053c-0.97129 0.67833-1.2137 1.9864-0.5824 2.9554 0.19426 0.29071 0.48546 0.53316 0.77684 0.67852l1.3109 0.67852c0.29139 0.14536 0.48622 0.43607 0.58334 0.72678 0.72847 3.6824 2.4768 7.1228 5.0993 9.8362 2.9139 3.0525 6.653 5.1352 10.781 6.0073 0.19426 0.04845 0.33995 0.14536 0.48565 0.24226l1.4086 1.4536c0.97129 1.0175 2.6225 1.0665 3.6423 0.09747l0.09675-0.09747 2.2347-2.3734c0.09713-0.0969 0.19407-0.14554 0.2912-0.194 3.5452-2.035 6.4585-4.9911 8.4011-8.5766 1.7969-3.3432 2.1854-6.88 2.1854-9.981 0-1.6958-0.09637-3.2463-0.1935-4.603-0.04856-1.1144-0.19502-2.0344-0.29215-2.8097 1.7483-1.3567 3.8859-2.1327 6.1199-2.2296 0.48564 0 1.0197-0.09691 1.5053-0.24226 0.29139-0.0969 0.53421-0.2415 0.72847-0.43531 0.24282-0.24226 0.38852-0.53335 0.48565-0.87252v-0.24226c-0.04857-0.33916-0.1455-0.67833-0.2912-0.96904-0.43708-0.72678-0.97186-1.3569-1.5546-1.8898-0.24282-0.24226-0.48584-0.48433-0.68009-0.77504-0.14569-0.24226-0.29082-0.48452-0.38795-0.72678-0.04856-0.24226-0.0977-0.43626-0.0977-0.67852 0-0.29071-0.04838-0.63007-0.04838-0.92078-0.24282-1.502-1.36-2.7616-2.8655-3.1977-0.72847-0.14536-1.5053-0.24226-2.2338-0.24226-0.29139 0-0.5824-0.047884-0.82522-0.14479-0.19426-0.048452-0.38833-0.19438-0.53402-0.33973-0.14569-0.14536-0.24338-0.33898-0.34051-0.53278-0.14569-0.29071-0.29158-0.53278-0.43727-0.77505-0.33995-0.43607-0.72828-0.82425-1.2625-1.0665-0.48564-0.24226-1.0195-0.38705-1.5537-0.38705zm-0.04838 1.4053c0.33995 0 0.63058 0.096904 0.92197 0.24226 0.29139 0.14536 0.53421 0.33879 0.72847 0.58105 0.14569 0.24226 0.2432 0.48471 0.3889 0.67852 0.14569 0.29071 0.33957 0.58105 0.5824 0.82331 0.04856 0.048452 0.09751 0.04902 0.14607 0.097472-0.58277 0.72678-1.068 1.5016-1.5537 2.2769-0.19426 0.33916-0.09713 0.77523 0.24282 0.96904 0.33995 0.19381 0.77703 0.096904 0.97129-0.24226 0.43708-0.77523 0.9711-1.502 1.5053-2.1803 0.04856-0.048452 0.04819-0.097283 0.09675-0.14573 0.48564 0.096904 0.97129 0.194 1.4569 0.194 0.48564 0 0.97129 0.048831 1.4569 0.14574 0.97129 0.29071 1.6516 1.0656 1.8458 2.0346 0.04856 0.24226 0.04838 0.53278 0.04838 0.77505 0 0.14536-1.9e-4 0.33992 0.04838 0.53373-0.04857 0-0.09675 0.048263-0.09675 0.048263-1.1656 0.77523-2.2831 1.5501-3.4972 2.2769-0.33995 0.19381-0.43708 0.62988-0.24282 0.96904 0.19426 0.33916 0.63134 0.43607 0.97129 0.24226h0.04932c1.117-0.72678 2.2334-1.4536 3.3018-2.1803 0.04856 0.0969 0.14588 0.19362 0.19445 0.29052 0.38852 0.48452 0.77703 0.92116 1.2141 1.3088 0.33995 0.33916 0.68009 0.72697 0.92292 1.163-0.04856 0.0969 0 0.24169 0 0.38705 0 0.04845 1.89e-4 0.09747-0.04838 0.09747-0.14569 0.0969-0.29139 0.19305-0.48565 0.19305-0.29139 0.04845-0.58334 0.09747-0.82617 0.09747-2.4282 0.0969-4.7104 0.92002-6.653 2.3251-0.72847-0.62988-1.5061-1.3076-2.2831-2.0829-1.0199-1.0175-1.9912-2.1323-2.9139-3.2951 0.38852-2.8587 0.72885-5.717 1.1174-8.5757 0.14569-0.048452 0.2432-0.048263 0.3889-0.048262zm-7.1272 1.9192c0.06071 7.558e-4 0.12141 0.00681 0.18212 0.018926h0.14607c0.29139 0 0.63077 0.047695 0.87359 0.19305 0.14569 0.096904 0.24339 0.19438 0.34052 0.33973 0.14569 0.19381 0.24244 0.33898 0.33957 0.53278 0.63134 1.2598 1.1172 2.5676 1.4086 3.9727 0 0.048452 0.04838 0.14555 0.04838 0.194-0.09713-0.048452-0.2432-0.048074-0.3889-0.096525-0.8256-0.29071-1.6504-0.67852-2.3789-1.163-0.48565-0.33916-0.87435-0.62988-1.1657-0.96904-0.29139-0.29071-0.48603-0.67795-0.63172-1.0656-0.14569-0.43607-0.09675-0.92097 0.14607-1.357 0.09713-0.24226 0.2912-0.38762 0.53402-0.48452 0.18212-0.072678 0.36424-0.11772 0.54635-0.11545zm-3.2174 6.8022c-0.19426 0.24226-0.33995 0.48452-0.48565 0.72678-0.19426 0.38762-0.2912 0.87176-0.2912 1.3078 0 0.62988 0.14588 1.2601 0.43727 1.8416 0.29139 0.58143 0.77666 1.0654 1.3109 1.3561 0.58277 0.29071 1.2627 0.48452 1.9426 0.48452s1.3596-0.14536 1.991-0.48452c0.92273-0.43607 1.7481-1.0656 2.4766-1.7924 0.48565-0.48452 0.9233-1.0179 1.3118-1.5993 0.63134 0.72678 1.3107 1.5026 2.0877 2.2778 0.8256 0.82369 1.6512 1.5985 2.4282 2.2769 0.09713 0.77523 0.24339 1.7931 0.34052 3.0529 0.09713 1.3567 0.19445 2.8581 0.19445 4.5055-0.04856 3.004-0.43746 6.299-2.0887 9.3999-1.8455 3.3432-4.5647 6.1532-7.8671 8.0429-0.19426 0.14536-0.43765 0.29071-0.58334 0.48452-0.72847 0.77524-1.5053 1.5991-2.2338 2.3743-0.43708 0.48452-1.1657 0.48433-1.6514 0.04826l-0.04838-0.04826-0.68009-0.72678h0.04838c0.38852 0 0.68009-0.33916 0.68009-0.72678s-0.33995-0.67852-0.72847-0.67852h-0.24282c-0.43708 0-0.87378-0.04807-1.3109-0.09652-0.14569 0-0.29158-1.9e-4 -0.43727 0.04826-3.788-0.82369-7.2845-2.7618-10.004-5.572-2.4282-2.5195-4.0314-5.7175-4.7113-9.1576-0.14569-0.72678-0.63115-1.3567-1.2625-1.6958-0.43708-0.24226-0.87378-0.48471-1.3109-0.67852-0.14569-0.04845-0.24263-0.14517-0.2912-0.29052-0.048565-0.0969-0.097698-0.24169-0.097698-0.38705 0-0.24226 0.097698-0.4849 0.34052-0.63026 0.6799-0.48452 1.4078-0.92078 2.0877-1.4053 0.38852-0.24226 0.68009-0.62969 0.92292-1.0173 1.1655-2.4226 2.8653-4.5545 4.8565-6.2988 4.7593-4.07 10.101-4.6512 12.432-4.8935 0.14569 0 0.29158 1.89e-4 0.43727-0.04826zm4.1764 0.04826c1.1655 0.0969 2.3309 0.29034 3.4479 0.58105 0.04856 0.04845 0.0977 0.09728 0.0977 0.14574-0.58278 0.87214-1.2632 1.6468-2.0403 2.3251-0.43708 0.38762-0.8734 0.67852-1.4076 0.92078-0.38852 0.24226-0.87454 0.33954-1.3602 0.388-0.43708 0-0.87378-0.09747-1.3109-0.33973-0.33995-0.19381-0.58278-0.43588-0.72847-0.77505-0.19426-0.38762-0.29215-0.77542-0.29215-1.163 0-0.29071 0.04894-0.53278 0.14607-0.77504 0.09713-0.24226 0.29139-0.4355 0.48565-0.62931 0.33995-0.24226 0.77703-0.43607 1.2141-0.48452 0.53421-0.0969 1.0195-0.14574 1.5537-0.14574 0.04856 0 0.14588 1.89e-4 0.19445-0.04826zm-0.99121 7.9899c-0.12976 0.0091-0.25876 0.05867-0.36803 0.14952-0.48564 0.38762-0.97129 0.82444-1.4569 1.2605-0.72847-0.48452-1.6518-0.72754-2.5259-0.77599h-0.43727c-1.0684 0.09691-2.0875 0.582-2.8646 1.3088-0.38852 0.33916-0.68009 0.72678-0.92292 1.2113-0.24282 0.43607-0.34033 0.92078-0.3889 1.4053v0.04826c0 0.67833 0.24301 1.3567 0.68009 1.9381 0.38852 0.53297 0.77703 0.96904 1.2141 1.4536 0.43708 0.43607 0.92273 0.87214 1.4569 1.2113 0.33995 0.24226 0.63096 0.53241 0.82522 0.87157 0.33995 0.48452 0.53478 1.0179 0.58334 1.5993 0 0.14536 1.9e-4 0.24264-0.04838 0.388-0.09713 0.38762-0.29196 0.77486-0.58334 1.0656-0.24282 0.24226-0.48546 0.43569-0.77684 0.58105-0.58277 0.33916-1.2625 0.53373-1.991 0.53373-0.19426 0-0.33976-7.75e-4 -0.53402-0.04921-0.77703-0.14535-1.5059-0.48414-2.0887-1.0656-0.58277-0.53297-0.97129-1.2113-1.2141-1.9381-0.14569-0.38762-0.19445-0.8235-0.19445-1.2596 0-0.62988 0.14626-1.2119 0.34052-1.7933 0.14569-0.33917-5.83e-4 -0.77448-0.34052-0.91984-0.33995-0.14536-0.77722-3.78e-4 -0.92292 0.33879v0.04826c-0.29139 0.72678-0.43632 1.5026-0.43632 2.2778 0 0.58142 0.09713 1.1136 0.24282 1.6466 0.19426 0.62988 0.48508 1.2121 0.87359 1.745-0.38852 0.43607-0.72809 0.87176-1.068 1.3078-0.24282 0.29071-0.19464 0.72678 0.09675 0.96904s0.72847 0.19419 0.97129-0.09653c0.29139-0.38762 0.58296-0.77561 0.92292-1.1148 0.72847 0.62988 1.6516 1.0659 2.5743 1.2113 0.24282 0.04845 0.48565 0.04826 0.72847 0.04826 0.97129 0 1.8938-0.24207 2.7194-0.77504 0.38852-0.24226 0.72828-0.48433 1.0197-0.77504 0.48564-0.48452 0.8256-1.0658 0.97129-1.7441 0.04856-0.24226 0.04838-0.43626 0.04838-0.67852-0.04856-0.82368-0.2912-1.6477-0.77684-2.3261-0.29139-0.48452-0.72847-0.9204-1.2141-1.2596-0.43708-0.29071-0.87397-0.6295-1.2625-1.0656-0.38852-0.38762-0.7776-0.82444-1.069-1.2605-0.24282-0.33916-0.38776-0.72603-0.43632-1.1621v-0.04921c0-0.29071 0.09713-0.58105 0.24282-0.82331 0.24282-0.48452 0.63096-0.87233 1.068-1.163 0.48565-0.33916 1.0202-0.5326 1.603-0.58105h0.2912c1.0684 0 2.0881 0.53297 2.7194 1.4536 0.38852 0.53297 0.5824 1.1623 0.5824 1.8406 0 0.48452-0.09713 0.96923-0.24282 1.4053-0.14569 0.33916 5.83e-4 0.77542 0.34052 0.92078 0.33995 0.14536 0.77722 3.78e-4 0.92292-0.33879 0.24282-0.62988 0.38795-1.3082 0.38795-1.9381 0-0.92059-0.29101-1.8414-0.82522-2.6166-0.09713-0.14536-0.19407-0.24283-0.2912-0.33973 0.38852-0.38762 0.82541-0.7264 1.2625-1.0656 0.29139-0.24226 0.33938-0.67833 0.14512-0.96904-0.12141-0.21198-0.33768-0.3104-0.55394-0.29526z"/>
</svg>
