<?xml version="1.0" encoding="UTF-8"?>
<svg version="1.1" viewBox="0 0 48 48" xml:space="preserve" xmlns="http://www.w3.org/2000/svg">
<path d="m24.237 1.0015c-4.5515-0.05154-9.1378 1.2389-13.12 3.9372-0.37457 0.25629-0.47769 0.76776-0.2214 1.1423 0.25628 0.37458 0.76773 0.47277 1.1423 0.22141 8.4525-5.7272 19.832-4.6362 27.062 2.5959 4.0349 4.035 6.257 9.3949 6.257 15.101 0 5.7058-2.2221 11.066-6.257 15.101-4.0348 4.0334-9.3945 6.2572-15.1 6.2572s-11.065-2.2239-15.1-6.2572c-4.0348-4.035-6.257-9.3949-6.257-15.101 0-5.7058 2.2221-11.066 6.257-15.101 0.32036-0.32037 0.32036-0.84123 0-1.1616-0.32036-0.32037-0.8412-0.32037-1.1616 0-4.3453 4.3439-6.7383 10.119-6.7383 16.262 0 6.1429 2.3929 11.918 6.7383 16.262 4.3421 4.3455 10.117 6.7385 16.262 6.7385s11.92-2.393 16.262-6.7385c4.3453-4.3439 6.7383-10.119 6.7383-16.262 0-6.1429-2.3929-11.92-6.7383-16.266-4.3793-4.3795-10.172-6.6659-16.024-6.7321zm-0.23424 4.8421c-9.9639 0-18.075 8.1453-18.075 18.156 0 10.01 8.1075 18.156 18.071 18.156 3.5321 0 6.9549-1.0263 9.8989-2.965 0.3795-0.24972 0.48231-0.76126 0.23424-1.1391-0.24971-0.37787-0.75795-0.48232-1.1391-0.23424-2.6729 1.7645-5.7839 2.6954-8.994 2.6954-7.615 0-14.036-5.2359-15.89-12.312-0.35137-1.3416-0.53906-2.7496-0.53906-4.2004 0-9.1034 7.3714-16.513 16.432-16.513 9.0587 0 16.425 7.4092 16.425 16.513 0 4.1024-1.5081 8.0374-4.2451 11.08-0.30557 0.3368-0.27582 0.85601 0.06097 1.1616 0.33679 0.30558 0.85606 0.27591 1.1583-0.06417 3.0113-3.3433 4.6687-7.6677 4.6687-12.177 0-10.01-8.1043-18.156-18.068-18.156zm-2.4675 6.6583c-0.45343 0-0.82143 0.36802-0.82143 0.82146v2.4612h-4.1071c-0.45343 0-0.82143 0.36801-0.82143 0.82146 0 0.45344 0.368 0.82146 0.82143 0.82146h9.8571c1.3586 0 2.4643 1.1057 2.4643 2.4644 0 1.3587-1.1056 2.4644-2.4643 2.4644h-2.4643v-4.9255h-1.6429v13.14h-1.6429v-13.14h-1.6429v13.14h-2.4643c-0.45343 0-0.82143 0.36801-0.82143 0.82146 0 0.45345 0.368 0.82146 0.82143 0.82146h4.1071v2.4644c0 0.45345 0.368 0.82146 0.82143 0.82146 0.45343 0 0.82143-0.36801 0.82143-0.82146v-2.4644h1.6429v0.82146c0 0.45344 0.368 0.82146 0.82143 0.82146 0.45343 0 0.82143-0.36801 0.82143-0.82146v-0.82146h3.2857c2.7173 0 4.9286-2.2114 4.9286-4.9288 0-2.4558-1.805-4.4974-4.1585-4.8678 0.54572-0.69752 0.87277-1.5742 0.87277-2.5253 0-2.2639-1.8416-4.1073-4.1071-4.1073h-0.82143v-0.81825c0-0.45345-0.368-0.82146-0.82143-0.82146-0.45343 0-0.82143 0.36801-0.82143 0.82146v0.81825h-1.6429v-2.4612c0-0.45344-0.368-0.82146-0.82143-0.82146zm2.4643 11.497h4.9286c1.8137 0 3.2857 1.4721 3.2857 3.2858 0 1.8138-1.472 3.2858-3.2857 3.2858h-4.9286z"/>
</svg>
