<?xml version="1.0" encoding="UTF-8"?>
<svg version="1.1" viewBox="0 0 48 48" xml:space="preserve" xmlns="http://www.w3.org/2000/svg">
<path d="m39.705 2.1915c-0.14112 8e-3 -0.27388 0.0698-0.37184 0.17169l-2.5132 3.0516c-0.72784 0.88459-1.1261 1.9944-1.1269 3.1399v3.8901c-4.2e-4 0.31036 0.25106 0.56219 0.56142 0.56219s0.56184-0.25183 0.56142-0.56219v-1.7925c2.1017 0.20829 6.9727 1.2934 7.9152 6.9289h-6.2375c-0.74856 0-0.74856 1.1228 0 1.1228h6.8487c0.29451-1e-3 0.53421 0.2366 0.53538 0.53111v2.0569h-19.745v-2.0569c5e-5 -0.29443 0.23872-0.5331 0.53314-0.53315h6.8457c0.31007 0 0.56142-0.25136 0.56142-0.56142 0-0.31007-0.25135-0.56142-0.56142-0.56142h-6.2281c0.74674-4.4898 3.9629-6.1343 6.5926-6.7165 0.2997-0.0698 0.48738-0.36784 0.42089-0.6683-0.0665-0.30045-0.36239-0.49144-0.66356-0.42831-2.4829 0.5499-6.6998 2.308-7.4986 7.9028-0.66962 0.22754-1.121 0.855-1.1239 1.5622v2.6181c-4e-5 0.31008 0.25134 0.56146 0.56142 0.56142h1.4758l2.4308 22.821c0.0303 0.28551 0.27125 0.50211 0.55837 0.50203h11.938c0.28686-5.2e-4 0.52737-0.21683 0.55817-0.50203l2.431-22.821h1.4745c0.31008 4e-5 0.56146-0.25134 0.56142-0.56142v-2.6141c-3e-3 -0.70743-0.45473-1.335-1.1247-1.5622-0.43221-3.038-1.9028-5.298-4.3805-6.7196-1.7872-1.0259-3.667-1.3332-4.6793-1.4259v-0.97679c8.4e-4 -0.88525 0.3085-1.7428 0.87061-2.4267l2.5142-3.0504c0.2676-0.38567-0.0271-0.9101-0.49572-0.88201zm-3.8848 15.39c-0.74856 0-0.74856 1.1228 0 1.1228h0.43429c0.31007 0 0.56142-0.25136 0.56142-0.56143 0-0.31006-0.25135-0.56142-0.56142-0.56142zm-7.6445 4.8358h15.66l-0.75914 7.1351h-14.14zm-15.522 0.5362c-5.4479 7e-3 -9.881 4.3863-9.9545 9.8336-9e-3 0.0396-0.0144 0.0801-0.0146 0.12083-3e-5 0.31008 0.25135 0.56145 0.56143 0.56142h22.325c0.31251 4e-3 0.56776-0.24879 0.56776-0.56132s-0.25525-0.56488-0.56776-0.56132h-21.733c0.30106-4.649 4.1564-8.2675 8.8151-8.2736h8.6266c1.0795-2e-3 2.1502 0.19346 3.1588 0.5781 0.64979 0.17411 1.0002-0.73392 0.40194-1.0415-1.1366-0.43546-2.3436-0.65791-3.5608-0.65621zm29.432 2.0288c-0.0733-0.0122-0.14821-0.01-0.2205 7e-3 -0.99405 0.22382-1.9691 0.52505-2.9161 0.90092-1.2653 0.49028-2.6607 0.53071-3.9523 0.11452-2.1319-0.67696-3.8097-0.69565-3.9576-0.69669-0.31974-7e-3 -0.6353-1.1e-4 -0.93733 0.0218-0.31436 0.0157-0.55437 0.28679-0.53189 0.60074 0.0225 0.31395 0.29864 0.54807 0.61203 0.51885 0.2687-0.0187 0.55094-0.025 0.83318-0.0187h0.0147c0.0135-5e-3 1.5998-3e-5 3.6254 0.6436 0.7026 0.2231 1.4353 0.33692 2.1725 0.33746 0.86713 2e-3 1.7268-0.16007 2.5339-0.477 0.89251-0.35483 1.8115-0.63899 2.7485-0.84987 0.60676-0.12865 0.58745-1.0012-0.0244-1.1029zm-30.512 0.34376c-0.31942-0.0141-0.58609 0.24108-0.58609 0.56082 0 0.31973 0.26667 0.5749 0.58609 0.56081h0.44161c0.31943 0.0141 0.5861-0.24108 0.5861-0.56081 0-0.31974-0.26667-0.5749-0.5861-0.56082zm5.1533 0c-0.31943-0.0141-0.58609 0.24108-0.58609 0.56082 0 0.31973 0.26666 0.5749 0.58609 0.56081h0.44161c0.31942 0.0141 0.58609-0.24108 0.58609-0.56081 0-0.31974-0.26667-0.5749-0.58609-0.56082zm5.1657 0c-0.31943-0.0141-0.58609 0.24108-0.58609 0.56082 0 0.31973 0.26666 0.5749 0.58609 0.56081h0.44161c0.31943 0.0141 0.58609-0.24108 0.58609-0.56081 0-0.31974-0.26666-0.5749-0.58609-0.56082zm-12.896 3.8555c-0.73995 8e-3 -0.73995 1.1142 0 1.1226h0.43958c0.31251 4e-3 0.56775-0.24879 0.56775-0.56132s-0.25524-0.56488-0.56775-0.56132zm5.1543 0c-0.73994 8e-3 -0.73994 1.1142 0 1.1226h0.44161c0.31251 4e-3 0.56776-0.24879 0.56776-0.56132s-0.25525-0.56488-0.56776-0.56132zm5.1553 0c-0.73995 8e-3 -0.73995 1.1142 0 1.1226h0.44059c0.31252 4e-3 0.56776-0.24879 0.56776-0.56132s-0.25524-0.56488-0.56776-0.56132zm5.173 0c-0.73995 8e-3 -0.73995 1.1142 0 1.1226h0.44161c0.30751-4e-3 0.55496-0.25379 0.55496-0.56132s-0.24745-0.55782-0.55496-0.56132zm4.5752 1.4935h13.901l-0.69568 6.5312h-12.509zm6.9508 0.75711c-0.74754 1e-3 -0.74754 1.1218 0 1.1228 1.3122-2e-3 1.9704 1.5844 1.0427 2.5121-0.92775 0.92775-2.514 0.26951-2.5121-1.0427-6e-5 -0.12469 0.0153-0.2489 0.0458-0.36981 0.0895-0.30507-0.0919-0.62353-0.40003-0.70203-0.30809-0.0785-0.61982 0.11427-0.68722 0.42498-0.42062 1.6414 0.81769 3.2396 2.5122 3.2422 1.4523 0.028 2.6446-1.1419 2.6443-2.5944-3.2e-4 -1.4526-1.1932-2.6219-2.6455-2.5932zm-34.617 1.9438c-0.23133 0.0752-0.38794 0.29073-0.38791 0.53396-2e-3 0.74815 0.52937 1.3915 1.2644 1.5309 0.0281 5e-3 0.0551 0.0135 0.0832 0.0197-1.0682 1.8352-0.0208 4.1772 2.0592 4.6045 0.0368 9e-3 0.0744 0.0145 0.11229 0.0157 0.67607-4.1e-4 0.77475-0.97531 0.11249-1.1112-1.39-0.2824-2.0402-1.8925-1.2362-3.061 0.14373 0.0927 0.28543 0.19159 0.43124 0.29678 0.50616 0.36556 1.0611 0.76659 1.9328 0.94364 7e-3 3.238-1e-5 3.8879-8e-3 3.9816 0.0111-0.0703 0.0356-0.13781 0.072-0.19894-0.0427 0.0791-0.0656 0.16728-0.0667 0.25712-2.1e-4 0.0286 2e-3 0.0572 7e-3 0.0854v1.5164c-6.2e-4 0.88663 0.71832 1.6055 1.6049 1.6049h0.0301c0.88242-0.0298 1.5809-0.75641 1.5758-1.6393v-0.65397c-5e-5 -0.19441 0.1575-0.35205 0.35191-0.35211h0.10415c0.19488-6.2e-4 0.35317 0.15723 0.35312 0.35211 7e-3 1.1392 0.93222 2.0592 2.0715 2.0592 1.1392 0 2.0647-0.91995 2.0715-2.0592v-4.5575c-8e-3 -0.73994-1.1142-0.73994-1.1226 0v4.5575c-3.1e-4 0.52377-0.42506 0.94818-0.94882 0.94818-0.52377 0-0.94847-0.42441-0.94883-0.94818-1e-3 -0.81235-0.65814-1.4713-1.4705-1.4748h-0.10414c-0.81425 5.2e-4 -1.4742 0.6605-1.4748 1.4748v0.65397c0.0101 0.27365-0.20057 0.5051-0.47396 0.52074-0.12917-2e-4 -0.25347-0.0493-0.34784-0.1375-0.0922-0.0909-0.14394-0.2151-0.14361-0.34459v-1.6062c-5.2e-4 -0.0388-5e-3 -0.0775-0.0126-0.11554 0.0115-0.24475 0.0116-0.63641 0.0126-1.2905v-2.5433c1.38-0.0354 2.1193-0.56445 2.7723-1.0342 0.61551-0.44366 1.1458-0.82687 2.2601-0.82687s1.6757 0.38534 2.3203 0.83318c0.67905 0.46971 1.4488 1.003 2.836 1.0291h0.1332c1.4008-0.0281 2.1454-0.56356 2.8037-1.0364 0.61551-0.44263 1.1457-0.82586 2.2611-0.82586 1.1154 0 1.6444 0.38321 2.2599 0.82687 0.40618 0.29162 0.86663 0.62501 1.4967 0.8281 0.29444 0.095 0.61021-0.0662 0.70606-0.36036 0.0959-0.29416-0.0644-0.61042-0.35822-0.70715-0.4645-0.15102-0.8155-0.40422-1.1884-0.67188-0.67487-0.48637-1.4404-1.0415-2.9161-1.0415-1.4758 0-2.2413 0.55094-2.9161 1.0415-0.59989 0.43117-1.1187 0.80401-2.181 0.82484h-0.0675c-1.0592-0.0208-1.6018-0.39576-2.2298-0.83318-0.6978-0.48325-1.4893-1.0309-2.9589-1.0309-1.4695 0-2.2413 0.55198-2.9161 1.0415-0.61551 0.44263-1.1457 0.82586-2.2612 0.82586s-1.6444-0.38323-2.2599-0.82586c-0.2135-0.15414-0.43534-0.31264-0.6853-0.46053-0.41095-0.24472-0.86251-0.41366-1.3332-0.49877-0.20363-0.0398-0.34964-0.21951-0.34682-0.42697 3e-5 -0.38134-0.37203-0.65174-0.73473-0.53396zm28.482 4.9529h12.269l-0.66863 6.2885h-10.93zm-14.645 0.68103c-0.74856 0-0.74856 1.1228 0 1.1228h11.413c0.31007 0 0.56143-0.25136 0.56143-0.56143 0-0.31006-0.25136-0.56142-0.56143-0.56142zm-8.913 1.6176c-0.0971 4.2e-4 -0.19243 0.0263-0.27644 0.0751 0.0841-0.0486 0.17934-0.0745 0.27644-0.0751zm-0.29332 0.0901c-0.076 0.0467-0.13961 0.11106-0.18551 0.18755 0.046-0.0764 0.1096-0.14072 0.18551-0.18755zm-2.5103 0.15663c-0.31008-4e-5 -0.56146 0.25134-0.56142 0.56142v1.5622c3e-3 1.5516 1.2604 2.8086 2.812 2.812h21.279c0.31252 4e-3 0.56776-0.24879 0.56776-0.56132s-0.25524-0.56488-0.56776-0.56132v3e-3h-21.275c-0.93421-1e-3 -1.6912-0.75819-1.6924-1.6924v-1.5622c4e-5 -0.31008-0.25134-0.56146-0.56142-0.56142z"/>
</svg>
