<?xml version="1.0" encoding="UTF-8"?>
<svg version="1.1" viewBox="0 0 48 48" xml:space="preserve" xmlns="http://www.w3.org/2000/svg">
<path d="m11.31 1c-0.43779 0-0.7931 0.35531-0.7931 0.7931v3.1724c0 0.43779 0.35531 0.7931 0.7931 0.7931s0.7931-0.35531 0.7931-0.7931v-3.1724c0-0.43779-0.35531-0.7931-0.7931-0.7931zm3.1724 0c-0.43779 0-0.7931 0.35531-0.7931 0.7931v3.1724c0 0.43779 0.35531 0.7931 0.7931 0.7931s0.7931-0.35531 0.7931-0.7931v-3.1724c0-0.43779-0.35531-0.7931-0.7931-0.7931zm3.1724 0c-0.43779 0-0.7931 0.35531-0.7931 0.7931v3.1724c0 0.43779 0.35531 0.7931 0.7931 0.7931 0.43779 0 0.7931-0.35531 0.7931-0.7931v-3.1724c0-0.43779-0.35531-0.7931-0.7931-0.7931zm3.1724 0c-0.43779 0-0.7931 0.35531-0.7931 0.7931v3.1724c0 0.43779 0.35531 0.7931 0.7931 0.7931s0.7931-0.35531 0.7931-0.7931v-3.1724c0-0.43779-0.35531-0.7931-0.7931-0.7931zm3.1724 0c-0.43779 0-0.7931 0.35531-0.7931 0.7931v3.1724c0 0.43779 0.35531 0.7931 0.7931 0.7931s0.7931-0.35531 0.7931-0.7931v-3.1724c0-0.43779-0.35531-0.7931-0.7931-0.7931zm3.1724 0c-0.43779 0-0.7931 0.35531-0.7931 0.7931v3.1724c0 0.43779 0.35531 0.7931 0.7931 0.7931s0.7931-0.35531 0.7931-0.7931v-3.1724c0-0.43779-0.35531-0.7931-0.7931-0.7931zm3.1724 0c-0.43779 0-0.7931 0.35531-0.7931 0.7931v3.1724c0 0.43779 0.35531 0.7931 0.7931 0.7931 0.43779 0 0.7931-0.35531 0.7931-0.7931v-3.1724c0-0.43779-0.35531-0.7931-0.7931-0.7931zm3.1724 0c-0.43779 0-0.7931 0.35531-0.7931 0.7931v3.1724c0 0.43779 0.35531 0.7931 0.7931 0.7931s0.7931-0.35531 0.7931-0.7931v-3.1724c0-0.43779-0.35531-0.7931-0.7931-0.7931zm3.1724 0c-0.43779 0-0.7931 0.35531-0.7931 0.7931v3.1724c0 0.43779 0.35531 0.7931 0.7931 0.7931s0.7931-0.35531 0.7931-0.7931v-3.1724c0-0.43779-0.35531-0.7931-0.7931-0.7931zm-26.172 6.3448c-0.21096 0-0.41323 0.084837-0.56075 0.23235l-1.6853 1.6853c-0.30931 0.30931-0.30931 0.81068 0 1.1184 0.30931 0.30931 0.81219 0.30931 1.1215 0l1.453-1.4499h26.309l1.9146 1.9146v26.309l-1.9146 1.9146h-26.309l-1.9146-1.9146v-24.258c0-0.43938-0.35531-0.7931-0.7931-0.7931-0.43779 0-0.7931 0.35372-0.7931 0.7931v24.586c0 0.21096 0.084837 0.41165 0.23235 0.56075l2.3793 2.3793c0.1491 0.14752 0.34978 0.23235 0.56075 0.23235h26.966c0.21096 0 0.41165-0.08483 0.56075-0.23235l2.3793-2.3793c0.14752-0.1491 0.23235-0.34978 0.23235-0.56075v-26.966c0-0.21096-0.08484-0.41164-0.23235-0.56075l-2.3793-2.3793c-0.1491-0.14752-0.34978-0.23235-0.56075-0.23235zm-8.7241 3.1724c-0.43779 0-0.7931 0.35531-0.7931 0.7931s0.35531 0.7931 0.7931 0.7931h3.1724c0.43779 0 0.7931-0.35531 0.7931-0.7931s-0.35531-0.7931-0.7931-0.7931zm41.241 0c-0.43779 0-0.7931 0.35531-0.7931 0.7931s0.35531 0.7931 0.7931 0.7931h3.1724c0.43779 0 0.7931-0.35531 0.7931-0.7931s-0.35531-0.7931-0.7931-0.7931zm-41.241 3.1724c-0.43779 0-0.7931 0.35531-0.7931 0.7931s0.35531 0.7931 0.7931 0.7931h3.1724c0.43779 0 0.7931-0.35531 0.7931-0.7931s-0.35531-0.7931-0.7931-0.7931zm41.241 0c-0.43779 0-0.7931 0.35531-0.7931 0.7931s0.35531 0.7931 0.7931 0.7931h3.1724c0.43779 0 0.7931-0.35531 0.7931-0.7931s-0.35531-0.7931-0.7931-0.7931zm-41.241 3.1724c-0.43779 0-0.7931 0.35531-0.7931 0.7931 0 0.43779 0.35531 0.7931 0.7931 0.7931h3.1724c0.43779 0 0.7931-0.35531 0.7931-0.7931 0-0.43779-0.35531-0.7931-0.7931-0.7931zm15.862 0a0.7931 0.7931 0 0 0-0.7931 0.7931 0.7931 0.7931 0 0 0 0.7931 0.7931 0.7931 0.7931 0 0 0 0.7931-0.7931 0.7931 0.7931 0 0 0-0.7931-0.7931zm3.1724 0a0.7931 0.7931 0 0 0-0.7931 0.7931 0.7931 0.7931 0 0 0 0.7931 0.7931 0.7931 0.7931 0 0 0 0.7931-0.7931 0.7931 0.7931 0 0 0-0.7931-0.7931zm3.1724 0a0.7931 0.7931 0 0 0-0.7931 0.7931 0.7931 0.7931 0 0 0 0.7931 0.7931 0.7931 0.7931 0 0 0 0.7931-0.7931 0.7931 0.7931 0 0 0-0.7931-0.7931zm3.1724 0a0.7931 0.7931 0 0 0-0.7931 0.7931 0.7931 0.7931 0 0 0 0.7931 0.7931 0.7931 0.7931 0 0 0 0.7931-0.7931 0.7931 0.7931 0 0 0-0.7931-0.7931zm3.1724 0a0.7931 0.7931 0 0 0-0.7931 0.7931 0.7931 0.7931 0 0 0 0.7931 0.7931 0.7931 0.7931 0 0 0 0.7931-0.7931 0.7931 0.7931 0 0 0-0.7931-0.7931zm12.69 0c-0.43779 0-0.7931 0.35531-0.7931 0.7931 0 0.43779 0.35531 0.7931 0.7931 0.7931h3.1724c0.43779 0 0.7931-0.35531 0.7931-0.7931 0-0.43779-0.35531-0.7931-0.7931-0.7931zm-41.241 3.1724c-0.43779 0-0.7931 0.35531-0.7931 0.7931s0.35531 0.7931 0.7931 0.7931h3.1724c0.43779 0 0.7931-0.35531 0.7931-0.7931s-0.35531-0.7931-0.7931-0.7931zm15.862 0a0.7931 0.7931 0 0 0-0.7931 0.7931 0.7931 0.7931 0 0 0 0.7931 0.7931 0.7931 0.7931 0 0 0 0.7931-0.7931 0.7931 0.7931 0 0 0-0.7931-0.7931zm3.1724 0a0.7931 0.7931 0 0 0-0.7931 0.7931 0.7931 0.7931 0 0 0 0.7931 0.7931 0.7931 0.7931 0 0 0 0.7931-0.7931 0.7931 0.7931 0 0 0-0.7931-0.7931zm3.1724 0a0.7931 0.7931 0 0 0-0.7931 0.7931 0.7931 0.7931 0 0 0 0.7931 0.7931 0.7931 0.7931 0 0 0 0.7931-0.7931 0.7931 0.7931 0 0 0-0.7931-0.7931zm3.1724 0a0.7931 0.7931 0 0 0-0.7931 0.7931 0.7931 0.7931 0 0 0 0.7931 0.7931 0.7931 0.7931 0 0 0 0.7931-0.7931 0.7931 0.7931 0 0 0-0.7931-0.7931zm3.1724 0a0.7931 0.7931 0 0 0-0.7931 0.7931 0.7931 0.7931 0 0 0 0.7931 0.7931 0.7931 0.7931 0 0 0 0.7931-0.7931 0.7931 0.7931 0 0 0-0.7931-0.7931zm12.69 0c-0.43779 0-0.7931 0.35531-0.7931 0.7931s0.35531 0.7931 0.7931 0.7931h3.1724c0.43779 0 0.7931-0.35531 0.7931-0.7931s-0.35531-0.7931-0.7931-0.7931zm-41.241 3.1724c-0.43779 0-0.7931 0.35531-0.7931 0.7931s0.35531 0.7931 0.7931 0.7931h3.1724c0.43779 0 0.7931-0.35531 0.7931-0.7931s-0.35531-0.7931-0.7931-0.7931zm15.862 0a0.7931 0.7931 0 0 0-0.7931 0.7931 0.7931 0.7931 0 0 0 0.7931 0.7931 0.7931 0.7931 0 0 0 0.7931-0.7931 0.7931 0.7931 0 0 0-0.7931-0.7931zm3.1724 0a0.7931 0.7931 0 0 0-0.7931 0.7931 0.7931 0.7931 0 0 0 0.7931 0.7931 0.7931 0.7931 0 0 0 0.7931-0.7931 0.7931 0.7931 0 0 0-0.7931-0.7931zm3.1724 0a0.7931 0.7931 0 0 0-0.7931 0.7931 0.7931 0.7931 0 0 0 0.7931 0.7931 0.7931 0.7931 0 0 0 0.7931-0.7931 0.7931 0.7931 0 0 0-0.7931-0.7931zm3.1724 0a0.7931 0.7931 0 0 0-0.7931 0.7931 0.7931 0.7931 0 0 0 0.7931 0.7931 0.7931 0.7931 0 0 0 0.7931-0.7931 0.7931 0.7931 0 0 0-0.7931-0.7931zm3.1724 0a0.7931 0.7931 0 0 0-0.7931 0.7931 0.7931 0.7931 0 0 0 0.7931 0.7931 0.7931 0.7931 0 0 0 0.7931-0.7931 0.7931 0.7931 0 0 0-0.7931-0.7931zm12.69 0c-0.43779 0-0.7931 0.35531-0.7931 0.7931s0.35531 0.7931 0.7931 0.7931h3.1724c0.43779 0 0.7931-0.35531 0.7931-0.7931s-0.35531-0.7931-0.7931-0.7931zm-41.241 3.1724c-0.43779 0-0.7931 0.35531-0.7931 0.7931s0.35531 0.7931 0.7931 0.7931h3.1724c0.43779 0 0.7931-0.35531 0.7931-0.7931s-0.35531-0.7931-0.7931-0.7931zm15.862 0a0.7931 0.7931 0 0 0-0.7931 0.7931 0.7931 0.7931 0 0 0 0.7931 0.7931 0.7931 0.7931 0 0 0 0.7931-0.7931 0.7931 0.7931 0 0 0-0.7931-0.7931zm3.1724 0a0.7931 0.7931 0 0 0-0.7931 0.7931 0.7931 0.7931 0 0 0 0.7931 0.7931 0.7931 0.7931 0 0 0 0.7931-0.7931 0.7931 0.7931 0 0 0-0.7931-0.7931zm3.1724 0a0.7931 0.7931 0 0 0-0.7931 0.7931 0.7931 0.7931 0 0 0 0.7931 0.7931 0.7931 0.7931 0 0 0 0.7931-0.7931 0.7931 0.7931 0 0 0-0.7931-0.7931zm3.1724 0a0.7931 0.7931 0 0 0-0.7931 0.7931 0.7931 0.7931 0 0 0 0.7931 0.7931 0.7931 0.7931 0 0 0 0.7931-0.7931 0.7931 0.7931 0 0 0-0.7931-0.7931zm3.1724 0a0.7931 0.7931 0 0 0-0.7931 0.7931 0.7931 0.7931 0 0 0 0.7931 0.7931 0.7931 0.7931 0 0 0 0.7931-0.7931 0.7931 0.7931 0 0 0-0.7931-0.7931zm12.69 0c-0.43779 0-0.7931 0.35531-0.7931 0.7931s0.35531 0.7931 0.7931 0.7931h3.1724c0.43779 0 0.7931-0.35531 0.7931-0.7931s-0.35531-0.7931-0.7931-0.7931zm-41.241 3.1724c-0.43779 0-0.7931 0.35531-0.7931 0.7931 0 0.43779 0.35531 0.7931 0.7931 0.7931h3.1724c0.43779 0 0.7931-0.35531 0.7931-0.7931 0-0.43779-0.35531-0.7931-0.7931-0.7931zm15.862 0a0.7931 0.7931 0 0 0-0.7931 0.7931 0.7931 0.7931 0 0 0 0.7931 0.7931 0.7931 0.7931 0 0 0 0.7931-0.7931 0.7931 0.7931 0 0 0-0.7931-0.7931zm3.1724 0a0.7931 0.7931 0 0 0-0.7931 0.7931 0.7931 0.7931 0 0 0 0.7931 0.7931 0.7931 0.7931 0 0 0 0.7931-0.7931 0.7931 0.7931 0 0 0-0.7931-0.7931zm3.1724 0a0.7931 0.7931 0 0 0-0.7931 0.7931 0.7931 0.7931 0 0 0 0.7931 0.7931 0.7931 0.7931 0 0 0 0.7931-0.7931 0.7931 0.7931 0 0 0-0.7931-0.7931zm3.1724 0a0.7931 0.7931 0 0 0-0.7931 0.7931 0.7931 0.7931 0 0 0 0.7931 0.7931 0.7931 0.7931 0 0 0 0.7931-0.7931 0.7931 0.7931 0 0 0-0.7931-0.7931zm3.1724 0a0.7931 0.7931 0 0 0-0.7931 0.7931 0.7931 0.7931 0 0 0 0.7931 0.7931 0.7931 0.7931 0 0 0 0.7931-0.7931 0.7931 0.7931 0 0 0-0.7931-0.7931zm12.69 0c-0.43779 0-0.7931 0.35531-0.7931 0.7931 0 0.43779 0.35531 0.7931 0.7931 0.7931h3.1724c0.43779 0 0.7931-0.35531 0.7931-0.7931 0-0.43779-0.35531-0.7931-0.7931-0.7931zm-41.241 3.1724c-0.43779 0-0.7931 0.35531-0.7931 0.7931s0.35531 0.7931 0.7931 0.7931h3.1724c0.43779 0 0.7931-0.35531 0.7931-0.7931s-0.35531-0.7931-0.7931-0.7931zm41.241 0c-0.43779 0-0.7931 0.35531-0.7931 0.7931s0.35531 0.7931 0.7931 0.7931h3.1724c0.43779 0 0.7931-0.35531 0.7931-0.7931s-0.35531-0.7931-0.7931-0.7931zm-41.241 3.1724c-0.43779 0-0.7931 0.35531-0.7931 0.7931s0.35531 0.7931 0.7931 0.7931h3.1724c0.43779 0 0.7931-0.35531 0.7931-0.7931s-0.35531-0.7931-0.7931-0.7931zm41.241 0c-0.43779 0-0.7931 0.35531-0.7931 0.7931s0.35531 0.7931 0.7931 0.7931h3.1724c0.43779 0 0.7931-0.35531 0.7931-0.7931s-0.35531-0.7931-0.7931-0.7931zm-31.724 6.3448c-0.43779 0-0.7931 0.35531-0.7931 0.7931v3.1724c0 0.43779 0.35531 0.7931 0.7931 0.7931s0.7931-0.35531 0.7931-0.7931v-3.1724c0-0.43779-0.35531-0.7931-0.7931-0.7931zm3.1724 0c-0.43779 0-0.7931 0.35531-0.7931 0.7931v3.1724c0 0.43779 0.35531 0.7931 0.7931 0.7931s0.7931-0.35531 0.7931-0.7931v-3.1724c0-0.43779-0.35531-0.7931-0.7931-0.7931zm3.1724 0c-0.43779 0-0.7931 0.35531-0.7931 0.7931v3.1724c0 0.43779 0.35531 0.7931 0.7931 0.7931 0.43779 0 0.7931-0.35531 0.7931-0.7931v-3.1724c0-0.43779-0.35531-0.7931-0.7931-0.7931zm3.1724 0c-0.43779 0-0.7931 0.35531-0.7931 0.7931v3.1724c0 0.43779 0.35531 0.7931 0.7931 0.7931s0.7931-0.35531 0.7931-0.7931v-3.1724c0-0.43779-0.35531-0.7931-0.7931-0.7931zm3.1724 0c-0.43779 0-0.7931 0.35531-0.7931 0.7931v3.1724c0 0.43779 0.35531 0.7931 0.7931 0.7931s0.7931-0.35531 0.7931-0.7931v-3.1724c0-0.43779-0.35531-0.7931-0.7931-0.7931zm3.1724 0c-0.43779 0-0.7931 0.35531-0.7931 0.7931v3.1724c0 0.43779 0.35531 0.7931 0.7931 0.7931s0.7931-0.35531 0.7931-0.7931v-3.1724c0-0.43779-0.35531-0.7931-0.7931-0.7931zm3.1724 0c-0.43779 0-0.7931 0.35531-0.7931 0.7931v3.1724c0 0.43779 0.35531 0.7931 0.7931 0.7931 0.43779 0 0.7931-0.35531 0.7931-0.7931v-3.1724c0-0.43779-0.35531-0.7931-0.7931-0.7931zm3.1724 0c-0.43779 0-0.7931 0.35531-0.7931 0.7931v3.1724c0 0.43779 0.35531 0.7931 0.7931 0.7931s0.7931-0.35531 0.7931-0.7931v-3.1724c0-0.43779-0.35531-0.7931-0.7931-0.7931zm3.1724 0c-0.43779 0-0.7931 0.35531-0.7931 0.7931v3.1724c0 0.43779 0.35531 0.7931 0.7931 0.7931s0.7931-0.35531 0.7931-0.7931v-3.1724c0-0.43779-0.35531-0.7931-0.7931-0.7931z"/>
</svg>
