<?xml version="1.0" encoding="UTF-8"?>
<svg version="1.1" viewBox="0 0 48 48" xml:space="preserve" xmlns="http://www.w3.org/2000/svg">
<path d="m46.992 17.1c-0.0759-1.3118-1.6361-2.3368-4.7564-3.1188 0.10503-0.23 0.16406-0.4692 0.16483-0.7176v-5.3636h-0.01303c-0.27447-4.4681-18.584-4.6-20.687-4.6s-20.413 0.13187-20.687 4.6h-0.013036v5.3659c0.0038 1.4567 1.8837 2.5967 4.6805 3.4454-0.03833 0.12727-0.06133 0.25683-0.069 0.3887h-0.0115v5.3567c-3.013 0.77587-4.518 1.7863-4.5923 3.0766h-0.007667v5.3659c0.0023 1.0143 0.91693 1.8745 2.4135 2.5913-0.05673 0.15563-0.092 0.31433-0.10197 0.47687h-0.0115v5.3659c0.0061 2.5499 5.7477 4.1331 12.127 4.8722 0.04677 0.0092 0.0897 0.02837 0.13953 0.02837 0.01457 0 0.02683-0.0077 0.0414-0.0084 1.2297 0.13877 2.4794 0.24687 3.716 0.3243 0.02607 0.0031 0.04907 0.01533 0.0759 0.01533 0.01457 0 0.02607-0.0077 0.03987-0.0084 1.5701 0.09507 3.115 0.14337 4.5601 0.14337 1.4452 0 2.99-0.0483 4.5601-0.14413 0.0138 7.66e-4 0.02607 0.0084 0.03987 0.0084 0.02683 0 0.04983-0.01303 0.0759-0.01533 1.2366-0.07743 2.4863-0.18477 3.716-0.3243 0.01457 0 0.02683 0.0077 0.0414 0.0077 0.04983 0 0.09277-0.01917 0.13954-0.02837 6.3794-0.73907 12.12-2.323 12.127-4.8737v-5.3636h-0.01227c-0.05367-0.93993-0.85483-1.7242-2.4372-2.3797 0.0966-0.22157 0.1495-0.45157 0.1495-0.69v-5.0109c2.7523-0.8464 4.5962-1.9788 4.6-3.4224v-5.3636zm-6.2077 14.046-0.26143 0.22923c-0.4025 0.35497-1.0733 0.713-1.9558 1.058v-3.6555c0.91157-0.3174 1.6874-0.6693 2.3-1.0549v3.1725c0 0.07897-0.02913 0.1633-0.0828 0.2507zm-17.147 3.5627c-0.11193 0.0031-0.22463 0.0046-0.33733 0.0069-0.2737 0.0054-0.5543 0.0069-0.83183 0.0092v-3.8295c0.21083-0.0023 0.42167-0.0054 0.6325-0.0092l0.1219-0.0023c0.77203-0.01457 1.5441-0.03833 2.3123-0.0736v3.828c-0.16407 0.0084-0.3289 0.0161-0.49527 0.023-0.46153 0.0207-0.92767 0.03603-1.4022 0.04753zm-3.348 0.01073c-0.35113-0.0061-0.70073-0.01457-1.048-0.0253l-0.1288-0.0046c-0.41783-0.0138-0.8326-0.03143-1.2443-0.05137v-3.8272c0.7682 0.03603 1.5402 0.0598 2.3123 0.0736 0.04063 7.66e-4 0.08127 0.0015 0.12113 0.0023 0.21083 0.0038 0.42167 0.0069 0.6325 0.0092v3.8318c-0.14873-0.0015-0.29747-0.0015-0.44543-0.0038-0.06747-0.0015-0.13263-0.0038-0.19933-0.0046zm-13.848-1.748c-0.0253-0.0077-0.04907-0.01457-0.07437-0.02147v-3.7038c0.71607 0.1932 1.4858 0.36953 2.3 0.52977v3.7421c-0.7038-0.1495-1.3532-0.30667-1.9443-0.46767-0.09353-0.02683-0.19013-0.05213-0.28137-0.07897zm16.16 6.3488c0.21083 0.0038 0.42167 0.0069 0.6325 0.0092v3.8326c-1.0595-0.01-2.0823-0.04063-3.0667-0.08893v-3.828c0.7682 0.03603 1.5402 0.0598 2.3123 0.0736 0.04063 0 0.08127 7.66e-4 0.1219 0.0015zm2.9202-0.0023c0.77203-0.01457 1.5441-0.03833 2.3123-0.0736v3.828c-0.9844 0.0483-2.0071 0.07897-3.0667 0.08893v-3.8326c0.21083-0.0023 0.42167-0.0054 0.6325-0.0092 0.04063 0 0.08127-7.66e-4 0.1219-0.0015zm6.1456-0.34653v3.8073c-0.73677 0.07743-1.5034 0.14567-2.3 0.20163v-3.8234c0.7774-0.0506 1.5456-0.1127 2.3-0.18553zm1.5333-0.1656c0.79043-0.09507 1.5579-0.20317 2.3-0.32353v3.7643c-0.7222 0.12727-1.4896 0.24457-2.3 0.35113zm3.8333-0.59723c0.8142-0.16023 1.5839-0.33656 2.3-0.52977v3.7038c-0.6831 0.19703-1.4521 0.38793-2.3 0.5681zm-26.067 0v3.7421c-0.84793-0.18017-1.6169-0.37107-2.3-0.5681v-3.7038c0.71607 0.1932 1.4858 0.3703 2.3 0.52977zm1.5333 0.27447c0.74213 0.12037 1.5096 0.22847 2.3 0.32353v3.7919c-0.81037-0.10657-1.5778-0.22387-2.3-0.35113zm3.8333 0.48837c0.7544 0.07283 1.5226 0.13493 2.3 0.1863v3.8234c-0.79657-0.05597-1.5632-0.1242-2.3-0.20163zm-1.9021-4.5847c-0.0782-0.0077-0.15563-0.0161-0.23307-0.02377-0.0552-0.0054-0.10963-0.01227-0.16483-0.01763v-3.8065c0.7544 0.07283 1.5226 0.13493 2.3 0.1863v3.8203c-0.644-0.046-1.2803-0.09813-1.9021-0.1587zm-1.9312-4.0143v3.7919c-0.81037-0.10657-1.5778-0.22387-2.3-0.35113v-3.7643c0.74213 0.12037 1.5096 0.22923 2.3 0.32353zm15.077 4.1369c-0.16867 0.01303-0.33887 0.02607-0.5106 0.03833v-3.8234c0.7774-0.05137 1.5456-0.1127 2.3-0.1863v3.8073c-0.4738 0.04983-0.95833 0.0966-1.4559 0.13723-0.11117 0.01-0.22233 0.0184-0.3335 0.02683zm3.3227-0.345v-3.7919c0.79043-0.09507 1.5579-0.20317 2.3-0.32353v3.7643c-0.7222 0.12727-1.4896 0.24533-2.3 0.35113zm3.8333-4.3892c0.8142-0.16023 1.5839-0.33657 2.3-0.52977v3.7038c-0.6831 0.19703-1.4521 0.38793-2.3 0.5681zm-10.484-3.5021c-0.57653-0.01457-1.14-0.0368-1.6936-0.06363-0.0299-0.0015-0.0598-0.0031-0.08893-0.0038v-3.828c0.7682 0.03603 1.5402 0.0598 2.3123 0.0736 0.04063 7.67e-4 0.08127 0.0015 0.12113 0.0023 0.21083 0.0038 0.42167 0.0069 0.6325 0.0092v3.828c-0.37337-0.0038-0.7498-0.0054-1.114-0.0138-0.05597-0.0015-0.11347-0.0023-0.16943-0.0038zm-17.883-10.956v-3.7038c0.71607 0.1932 1.4858 0.36953 2.3 0.52977v3.7421c-0.0943-0.01993-0.19167-0.03987-0.28367-0.0598-0.40787-0.0897-0.80577-0.18323-1.186-0.28213-0.2898-0.07437-0.56503-0.15027-0.8303-0.22617zm13.934-2.0631c0.21083 0.0038 0.42167 0.0069 0.6325 0.0092v3.828c-1.0319-0.01-2.0577-0.0368-3.0667-0.0874v-3.8249c0.7682 0.03603 1.5402 0.0598 2.3123 0.0736 0.04063 0 0.08127 7.67e-4 0.1219 0.0015zm2.9202-0.0023c0.77203-0.01457 1.5441-0.03833 2.3123-0.0736v3.8249c-0.13033 0.0061-0.2553 0.01533-0.3864 0.02147-0.01073 7.67e-4 -0.02147 7.67e-4 -0.03297 0.0015-0.51444 0.023-1.0388 0.03987-1.5701 0.05213-0.0828 0.0023-0.1656 0.0031-0.2484 0.0054-0.27293 0.0054-0.552 0.0061-0.82877 0.0092v-3.8295c0.21083-0.0023 0.42167-0.0054 0.6325-0.0092zm17.47 0.38487-0.02147-0.0046-0.27907 0.21697c-0.4048 0.3151-1.0266 0.63403-1.8239 0.94223v-3.647c0.91157-0.3174 1.6874-0.6693 2.3-1.0549v3.1725c0 0.11653-0.06133 0.24227-0.17557 0.3749zm-9.7911 2.8903v-3.7873c0.79043-0.09507 1.5579-0.20317 2.3-0.32353v3.7582c-0.7268 0.1288-1.4919 0.24687-2.3 0.35267zm3.8333-0.64783v-3.736c0.8142-0.16023 1.5839-0.33657 2.3-0.52977v3.6953c-0.68693 0.2001-1.4605 0.391-2.3 0.5704zm-5.3667-2.9739v3.8027c-0.7406 0.0782-1.5073 0.14643-2.3 0.20317v-3.8195c0.7774-0.05137 1.5456-0.11347 2.3-0.1863zm-15.333 3.8042v-3.8042c0.7544 0.07283 1.5226 0.13493 2.3 0.1863v3.8165c-0.78046-0.05597-1.5502-0.1196-2.3-0.19857zm-1.5333-3.9698v3.7881c-0.1518-0.01993-0.30973-0.03603-0.46-0.05673-0.09813-0.0138-0.19167-0.02837-0.28827-0.04217-0.44313-0.06363-0.8763-0.13187-1.301-0.20317-0.0851-0.01457-0.16713-0.0299-0.2507-0.04447v-3.7643c0.74213 0.1196 1.5096 0.22847 2.3 0.32277zm8.2432 13.361c-0.1035-0.0077-0.20777-0.01533-0.3105-0.023-0.49067-0.03833-0.96983-0.0805-1.4375-0.12727-0.10043-0.01-0.20087-0.0207-0.30053-0.03067-0.0207-0.0023-0.04063-0.0054-0.06133-0.0069v-3.8073c0.7544 0.07283 1.5226 0.13493 2.3 0.1863v3.8211c-0.0621-0.0046-0.12803-0.0077-0.19013-0.01227zm-5.0654-0.5727c-0.3036-0.0483-0.5888-0.10043-0.87783-0.15103v-3.7597c0.74213 0.12037 1.5096 0.22847 2.3 0.32353v3.7919c-0.4692-0.0621-0.92843-0.1265-1.3693-0.1955-0.01763-0.0038-0.03527-0.0069-0.0529-0.0092zm-2.4112-4.1852v3.736c-0.84717-0.1817-1.6154-0.3749-2.3-0.57577v-3.69c0.71607 0.1932 1.4858 0.3703 2.3 0.52977zm-3.8333-0.9982v3.6424c-1.2052-0.46537-1.9826-0.9407-2.2356-1.3639l-0.05137-0.08587c-0.0046-0.02377-0.01227-0.04907-0.01303-0.07283v-3.1748c0.61257 0.38563 1.3884 0.73753 2.3 1.0549zm18.388 2.1076c0.77203-0.01457 1.5441-0.03833 2.3123-0.0736v3.8241c-1.0074 0.04983-2.0317 0.07743-3.0667 0.08817v-3.8272c0.21083-0.0023 0.42167-0.0054 0.6325-0.0092zm9.9076 2.9417c-0.33657 0.05827-0.6762 0.11577-1.025 0.16867-0.2001 0.03067-0.4048 0.0598-0.61027 0.08893-0.19397 0.0276-0.3956 0.05137-0.59263 0.07667v-3.7881c0.79043-0.09507 1.5579-0.20317 2.3-0.32353v3.7643c-0.02453 0.0046-0.0483 0.0092-0.07207 0.01303zm-5.1911 0.65473c-0.28597 0.02377-0.58113 0.0391-0.87093 0.0598v-3.8165c0.7774-0.05137 1.5456-0.1127 2.3-0.1863v3.8034c-0.44543 0.04677-0.8901 0.09353-1.3478 0.13187-0.0276 0.0023-0.05367 0.0054-0.08127 0.0077zm8.7615-1.4375c-0.3818 0.10657-0.78583 0.20623-1.1983 0.3036-0.1909 0.04447-0.38563 0.08893-0.58497 0.13187-0.05903 0.01303-0.1219 0.02453-0.1817 0.03757v-3.7406c0.8142-0.16023 1.5839-0.33657 2.3-0.52977v3.7038c-0.1104 0.03067-0.22157 0.0621-0.33503 0.09353zm4.1592-7.4604c-0.07053 0.52057-1.2504 1.2129-3.3565 1.8638-2.7125 0.83797-6.9567 1.6054-12.336 1.8431-0.27523 0.0115-0.5497 0.023-0.8303 0.0322-0.22923 0.0077-0.45923 0.01457-0.69307 0.0207-0.6348 0.0138-1.2788 0.02377-1.9427 0.02377s-1.3079-0.01-1.9427-0.02453c-0.23307-0.0054-0.46307-0.01303-0.69307-0.0207-0.28137-0.0084-0.55583-0.0207-0.8303-0.0322-5.3789-0.23767-9.624-1.0051-12.336-1.8431-2.0892-0.64553-3.2668-1.3325-3.3542-1.8507 0.0038-0.01457 0.0038-0.02683 0.01303-0.04523 0.05213 0.01303 0.1104 0.02377 0.1633 0.0368 0.29977 0.0713 0.6072 0.1403 0.92 0.20623 1.5234 0.32813 3.2116 0.59723 5.0102 0.8027 0.0061 0 0.01073 0.0031 0.0161 0.0031 0.0015 0 0.0031-7.67e-4 0.0038-7.67e-4 1.2251 0.13953 2.4963 0.24917 3.8011 0.3266 0.01 0 0.0184 0.0054 0.02837 0.0054 0.0054 0 0.0092-0.0031 0.01457-0.0031 0.93917 0.0552 1.8906 0.09583 2.8535 0.1173 0.58957 0.01457 1.1684 0.02223 1.7319 0.02223 0.4025 0 0.81497-0.0046 1.2313-0.01227 5.5706-0.08587 10.733-0.74827 14.326-1.7748 0.1656-0.04677 0.32737-0.09507 0.48683-0.14337 0.09737-0.0299 0.19703-0.05903 0.29133-0.08893 0.27753-0.08893 0.54357-0.18017 0.8004-0.27523 0.04447-0.01687 0.08663-0.03373 0.1311-0.0506 0.21697-0.08203 0.4255-0.16713 0.62483-0.25377 0.0575-0.0253 0.11653-0.04983 0.1725-0.07513 0.21237-0.09583 0.41783-0.19397 0.60797-0.29593 0.08587-0.04523 0.16023-0.092 0.24073-0.138 0.092-0.0529 0.184-0.10657 0.2691-0.161 0.0483-0.03067 0.1058-0.0598 0.1518-0.09047 3.4324 0.74443 4.337 1.5586 4.4244 1.876zm-23.758-12.317c12.642 0 19.036 1.9903 19.155 3.1326-0.09277 0.51827-1.2696 1.2029-3.3534 1.8469-2.7125 0.83797-6.9567 1.6054-12.336 1.8431-0.27523 0.0115-0.5497 0.023-0.8303 0.0322-0.22923 0.0077-0.45923 0.01457-0.69307 0.0207-0.6348 0.01457-1.2788 0.02453-1.9427 0.02453s-1.3079-0.01-1.9427-0.02453c-0.23307-0.0054-0.46307-0.01303-0.69307-0.0207-0.28137-0.0084-0.55583-0.0207-0.8303-0.0322-5.3789-0.23767-9.624-1.0051-12.336-1.8431-2.0846-0.644-3.2606-1.3286-3.3534-1.8469 0.1196-1.1423 6.5136-3.1326 19.155-3.1326zm-19.167 8.4303v-3.1748c0.61257 0.38563 1.3884 0.73753 2.3 1.0549v3.6708c-1.4912-0.5589-2.2985-1.1193-2.3-1.551zm3.7137 10.61c0.0115 0.01227 0.02913 0.023 0.04063 0.03527 1.0496 1.0595 3.2231 1.8921 5.9286 2.5131 0.0621 0.01457 0.12803 0.02837 0.1909 0.04293 0.19857 0.04447 0.4002 0.08817 0.60413 0.13033 2.4848 0.529 5.451 0.91157 8.6825 1.1009 0.0023 0 0.0038 7.67e-4 0.0054 7.67e-4 0.0015 0 0.0023-7.67e-4 0.0031-7.67e-4 1.0381 0.06057 2.0999 0.10273 3.184 0.12113 0.47993 0.01 0.9522 0.0161 1.4137 0.0161 0.529 0 1.0718-0.0061 1.6238-0.01917 1.0028-0.0207 1.991-0.0621 2.9655-0.11883 0.0038 0 0.0069 0.0023 0.01073 0.0023 0.0069 0 0.01227-0.0038 0.01917-0.0038 3.2399-0.1909 6.2798-0.5773 8.8504-1.1331-0.5566 0.29133-1.3187 0.59263-2.2678 0.88627-2.8635 0.88473-7.4367 1.6905-13.249 1.8776-0.1725 0.0054-0.3427 0.0115-0.5175 0.0161-0.18783 0.0046-0.37873 0.0077-0.56963 0.0115-0.48223 0.0077-0.96753 0.01457-1.4659 0.01457-0.66393 0-1.3079-0.01-1.9427-0.02453-0.23307-0.0054-0.46307-0.01303-0.69307-0.0207-0.28137-0.0084-0.55583-0.0207-0.8303-0.0322-5.3789-0.23767-9.624-1.0051-12.336-1.8431-2.1083-0.65167-3.2882-1.3447-3.3565-1.8653 0.0851-0.28827 0.8602-1.0097 3.7053-1.7074zm-3.7137 7.0234v-3.1748c0.61257 0.38563 1.3884 0.73753 2.3 1.0549v3.6562l-0.43777-0.1702-0.0092 0.0092c-1.2037-0.4991-1.8515-0.989-1.853-1.3754zm2.3 8.4333v-3.1748c0.61257 0.38563 1.3884 0.73753 2.3 1.0549v3.6708c-1.4912-0.5589-2.2985-1.1193-2.3-1.551zm36.033 1.551v-3.67c0.91157-0.3174 1.6874-0.6693 2.3-1.0549v3.1725c-7.67e-4 0.43163-0.80883 0.99283-2.3 1.5525zm2.29-6.8555c-0.08357 0.51903-1.2612 1.2075-3.3549 1.8546-2.7125 0.83797-6.9567 1.6054-12.336 1.8431-0.27523 0.0115-0.5497 0.023-0.8303 0.0322-0.22923 0.0077-0.45923 0.01457-0.69307 0.0207-0.6348 0.0138-1.2788 0.02377-1.9427 0.02377s-1.3087-0.01-1.9443-0.02453c-0.23077-0.0054-0.45847-0.01303-0.68617-0.0207-0.2829-0.0092-0.5589-0.0207-0.83567-0.0322-5.3789-0.23767-9.6232-1.0051-12.336-1.8431-2.0278-0.62637-3.1993-1.2918-3.3465-1.8055 0.22847 0.07973 0.46537 0.15717 0.7084 0.23307 0.02453 0.0077 0.04907 0.01533 0.0736 0.02223 0.207 0.06363 0.4186 0.12497 0.63557 0.18477 0.08203 0.023 0.16483 0.046 0.2484 0.06823 0.12267 0.03297 0.2484 0.0644 0.37413 0.0966 2.7922 0.7153 6.3564 1.2221 10.204 1.4498 0.0015 0 0.0023 7.66e-4 0.0038 7.66e-4 7.67e-4 0 0.0015-7.66e-4 0.0023-7.66e-4 1.1883 0.07053 2.402 0.11423 3.6286 0.1288 0.3266 0.0061 0.6509 0.0092 0.96907 0.0092 0.42243 0 0.85483-0.0054 1.2926-0.01303 1.1186-0.0184 2.2226-0.0598 3.302-0.1242 0.0023 0 0.0038 0.0015 0.0061 0.0015 0.0038 0 0.0061-0.0023 0.01-0.0023 1.3148-0.07897 2.5875-0.19167 3.8103-0.33197 0.0046 0 0.0084 0.0023 0.01303 0.0023 0.01687 0 0.03067-0.0084 0.04753-0.01 1.3616-0.15716 2.6527-0.35037 3.851-0.575 0.24687-0.04523 0.4899-0.092 0.73063-0.1403 0.05367-0.01073 0.10733-0.02147 0.161-0.03297 2.264-0.4646 4.2236-1.0664 5.5683-1.8124 0.0736-0.03987 0.1426-0.08127 0.21237-0.1219 0.0851-0.0506 0.16637-0.10197 0.24533-0.1541 0.0736-0.04753 0.1587-0.09353 0.22617-0.14184 1.5134 0.53973 1.9305 1.0227 1.9803 1.2152zm0.01-10.011v-3.67c0.91157-0.3174 1.6874-0.6693 2.3-1.0549v3.1725c-7.67e-4 0.43163-0.80883 0.99283-2.3 1.5525z"/>
</svg>
