<?xml version="1.0" encoding="UTF-8"?>
<svg version="1.1" viewBox="0 0 48 48" xml:space="preserve" xmlns="http://www.w3.org/2000/svg">
<path d="m15.93 1.5v1.4643h1.4673v-1.4643zm1.4673 1.4643v1.4643h1.4673v-1.4643zm0 1.4643h-1.4673v1.4643h1.4673zm-1.4673 0v-1.4643h-1.4673v1.4643zm21.276-2.9286v1.4643h1.4673v-1.4643zm-1.3412 0.55483-1.0374 1.0353 1.0374 1.0353 1.0374-1.0353zm4.1498 0-1.0374 1.0353 1.0374 1.0353 1.0374-1.0353zm-5.7432 2.3738v1.4643h1.4673v-1.4643zm5.8693 0v1.4643h1.4673v-1.4643zm-35.949 1.4643v1.4643h1.4673v-1.4643zm31.672 0.30316-1.0374 1.0353 1.0374 1.0353 1.0374-1.0353zm4.1512 0-1.0374 1.0353 1.0374 1.0353 1.0374-1.0353zm-37.165 0.25025-1.0374 1.0353 1.0374 1.0367 1.0374-1.0367zm4.1498 0.00147-1.0374 1.0353 1.0374 1.0353 1.0374-1.0353zm30.206 0.90947v1.4643h1.4673v-1.4643zm-35.949 1.4643v1.4643h1.4673v-1.4643zm5.8693 0v1.4643h1.4673v-1.4643zm4.8032 0.73215-10.929 12.462 23 24.484 23-24.483-10.929-12.464zm31.88 0.73215v1.4643h1.4673v-1.4643zm1.4673 1.4643v1.4643h1.4673v-1.4643zm0 1.4643h-1.4673v1.4643h1.4673zm-1.4673 0v-1.4643h-1.4673v1.4643zm-40.96-2.6254-1.0374 1.0353 1.0374 1.0353 1.0389-1.0353zm4.1512 0-1.0374 1.0353 1.0374 1.0353 1.0374-1.0353zm5.5942 0.42899h5.6801l-6.4195 10.25h-8.248zm7.4111 0h7.99l6.8996 11.017-10.895 21.066-10.895-21.066zm9.721 0h5.6801l8.9874 10.25h-2.052v1.4643h1.9746l-18.091 19.257 9.9603-19.258h4.6886v-1.4643h-4.7287zm-25.535 0.73215v1.4643h1.4673v-1.4643zm19.075 3.6607v1.4643h-1.1005c-2.2252 0-4.0351 1.8062-4.0351 4.0268s1.8099 4.0268 4.0351 4.0268h3.6683c1.416 0 2.5678 1.1495 2.5678 2.5625s-1.1518 2.5625-2.5678 2.5625h-3.6683c-1.416 0-2.5678-1.1495-2.5678-2.5625v-1.0982h-1.4673v1.0982c0 2.2206 1.8099 4.0268 4.0351 4.0268h1.1005v1.4643h1.4673v-1.4643h1.1005c2.2252 0 4.0351-1.8062 4.0351-4.0268s-1.8099-4.0268-4.0351-4.0268h-3.6683c-1.416 0-2.5678-1.1495-2.5678-2.5625 0-1.413 1.1518-2.5625 2.5678-2.5625h3.6683c1.416 0 2.5678 1.1495 2.5678 2.5625v1.0982h1.4673v-1.0982c0-2.2206-1.8099-4.0268-4.0351-4.0268h-1.1005v-1.4643zm0 5.125v1.4643h1.4673v-1.4643zm-19.582 2.1964h8.1305l9.9589 19.258zm19.582 3.6607v1.4643h1.4673v-1.4643z"/>
</svg>
