<?xml version="1.0" encoding="UTF-8"?>
<svg version="1.1" viewBox="0 0 48 48" xml:space="preserve" xmlns="http://www.w3.org/2000/svg">
<path d="m12.179 28.452v1.4839h-0.03303c-1.6036 0-2.9079 1.3161-2.9079 3.0011 0 1.6182 1.3037 2.9344 2.9065 2.9344h1.5394c0.79185 0 1.436 0.65062 1.436 1.5172 0 0.7998-0.64486 1.4505-1.4375 1.4505h-1.5365c-0.79259 0-1.4375-0.65068-1.4375-1.4839l-1.4705 0.03333c0 1.6182 1.3044 2.9344 2.9079 2.9344h0.03303v1.4839h1.4705v-1.4839h0.03303c1.6036 0 2.9079-1.3161 2.9079-3.0011 0-1.6182-1.3037-2.9344-2.9065-2.9344h-1.5394c-0.79186 0-1.436-0.65062-1.436-1.5172 0-0.7998 0.64486-1.4505 1.4375-1.4505h1.5365c0.79259 0 1.4375 0.65074 1.4375 1.4505v0.03333l1.4705-0.03333c0-1.6182-1.3044-2.9344-2.9079-2.9344h-0.03303v-1.4839zm11.029-27.452v2.9677h1.4705v-2.9677zm-3.9447 1.6476-1.0397 1.0491 2.0808 2.0997 1.0397-1.0506zm9.3585 0.0015-2.0794 2.0983 1.0397 1.0491 2.0794-2.0983zm-12.031 5.0284v1.4839h2.941v-1.4839zm11.764 0v1.4839h2.941v-1.4839zm-24.873 2.9677-2.4814 13.355h7.8593c-4.4916 1.6723-7.7086 6.023-7.7086 11.129 0 6.5453 5.2776 11.871 11.764 11.871h33.821v-5.9355h-1.4705v-4.4516h-4.4115v-2.9677h5.8819v-5.9355h-24.652c-1.3271-1.6664-3.091-2.9566-5.1137-3.7097h30.03l-4.1357-13.355h-27.009zm1.2206 1.4839h10.543c1.4135 3.7281 1.5811 7.0263 1.93 10.387h-14.403zm12.04 0h25.043l3.2167 10.387h-26.329c-0.18022 0.26184-2.0915-10.153-1.93-10.387zm-3.827 12.613c5.6761 0 10.293 4.6594 10.293 10.387s-4.6173 10.387-10.293 10.387c-5.6761 0-10.293-4.6594-10.293-10.387s4.6173-10.387 10.293-10.387zm10.173 4.4516h1.5911v2.9677h-0.38772c-0.26983-1.0528-0.67475-2.0485-1.2034-2.9677zm3.0616 0h1.4705v2.9677h-1.4705zm2.941 0h1.4705v2.9677h-1.4705zm2.941 0h1.4705v2.9677h-1.4705zm2.941 0h1.4705v2.9677h-1.4705zm2.941 0h1.4705v1.4839h1.4705v-1.4839h1.4705v2.9677h-4.4115zm5.8819 0h1.4705v2.9677h-1.4705zm-19.218 4.4516h0.10196v2.9677h-0.10196c0.06103-0.48745 0.10196-0.9801 0.10196-1.4839s-0.04093-0.99642-0.10196-1.4839zm1.5724 0h1.4705v2.9677h-1.4705zm2.941 0h1.4705v2.9677h-1.4705zm2.941 0h1.4705v2.9677h-1.4705zm2.941 0h1.4705v2.9677h-1.4705zm2.941 0h1.4705v2.9677h-1.4705zm-13.234 4.4516h1.4705v2.9677h-1.4705zm2.941 0h1.4705v1.4839h1.4705v-1.4839h1.4705v2.9677h-4.4115zm5.8819 0h1.4705v2.9677h-1.4705zm2.941 0h1.4705v2.9677h-1.4705zm2.941 0h1.4705v2.9677h-1.4705zm2.941 0h1.4705v2.9677h-1.4705zm-19.116 2.7663v0.20142h-0.12062c0.03897-0.06826 0.08313-0.13242 0.12062-0.20142zm0 1.6853h1.4705v2.9677h-1.4705zm2.941 0h1.4705v2.9677h-1.4705zm2.941 0h1.4705v2.9677h-1.4705zm2.941 0h1.4705v2.9677h-1.4705zm2.941 0h1.4705v2.9677h-1.4705zm2.941 0h1.4705v2.9677h-1.4705zm2.941 0h1.4705v2.9677h-1.4705zm2.941 0h1.4705v2.9677h-1.4705zm-22.057 0.40575v2.562h-1.4705v-1.1346c0.53158-0.43106 1.0205-0.91097 1.4705-1.4274zm-2.941 2.4403v0.12172h-0.19961c0.06838-0.03784 0.13196-0.0824 0.19961-0.12172z"/>
</svg>
