<?xml version="1.0" encoding="UTF-8"?>
<svg version="1.1" viewBox="0 0 48 48" xml:space="preserve" xmlns="http://www.w3.org/2000/svg">
<path d="m3.339 1v45.22h18.742c1.235 0.49274 2.6851 0.77966 4.2577 0.77966 1.9398 0 3.6975-0.43223 5.0861-1.1573 1.4361 0.74614 3.2064 1.1573 5.0495 1.1573 4.5906 0 8.1864-2.3975 8.1864-5.4576v-21.831c0-2.9728-3.3954-5.3129-7.7966-5.4454v-13.266h-8.5763zm1.5593 1.5593h23.39v21.206h-3e-3c-0.25573-0.04054-0.51458-0.07099-0.77966-0.09593 7.75e-4 -0.02027 3e-3 -0.03912 3e-3 -0.05939 0-2.0458-0.57617-3.9551-1.5593-5.5932v-8.5352l-0.85123 0.07766c-0.10525 0.0094-0.21067 0.01675-0.31826 0.01675-1.9343 0-3.5085-1.5741-3.5085-3.5085 0-0.10837 0.0082-0.21527 0.01675-0.32131l0.07462-0.84819h-9.5387l0.07461 0.84819c0.0086 0.10603 0.01675 0.21293 0.01675 0.32131 0 1.9343-1.5741 3.5085-3.5085 3.5085-0.10759 0-0.21301-0.0074-0.31826-0.01675l-0.85123-0.07766v8.5352c-0.01014 0.01715-0.02107 0.03462-0.03198 0.05178-0.1037 0.17464-0.20565 0.35057-0.29999 0.53145-0.12085 0.23078-0.23514 0.4642-0.33806 0.702-0.0382 0.08732-0.06921 0.17761-0.10507 0.26649-0.09122 0.2261-0.17641 0.45369-0.25126 0.68525-0.03119 0.09746-0.05947 0.19566-0.08832 0.2939-0.06705 0.22922-0.12671 0.46049-0.17816 0.69439-0.02339 0.10369-0.04598 0.20617-0.06548 0.31064-0.046 0.2417-0.08154 0.48534-0.11116 0.73093-0.01169 0.09824-0.02719 0.19488-0.03654 0.2939-0.03274 0.34149-0.0533 0.68471-0.0533 1.0324 0 0.34773 0.01981 0.69095 0.05178 1.0324 0.0094 0.09902 0.02485 0.19566 0.03654 0.2939 0.02963 0.24559 0.06668 0.48924 0.11268 0.73093 0.02027 0.10447 0.04287 0.20695 0.06548 0.31064 0.05146 0.2339 0.11111 0.46517 0.17816 0.69439 0.02885 0.09824 0.05713 0.19644 0.08832 0.2939 0.07485 0.23156 0.16082 0.45915 0.25126 0.68525 0.03586 0.08888 0.06687 0.17916 0.10507 0.26649 0.10292 0.2378 0.21799 0.47122 0.33806 0.702 0.09356 0.18088 0.19477 0.3568 0.29846 0.53145 0.01169 0.01793 0.02337 0.03462 0.0335 0.05178v8.5352l0.85123-0.07766c0.10526-0.0094 0.21067-0.01675 0.31826-0.01675 1.9343 0 3.5085 1.5741 3.5085 3.5085 0 0.10837-0.0082 0.21527-0.01675 0.3213l-0.07462 0.84819h6.4124c0.01403 0.06549 0.03158 0.1302 0.04873 0.19492 0.02027 0.07874 0.04127 0.15732 0.067 0.23451 0.02105 0.06315 0.04587 0.12341 0.07005 0.18578 0.24014 0.62763 0.63401 1.21 1.1634 1.7238h-14.687zm24.949 0h0.77966v13.3c-0.28458 0.1918-0.54108 0.40068-0.77966 0.61977zm2.339 0h0.77966v12.21c-0.26898 0.08342-0.52861 0.17579-0.77966 0.27714zm2.339 0h0.77966v11.754c-0.2643 0.02417-0.52471 0.05539-0.77966 0.09593zm-26.119 0.77966c-1.5047 0-2.7288 1.2241-2.7288 2.7288 0 1.5047 1.2241 2.7288 2.7288 2.7288 1.5047 0 2.7288-1.2241 2.7288-2.7288 0-1.5047-1.2241-2.7288-2.7288-2.7288zm16.373 0c-1.5047 0-2.7288 1.2241-2.7288 2.7288 0 1.5047 1.2241 2.7288 2.7288 2.7288s2.7288-1.2241 2.7288-2.7288c0-1.5047-1.2241-2.7288-2.7288-2.7288zm-16.373 1.5593c0.64478 0 1.1695 0.52471 1.1695 1.1695 0 0.64478-0.52471 1.1695-1.1695 1.1695-0.64478 0-1.1695-0.52471-1.1695-1.1695 0-0.64478 0.52471-1.1695 1.1695-1.1695zm16.373 0c0.64478 0 1.1695 0.52471 1.1695 1.1695 0 0.64478-0.52471 1.1695-1.1695 1.1695s-1.1695-0.52471-1.1695-1.1695c0-0.64478 0.52471-1.1695 1.1695-1.1695zm-11.32 1.5593h6.2662c0.19024 2.4848 2.1787 4.4725 4.6627 4.6627v4.8592c-0.01169-0.0117-0.02333-0.02181-0.03502-0.0335-0.13098-0.13254-0.27163-0.25517-0.40963-0.38069-0.13332-0.12241-0.26249-0.24855-0.40049-0.36394-0.05068-0.0421-0.10539-0.07823-0.15684-0.11878-1.5991-1.2818-3.5314-2.0939-5.6053-2.3192-0.02573-0.0031-0.04889-0.0091-0.07461-0.01219-0.36644-0.03664-0.73814-0.05634-1.1132-0.05634s-0.74593 0.0197-1.1131 0.05635c-0.02573 0.0023-0.05041 0.0091-0.07614 0.01219-2.0739 0.22454-4.0063 1.0374-5.6053 2.3192-0.05146 0.04054-0.10465 0.07745-0.15532 0.11878-0.13878 0.11539-0.26947 0.24154-0.40201 0.36394-0.13722 0.12552-0.27712 0.24815-0.4081 0.38069-0.01169 0.01169-0.02485 0.02181-0.03654 0.0335v-4.8592c2.4848-0.19024 4.4725-2.178 4.6627-4.6627zm3.1339 7.7966c0.368 0 0.73088 0.02794 1.0903 0.07005 0.11539 0.01325 0.23032 0.03463 0.34415 0.05178 0.24325 0.03742 0.48248 0.08244 0.72027 0.13857 0.12942 0.03041 0.25892 0.06386 0.38678 0.1005 0.2261 0.06393 0.44711 0.13745 0.66698 0.21776 0.11695 0.04288 0.23637 0.08188 0.35176 0.12944 0.31108 0.12786 0.61591 0.27108 0.91062 0.43247 0.09044 0.0499 0.17456 0.10765 0.26344 0.15989 0.21597 0.12786 0.43069 0.26156 0.63652 0.40658 0.1037 0.07329 0.20246 0.14971 0.30303 0.22689 0.20037 0.15437 0.39607 0.31654 0.58474 0.48729 0.07173 0.06471 0.14532 0.12787 0.21471 0.19492 0.53407 0.51614 1.0152 1.0988 1.4253 1.7451 0.91766 1.447 1.4573 3.157 1.4573 4.9947v0.0061c-0.08109 0.0023-0.15951 0.0098-0.2406 0.01371-0.13098 0.0062-0.26041 0.01423-0.38983 0.02436-0.14424 0.01169-0.28526 0.02705-0.42638 0.04264-0.1263 0.01481-0.2529 0.02928-0.37765 0.04721-0.13878 0.02027-0.27549 0.04358-0.41115 0.06852-0.12163 0.02261-0.24313 0.04506-0.36242 0.07157-0.13332 0.02885-0.26345 0.06088-0.39288 0.09441-0.11617 0.02963-0.23262 0.05862-0.34567 0.09137-0.12708 0.03664-0.25142 0.07745-0.3746 0.11878-0.01325 0.0047-0.02708 9e-3 -0.04111 0.01371 0.52861-2.5464-0.56512-4.7339-0.62282-4.847l-0.1538-0.29846-0.3213-0.09441c-0.66973-0.19569-2.2102 0.09321-3.1263 0.72941-0.75471-0.49353-1.6377-0.75986-2.5491-0.75986-1.2264 0-1.9597 0.86318-2.3527 1.3279-0.06393 0.07485-0.11831 0.1442-0.17055 0.19644-0.08186 0.02105-0.16921 0.03272-0.25887 0.0335-0.33448-0.01169-0.65371-0.1635-0.92737-0.46445l-2.4349-2.6709c0.14813-0.16451 0.29399-0.33221 0.45226-0.48424 0.06939-0.06705 0.14298-0.1302 0.21471-0.19492 0.1879-0.17075 0.38285-0.33292 0.58322-0.48729 0.10058-0.07719 0.20086-0.15361 0.30456-0.22689 0.20583-0.14502 0.41825-0.27872 0.635-0.40658 0.08888-0.05224 0.17452-0.11077 0.26496-0.15989 0.29471-0.16061 0.59801-0.30382 0.9091-0.43247 0.11461-0.04756 0.23403-0.08656 0.35176-0.12944 0.21986-0.08031 0.4424-0.15382 0.6685-0.21776 0.12786-0.03586 0.25584-0.06932 0.38526-0.1005 0.2378-0.05614 0.47854-0.10115 0.7218-0.13857 0.11461-0.01793 0.22724-0.03852 0.34262-0.05178 0.35864-0.0421 0.72231-0.07004 1.0903-0.07004zm19.886 1.5593c3.5903 0.0016 6.6226 1.7854 6.6226 3.8983 0 2.1129-3.0352 3.8983-6.6271 3.8983s-6.6271-1.7854-6.6271-3.8983c0-0.1302 0.01241-0.25818 0.03502-0.38526 0.0062-0.03664 0.01884-0.07378 0.02741-0.10964 0.02027-0.09044 0.04191-0.18065 0.07309-0.26953 0.01403-0.03976 0.03388-0.07901 0.05025-0.11878 0.0343-0.08342 0.06824-0.16787 0.11269-0.24974 0.02417-0.04522 0.05494-0.08804 0.08223-0.13248 0.04444-0.07407 0.08938-0.14755 0.14162-0.21928 0.0421-0.05769 0.09101-0.11364 0.13857-0.17055 0.04522-0.05536 0.08715-0.11219 0.13705-0.16598 0.07641-0.08264 0.16241-0.1626 0.24974-0.24212 0.02729-0.02495 0.05111-0.05044 0.07918-0.07461 0.24092-0.21051 0.51953-0.41137 0.83296-0.59693 0.30329-0.1801 0.63067-0.33781 0.97762-0.47815 0.02027-0.0086 0.04138-0.01579 0.06244-0.02436 0.34305-0.13566 0.70374-0.2536 1.0842-0.34872 0.01325-0.0031 0.02634-0.0052 0.03959-0.0091 0.32278-0.07953 0.65745-0.14431 0.99894-0.19187 0.01403-0.0023 0.02708-0.0045 0.04111-0.0061 0.35942-0.04834 0.72673-0.07889 1.101-0.09137zm-27.777 2.7928 2.2491 2.4684c0.57539 0.6323 1.3396 0.97068 2.1045 0.97458 0.28302-0.0047 0.5603-0.05192 0.82382-0.14314 0.32356-0.11227 0.5413-0.36902 0.77052-0.63957 0.38671-0.45298 0.69483-0.77509 1.1634-0.77509 0.7742 0 1.5191 0.28919 2.0969 0.81468l0.83448 0.85884 0.39135-1.1071c0.18712-0.23234 1.0655-0.54068 1.6035-0.6015 0.30329 0.8163 0.84006 2.782-0.11268 4.6719-0.0538 0.03508-0.10918 0.06921-0.16141 0.10507-0.0959 0.06549-0.1844 0.13544-0.27562 0.20405-0.07952 0.06003-0.1604 0.11731-0.23603 0.17969-0.08654 0.07173-0.16713 0.14826-0.24821 0.22232-0.07017 0.06471-0.14161 0.12634-0.2071 0.19339-0.07719 0.07797-0.14681 0.16104-0.21776 0.24212-0.06003 0.06783-0.12281 0.13388-0.17816 0.20405-0.06705 0.0842-0.12422 0.17307-0.18426 0.2604-0.04912 0.07095-0.10174 0.13916-0.14619 0.21166-0.05692 0.09278-0.10468 0.1889-0.1538 0.28324l-0.0091 0.01828c-0.77576 0.50834-1.4523 0.73148-1.8624 0.61063-0.09434-0.02729-0.37945-0.1089-0.62738-0.69286l-0.17816-0.42029-0.31369-0.03502c-0.16451-0.12319-0.48633-0.42047-0.68982-0.60759-0.54342-0.49976-0.7736-0.70604-1.0324-0.79337-0.1341-0.04522-0.27014-0.07864-0.40658-0.10202-0.92078-0.16217-1.8827 0.19613-2.5735 0.9563l-2.2233 2.4441c-0.0016-0.0023-0.0045-0.0053-0.0061-0.0076-0.06475-0.10214-0.12727-0.20539-0.18886-0.31065-0.06861-0.11695-0.13633-0.23325-0.19948-0.35176-0.1037-0.19725-0.20045-0.39797-0.28933-0.60302-0.03353-0.07563-0.06322-0.15201-0.09441-0.22842-0.08031-0.19879-0.15528-0.40099-0.22233-0.60604-0.01871-0.05692-0.03993-0.11438-0.05787-0.17207-0.08109-0.26664-0.15092-0.53716-0.20862-0.81316-0.0078-0.03664-0.01278-0.07299-0.0198-0.10964-0.04678-0.23936-0.0831-0.48382-0.11116-0.72941-0.0078-0.07095-0.01661-0.14146-0.02284-0.21319-0.02573-0.28224-0.04416-0.56807-0.04416-0.85732 0-0.28926 0.01843-0.57431 0.04416-0.85732 0.0062-0.07173 0.01505-0.14224 0.02284-0.21319 0.02807-0.24637 0.06438-0.4908 0.11116-0.73093 7e-3 -0.03664 0.012-0.07225 0.0198-0.10812 0.0577-0.276 0.12754-0.54804 0.20862-0.81468 0.01715-0.05614 0.03841-0.11289 0.05635-0.16903 0.06783-0.20739 0.14198-0.40948 0.22385-0.61063 0.03041-0.07485 0.0594-0.15056 0.09137-0.22385 0.09278-0.21207 0.1947-0.41932 0.30151-0.62282 0.05614-0.10526 0.11508-0.20848 0.17512-0.31217 0.06549-0.11305 0.13388-0.22356 0.20405-0.33349 0.0016-0.0023 0.0045-0.0053 0.0061-0.0076zm21.15 4.3521c0.03586 0.03275 0.07831 0.06166 0.11573 0.09441 0.11539 0.0998 0.23537 0.19651 0.3609 0.29085 0.07017 0.05302 0.1399 0.10617 0.21319 0.15685 0.13722 0.0959 0.28129 0.18674 0.42942 0.27562 0.06861 0.04132 0.13463 0.08358 0.20558 0.12334 0.22142 0.12397 0.45042 0.24265 0.69134 0.35024 0.0086 0.0039 0.01731 0.0052 0.02589 0.0091 0.2339 0.1037 0.47762 0.19822 0.72789 0.28476 0.08498 0.02963 0.17307 0.05568 0.2604 0.08375 0.17932 0.05692 0.36108 0.11077 0.5482 0.15989 0.1037 0.02651 0.20766 0.05044 0.31369 0.07461 0.18088 0.04132 0.36565 0.07916 0.55277 0.11269 0.10837 0.01949 0.21668 0.03844 0.3274 0.05482 0.20193 0.03041 0.40855 0.05282 0.61672 0.07309 0.09824 0.0094 0.19488 0.02192 0.2939 0.02893 0.30875 0.02417 0.62067 0.03807 0.93956 0.03807 0.31888 0 0.63081-0.01394 0.93955-0.03654 0.0998-7e-3 0.1964-0.01958 0.29542-0.02893 0.20817-0.02027 0.41327-0.04347 0.6152-0.07309 0.11071-0.01637 0.22055-0.03611 0.32892-0.05482 0.18712-0.03353 0.37036-0.07058 0.55124-0.11268 0.10603-0.02417 0.21-0.04733 0.31369-0.07461 0.18712-0.04834 0.3681-0.10372 0.5482-0.16141 0.08732-0.02807 0.17693-0.0526 0.26192-0.08223 0.24949-0.08732 0.4925-0.18032 0.72484-0.28324 0.0094-0.0039 0.01806-0.0083 0.02741-0.01219 0.24092-0.10759 0.47144-0.22475 0.69286-0.34872 0.07095-0.03976 0.13544-0.08202 0.20405-0.12334 0.14736-0.08888 0.2922-0.1805 0.42942-0.27562 0.07329-0.05146 0.14376-0.10383 0.21471-0.15685 0.12552-0.09434 0.24398-0.19258 0.35937-0.29237 0.0343-0.03041 0.07459-0.05639 0.10812-0.0868-0.0023 0.04288-0.0052 0.08655-0.01066 0.12944-0.0078 0.06237-0.01416 0.12571-0.02741 0.1873-0.01326 0.06549-0.03381 0.12942-0.0533 0.19492-0.01793 0.06081-0.03374 0.12196-0.05635 0.18121-0.02495 0.06393-0.05639 0.12719-0.0868 0.19035-0.02807 0.05847-0.05405 0.11742-0.0868 0.17512-0.03508 0.06159-0.07519 0.1227-0.11573 0.18273-0.03742 0.05614-0.07363 0.11293-0.11573 0.1675-0.04522 0.06003-0.09551 0.11742-0.14619 0.17512-0.046 0.05302-0.0902 0.10691-0.1401 0.15837-0.05536 0.05769-0.11661 0.11215-0.17664 0.1675-0.05302 0.0499-0.1045 0.10089-0.16142 0.14923-0.06393 0.05458-0.13392 0.10613-0.20253 0.15837-0.06081 0.046-0.1188 0.09183-0.18273 0.13705-0.07251 0.05068-0.15123 0.09937-0.22842 0.14771-0.06705 0.04288-0.13236 0.08507-0.20253 0.12639-0.0803 0.04678-0.16553 0.08956-0.24974 0.134-0.07407 0.03898-0.14592 0.07909-0.22232 0.11573-0.0881 0.0421-0.18058 0.08054-0.27258 0.1203-0.07797 0.0343-0.15342 0.07006-0.23451 0.10203-0.09668 0.0382-0.19941 0.07225-0.29999 0.10812-0.08108 0.02885-0.16022 0.05877-0.24364 0.08527-0.10369 0.03353-0.21297 0.06326-0.31978 0.09289-0.08498 0.02417-0.16776 0.04974-0.2543 0.07157-0.11149 0.02807-0.22575 0.05044-0.33958 0.07461-0.08654 0.01871-0.17077 0.03922-0.25887 0.05482-0.12396 0.02261-0.25134 0.04067-0.37765 0.05939-0.08186 0.01247-0.16326 0.02642-0.24669 0.03655-0.14112 0.01715-0.28597 0.0279-0.42942 0.03959-0.07173 0.0062-0.14068 0.01512-0.21319 0.0198-0.21674 0.01247-0.43716 0.01979-0.65936 0.01979-0.2799 0-0.55848-0.01245-0.83448-0.0335-0.0881-7e-3 -0.17307-0.01884-0.2604-0.02741-0.18712-0.01871-0.37412-0.03894-0.55734-0.067-0.10212-0.01555-0.20166-0.03759-0.30302-0.0563-0.16451-0.03041-0.32972-0.06153-0.49034-0.10051-0.10292-0.02495-0.20246-0.05494-0.30303-0.08223-0.11617-0.03197-0.23035-0.06616-0.34262-0.10203-0.7282-0.82332-1.7682-1.5005-3.0258-1.9644-0.30952-0.43193-0.47905-0.8809-0.50556-1.337zm-3.513 2.2111c0.42569 0 0.84756 0.02702 1.2639 0.07614 0.01169 0.0016 0.02333 0.0015 0.03502 3e-3 0.41166 0.05068 0.8168 0.12561 1.2137 0.22385 0.34149 0.08498 0.66502 0.18761 0.9761 0.30456 0.15203 0.05692 0.30041 0.1188 0.44465 0.18273 0.07953 0.03509 0.16267 0.06765 0.23908 0.10507 0.21519 0.10525 0.41806 0.22025 0.61063 0.3411 0.04366 0.02651 0.08581 0.05341 0.12791 0.08071 0.4218 0.27912 0.78307 0.59208 1.0599 0.92889 0.0078 0.0094 0.01657 0.01958 0.02436 0.02893 0.09434 0.11695 0.17723 0.23552 0.24974 0.35481 0.0086 0.01403 0.01809 0.02786 0.02589 0.04111 0.06705 0.11305 0.12069 0.22649 0.16903 0.3411 0.0094 0.02261 0.02036 0.04439 0.02893 0.067 0.04132 0.10759 0.07099 0.2152 0.09593 0.32435 0.0062 0.02807 0.01586 0.0572 0.02132 0.08527 0.02652 0.13722 0.04112 0.27241 0.04112 0.40963 0 2.1129-3.0352 3.8983-6.6271 3.8983-3.5919 0-6.6271-1.7854-6.6271-3.8983 0-0.33915 0.08641-0.66869 0.23298-0.98524 0.21363-0.46312 0.57635-0.90145 1.0644-1.2928 0.03119-0.02495 0.06319-0.04966 0.09594-0.07461 0.13644-0.10447 0.28419-0.20483 0.43856-0.30151 1.2178-0.75939 2.9287-1.2441 4.7952-1.2441zm16.751 0.91519c-0.0023 0.04288-0.0052 0.08656-0.01066 0.12944-0.0078 0.06237-0.01416 0.12418-0.02741 0.18578-0.01325 0.06549-0.03381 0.13094-0.0533 0.19644-0.01793 0.06081-0.03374 0.12196-0.05635 0.18121-0.02495 0.06393-0.05639 0.1272-0.0868 0.19035-0.02807 0.05848-0.05405 0.1159-0.0868 0.1736-0.03509 0.06159-0.07519 0.1227-0.11573 0.18273-0.03742 0.05614-0.07363 0.11293-0.11573 0.1675-0.04522 0.06003-0.09551 0.11742-0.14619 0.17512-0.046 0.05302-0.0902 0.10691-0.1401 0.15837-0.05536 0.05769-0.11661 0.11367-0.17664 0.16903-0.05302 0.0499-0.1045 0.09937-0.16142 0.14771-0.06393 0.05458-0.13392 0.10613-0.20253 0.15837-0.06081 0.046-0.1188 0.09335-0.18273 0.13857-0.07251 0.05068-0.15123 0.09785-0.22842 0.14619-0.06705 0.04288-0.13236 0.08659-0.20253 0.12791-0.08031 0.04678-0.16553 0.08956-0.24974 0.134-0.07407 0.03898-0.14592 0.07756-0.22232 0.11421-0.0881 0.0421-0.18058 0.08206-0.27258 0.12182-0.07797 0.0343-0.15342 0.06854-0.23451 0.1005-0.09668 0.0382-0.19941 0.07225-0.29999 0.10812-0.08108 0.02885-0.16022 0.06029-0.24364 0.0868-0.10369 0.03353-0.21297 0.06174-0.31978 0.09137-0.08498 0.02417-0.16776 0.04974-0.2543 0.07157-0.11149 0.02807-0.22575 0.05044-0.33958 0.07461-0.08654 0.01871-0.17077 0.04075-0.25887 0.05635-0.12397 0.02261-0.25134 0.03915-0.37765 0.05787-0.08186 0.01247-0.16327 0.02793-0.24669 0.03807-0.14112 0.01715-0.28597 0.0279-0.42942 0.03959-0.07173 0.0062-0.14068 0.01512-0.21319 0.0198-0.21674 0.01325-0.43715 0.01979-0.65936 0.01979-0.39217 0-0.78055-0.02794-1.1649-0.07004-0.11461-0.01247-0.22879-0.03084-0.34262-0.04721-0.14892-0.02105-0.29425-0.05416-0.4416-0.08223v-0.58018c0-0.17075-0.01468-0.34169-0.03807-0.51165-0.01403-0.10681-0.03905-0.20996-0.06244-0.31522-0.0094-0.04288-0.01345-0.08581-0.02436-0.12791 0.01793 0.0031 0.03536 3e-3 0.0533 0.0061 0.22064 0.03664 0.447 0.06185 0.67154 0.0868 0.11071 0.01248 0.21895 0.03024 0.33044 0.03959 0.3376 0.02808 0.67725 0.04265 1.0187 0.04265 0.31888 0 0.63081-0.01393 0.93955-0.03654 0.0998-7e-3 0.1964-0.01958 0.29542-0.02893 0.20817-0.02027 0.41327-0.04347 0.6152-0.07309 0.11071-0.01637 0.22055-0.03611 0.32892-0.05482 0.18712-0.03353 0.37036-0.07058 0.55124-0.11268 0.10603-0.02417 0.21-0.04733 0.31369-0.07461 0.18712-0.04834 0.3681-0.10372 0.5482-0.16141 0.08732-0.02807 0.17693-0.0526 0.26192-0.08223 0.24949-0.08732 0.4925-0.18032 0.72484-0.28324 0.0094-0.0039 0.01806-0.0083 0.02741-0.01219 0.24092-0.10759 0.47144-0.22475 0.69286-0.34872 0.07095-0.03976 0.13544-0.08202 0.20405-0.12334 0.14736-0.08888 0.2922-0.1805 0.42942-0.27562 0.07329-0.05146 0.14376-0.10535 0.21471-0.15837 0.12552-0.09434 0.24398-0.19105 0.35937-0.29085 0.0343-0.03041 0.07459-0.05639 0.10812-0.0868zm-30.156 0.65784c0.10044-0.01296 0.2001-0.01258 0.29542 0.0046 0.03586 0.0062 0.07225 0.01501 0.10812 0.02436 0.11773 0.092 0.37055 0.32441 0.54363 0.48424 0.42492 0.39217 0.70283 0.63907 0.92737 0.79032 0.44051 0.84827 1.0515 1.1862 1.5045 1.3172 0.54888 0.15905 1.1644 0.10925 1.838-0.134v3.5876c-0.0842 0.01403-0.16706 0.03246-0.25126 0.04416-0.12474 0.01871-0.25138 0.03699-0.37612 0.05025-0.31108 0.03197-0.62167 0.05483-0.93042 0.05483-0.368 0-0.73088-0.02794-1.0903-0.07004-0.11539-0.01326-0.23032-0.03462-0.34415-0.05178-0.24325-0.03742-0.48248-0.08244-0.72027-0.13857-0.12942-0.03041-0.25892-0.06386-0.38678-0.1005-0.2261-0.06393-0.44711-0.13745-0.66698-0.21776-0.11695-0.04288-0.23637-0.08188-0.35176-0.12944-0.31108-0.12786-0.61591-0.27108-0.91062-0.43247-0.09044-0.0499-0.17456-0.10765-0.26344-0.15989-0.21596-0.12786-0.43069-0.26156-0.63652-0.40658-0.1037-0.07329-0.20246-0.14971-0.30303-0.22689-0.20037-0.15437-0.39607-0.31654-0.58475-0.48729-0.07173-0.06471-0.14532-0.12786-0.21471-0.19492-0.15827-0.15281-0.30413-0.31973-0.45226-0.48424l2.409-2.6481c0.24442-0.26781 0.556-0.43622 0.85732-0.47511zm30.156 2.4608c-0.0023 0.04288-0.0052 0.08655-0.01066 0.12944-0.0078 0.06237-0.01416 0.12418-0.02741 0.18578-0.01325 0.06549-0.03381 0.13094-0.0533 0.19644-0.01793 0.06081-0.03374 0.12196-0.05635 0.18121-0.02495 0.06393-0.05639 0.1272-0.0868 0.19035-0.02807 0.05847-0.05405 0.1159-0.0868 0.1736-0.03509 0.06159-0.07519 0.1227-0.11573 0.18273-0.03742 0.05614-0.07363 0.11293-0.11573 0.1675-0.04522 0.06003-0.09551 0.11742-0.14619 0.17512-0.046 0.05302-0.0902 0.10691-0.1401 0.15837-0.05536 0.05769-0.11661 0.11367-0.17664 0.16903-0.05302 0.0499-0.1045 0.09937-0.16142 0.14771-0.06393 0.05458-0.13392 0.10613-0.20253 0.15837-0.06081 0.046-0.1188 0.09335-0.18273 0.13857-0.07251 0.05068-0.15123 0.09785-0.22842 0.14619-0.06705 0.04288-0.13236 0.08659-0.20253 0.12791-0.08031 0.04678-0.16553 0.08956-0.24974 0.134-0.07407 0.03898-0.14592 0.07756-0.22232 0.11421-0.0881 0.0421-0.18058 0.08206-0.27258 0.12182-0.07797 0.03431-0.15342 0.06854-0.23451 0.1005-0.09668 0.0382-0.19941 0.07225-0.29999 0.10812-0.08108 0.02885-0.16022 0.06029-0.24364 0.0868-0.10369 0.03353-0.21297 0.06174-0.31978 0.09137-0.08498 0.02417-0.16776 0.04974-0.2543 0.07157-0.11149 0.02807-0.22575 0.05044-0.33958 0.07461-0.08654 0.01871-0.17077 0.04075-0.25887 0.05635-0.12397 0.02261-0.25134 0.03915-0.37765 0.05787-0.08186 0.01248-0.16327 0.02793-0.24669 0.03807-0.14112 0.01715-0.28597 0.0279-0.42942 0.03959-0.07173 0.0062-0.14068 0.01512-0.21319 0.0198-0.21674 0.01325-0.43715 0.01979-0.65936 0.01979-0.39217 0-0.78055-0.02794-1.1649-0.07004-0.11461-0.01248-0.22879-0.03084-0.34262-0.04721-0.14892-0.02105-0.29425-0.05416-0.4416-0.08223v-1.5152c0.05458 0.0086 0.10988 0.01048 0.16446 0.01828 0.21051 0.03119 0.42215 0.05817 0.635 0.07766 0.0881 0.0086 0.17534 0.01661 0.26344 0.02284 0.29393 0.02182 0.5892 0.03654 0.88626 0.03654 0.31888 0 0.63081-0.01393 0.93955-0.03654 0.0998-7e-3 0.1964-0.01958 0.29542-0.02893 0.20817-0.02027 0.41327-0.04347 0.6152-0.07309 0.11071-0.01637 0.22055-0.03611 0.32892-0.05482 0.18712-0.03353 0.37036-0.07058 0.55124-0.11268 0.10603-0.02417 0.21-0.04733 0.31369-0.07461 0.18712-0.04834 0.3681-0.10372 0.5482-0.16141 0.08732-0.02807 0.17693-0.0526 0.26192-0.08223 0.24949-0.08732 0.4925-0.18032 0.72484-0.28324 0.0094-0.0039 0.01806-0.0083 0.02741-0.01219 0.24092-0.10759 0.47144-0.22475 0.69286-0.34872 0.07095-0.03976 0.13544-0.08202 0.20405-0.12334 0.14736-0.08888 0.2922-0.1805 0.42942-0.27562 0.07329-0.05146 0.14376-0.10535 0.21471-0.15837 0.12552-0.09434 0.24398-0.19105 0.35937-0.29085 0.0343-0.03041 0.07459-0.05639 0.10812-0.0868zm-34.291 2.039c0.0098 0.01018 0.02234 0.01777 0.03198 0.02741 0.27288 0.276 0.5579 0.53938 0.85884 0.78575 0.10603 0.08732 0.21824 0.16252 0.3274 0.24517 0.19881 0.15047 0.39864 0.29982 0.60759 0.43704 0.14502 0.09512 0.29343 0.18143 0.44313 0.26953 0.18712 0.11071 0.37765 0.21772 0.57256 0.31674 0.15749 0.0803 0.31524 0.15743 0.47663 0.22994 0.20115 0.09122 0.40629 0.17251 0.61368 0.25126 0.15983 0.06081 0.31825 0.12362 0.4812 0.17664 0.23 0.07563 0.4665 0.1364 0.70352 0.19644 0.14658 0.03742 0.29042 0.0815 0.43856 0.11268 0.37424 0.07797 0.75385 0.13918 1.1406 0.17816 0.12786 0.01248 0.25814 0.012 0.38678 0.0198 0.23623 0.01559 0.47174 0.03654 0.71266 0.03654 0.03742 0 0.076-0.0069 0.11421-0.0076 0.21597-0.0023 0.43422-0.024 0.65175-0.03959 0.20271-0.01481 0.40406-0.02449 0.60911-0.05178 0.06159-0.0078 0.12419-0.0066 0.18578-0.01523v6.3515h-4.6932c-0.19024-2.4848-2.1787-4.4725-4.6627-4.6627zm10.924 1.0781c0.03353 0.03041 0.07381 0.05717 0.10812 0.0868 0.11695 0.10058 0.2369 0.19803 0.36242 0.29237 0.07017 0.05302 0.1399 0.10617 0.21319 0.15684 0.13722 0.0959 0.28129 0.18674 0.42942 0.27562 0.06861 0.04132 0.13463 0.08358 0.20558 0.12334 0.22142 0.12397 0.45042 0.24265 0.69134 0.35024 0.0086 0.0039 0.01731 0.0052 0.02589 0.0091 0.2339 0.1037 0.47762 0.19822 0.72789 0.28476 0.08498 0.02963 0.17307 0.05568 0.26039 0.08375 0.17932 0.05692 0.36108 0.11077 0.5482 0.15989 0.10369 0.02651 0.20766 0.05044 0.31369 0.07461 0.18088 0.04132 0.36565 0.07916 0.55277 0.11269 0.10837 0.01949 0.21668 0.03845 0.3274 0.05482 0.20193 0.03041 0.40856 0.05282 0.61672 0.07309 0.09824 0.0094 0.19488 0.02192 0.2939 0.02893 0.30875 0.02417 0.62067 0.03807 0.93956 0.03807s0.63081-0.01393 0.93955-0.03654c0.0998-7e-3 0.1964-0.01958 0.29542-0.02893 0.20817-0.02027 0.41327-0.04347 0.6152-0.07309 0.11071-0.01637 0.22055-0.03611 0.32892-0.05482 0.18712-0.03353 0.37036-0.07058 0.55124-0.11269 0.10603-0.02417 0.21-0.04733 0.31369-0.07461 0.18712-0.04834 0.3681-0.10372 0.5482-0.16141 0.08732-0.02807 0.17693-0.0526 0.26192-0.08223 0.24949-0.08732 0.4925-0.18032 0.72484-0.28324 0.0094-0.0039 0.01806-0.0083 0.02741-0.01219 0.24092-0.10759 0.47144-0.22475 0.69286-0.34872 0.07095-0.03976 0.13544-0.08202 0.20405-0.12334 0.14736-0.08888 0.2922-0.1805 0.42942-0.27562 0.07329-0.05146 0.14376-0.10383 0.21471-0.15685 0.12552-0.09434 0.24398-0.19258 0.35938-0.29237 0.0343-0.03041 0.07459-0.05639 0.10812-0.0868-0.0023 0.04288-0.0052 0.08655-0.01066 0.12944-0.0078 0.06237-0.01416 0.12571-0.02741 0.1873-0.01325 0.06549-0.03381 0.12942-0.0533 0.19492-0.01793 0.06081-0.03374 0.12196-0.05635 0.18121-0.02495 0.06393-0.05639 0.1272-0.0868 0.19035-0.02807 0.05847-0.05405 0.11742-0.0868 0.17512-0.03509 0.06159-0.07519 0.1227-0.11573 0.18273-0.03742 0.05613-0.07363 0.11293-0.11573 0.1675-0.04522 0.06003-0.09551 0.11742-0.14619 0.17512-0.046 0.05302-0.0902 0.10691-0.1401 0.15837-0.05536 0.05769-0.11661 0.11215-0.17664 0.1675-0.05302 0.0499-0.1045 0.10089-0.16142 0.14923-0.06393 0.05458-0.13392 0.10613-0.20253 0.15837-0.06081 0.046-0.1188 0.09183-0.18273 0.13705-0.07251 0.05068-0.15123 0.09937-0.22842 0.14771-0.06705 0.04288-0.13236 0.08507-0.20253 0.12639-0.0803 0.04678-0.16553 0.08956-0.24974 0.134-0.07407 0.03898-0.14592 0.07909-0.22232 0.11573-0.0881 0.0421-0.18058 0.08054-0.27258 0.1203-0.07797 0.0343-0.15342 0.07006-0.23451 0.10203-0.09668 0.0382-0.19941 0.07225-0.29999 0.10812-0.08109 0.02885-0.16022 0.05877-0.24364 0.08527-0.10369 0.03353-0.21297 0.06326-0.31978 0.09289-0.08498 0.02417-0.16776 0.04974-0.2543 0.07157-0.11149 0.02807-0.22575 0.05044-0.33958 0.07461-0.08654 0.01871-0.17077 0.03922-0.25887 0.05482-0.12397 0.02261-0.25134 0.04067-0.37765 0.05939-0.08186 0.01248-0.16326 0.02642-0.24669 0.03655-0.14112 0.01715-0.28597 0.0279-0.42942 0.03959-0.07173 0.0062-0.14068 0.01512-0.21319 0.0198-0.21674 0.01247-0.43716 0.0198-0.65936 0.0198-0.2222 0-0.44184-0.0065-0.65936-0.0198-0.07251-0.0047-0.14298-0.01356-0.21471-0.0198-0.14424-0.0117-0.28908-0.02244-0.42942-0.03959-0.08342-0.01014-0.16252-0.0256-0.24517-0.03807-0.1263-0.01871-0.25368-0.03526-0.37765-0.05787-0.08732-0.01637-0.17233-0.03841-0.25887-0.05635-0.11461-0.02417-0.22883-0.04655-0.3411-0.07461-0.08654-0.02183-0.16858-0.04818-0.25278-0.07157-0.10759-0.03041-0.21683-0.05936-0.3213-0.09289-0.08342-0.02651-0.16256-0.05643-0.24364-0.08528-0.10058-0.03586-0.20253-0.06913-0.29999-0.10812-0.08108-0.03197-0.15576-0.0685-0.23451-0.10203-0.09122-0.03976-0.18448-0.0782-0.27258-0.1203-0.07641-0.03664-0.14826-0.07753-0.22232-0.11573-0.0842-0.04444-0.16943-0.08722-0.24974-0.134-0.07017-0.04054-0.13548-0.08351-0.20253-0.12639-0.07641-0.04834-0.15591-0.09703-0.22842-0.14771-0.06393-0.04444-0.12192-0.09027-0.18273-0.13705-0.06861-0.05224-0.1386-0.10379-0.20253-0.15837-0.05692-0.04834-0.1084-0.09933-0.16142-0.14923-0.06003-0.05536-0.12129-0.10981-0.17664-0.16751-0.04912-0.05146-0.09335-0.10613-0.13857-0.15837-0.0499-0.05848-0.10097-0.11508-0.14619-0.17512-0.04132-0.05458-0.07831-0.11137-0.11573-0.16751-0.04054-0.06081-0.08065-0.12114-0.11573-0.18273-0.03275-0.05692-0.06025-0.11664-0.08832-0.17512-0.03041-0.06315-0.06032-0.12642-0.08527-0.19035-0.02261-0.05925-0.03993-0.1204-0.05787-0.18121-0.01949-0.06471-0.03852-0.12864-0.05178-0.19492-0.01247-0.06159-0.01962-0.12493-0.02741-0.1873-0.0055-0.04288-0.0091-0.08578-0.01219-0.12944zm23.367 0.0016c-0.0023 0.04288-0.0052 0.08655-0.01066 0.12944-0.0078 0.06237-0.01416 0.12418-0.02741 0.18578-0.01325 0.06549-0.03381 0.13095-0.0533 0.19644-0.01793 0.06081-0.03374 0.12196-0.05635 0.18121-0.02495 0.06393-0.05639 0.12719-0.0868 0.19035-0.02807 0.05848-0.05405 0.1159-0.0868 0.1736-0.03509 0.06159-0.07519 0.1227-0.11573 0.18273-0.03742 0.05614-0.07363 0.11293-0.11573 0.16751-0.04522 0.06003-0.09551 0.11742-0.14619 0.17512-0.046 0.05302-0.0902 0.10691-0.1401 0.15837-0.05536 0.05769-0.11661 0.11367-0.17664 0.16903-0.05302 0.0499-0.1045 0.09937-0.16142 0.14771-0.06393 0.05458-0.13392 0.10613-0.20253 0.15837-0.06081 0.046-0.1188 0.09335-0.18273 0.13857-0.07251 0.05068-0.15123 0.09785-0.22842 0.14619-0.06705 0.04288-0.13236 0.08659-0.20253 0.12791-0.08031 0.04678-0.16553 0.08956-0.24974 0.134-0.07407 0.03898-0.14592 0.07756-0.22232 0.11421-0.0881 0.0421-0.18058 0.08206-0.27258 0.12182-0.07797 0.0343-0.15342 0.06854-0.23451 0.1005-0.09668 0.0382-0.19941 0.07225-0.29999 0.10812-0.08108 0.02885-0.16022 0.06029-0.24364 0.0868-0.10369 0.03352-0.21297 0.06174-0.31978 0.09137-0.08498 0.02417-0.16776 0.04974-0.2543 0.07157-0.11149 0.02807-0.22575 0.05044-0.33958 0.07461-0.08654 0.01871-0.17077 0.04075-0.25887 0.05635-0.12397 0.02261-0.25134 0.03916-0.37765 0.05787-0.08186 0.01247-0.16327 0.02794-0.24669 0.03807-0.14112 0.01715-0.28597 0.0279-0.42942 0.03959-0.07173 0.0062-0.14068 0.01512-0.21319 0.0198-0.21674 0.01322-0.43715 0.01976-0.65936 0.01976-0.39217 0-0.78055-0.02794-1.1649-0.07005-0.11461-0.01247-0.22879-0.03084-0.34262-0.04721-0.14892-0.02105-0.29425-0.05416-0.4416-0.08223v-1.5152c0.05458 0.0086 0.10988 0.01048 0.16446 0.01828 0.21051 0.03119 0.42215 0.05817 0.635 0.07766 0.0881 0.0086 0.17534 0.01661 0.26344 0.02284 0.29393 0.02182 0.5892 0.03654 0.88626 0.03654 0.31888 0 0.63081-0.01393 0.93955-0.03654 0.0998-7e-3 0.1964-0.01958 0.29542-0.02893 0.20817-0.02027 0.41327-0.04347 0.6152-0.07309 0.11071-0.01637 0.22055-0.03611 0.32892-0.05482 0.18712-0.03353 0.37036-0.07058 0.55124-0.11268 0.10603-0.02417 0.21-0.04733 0.31369-0.07461 0.18712-0.04834 0.3681-0.10372 0.5482-0.16141 0.08732-0.02807 0.17693-0.0526 0.26192-0.08223 0.24949-0.08732 0.4925-0.18032 0.72484-0.28324 0.0094-0.0039 0.01806-0.0083 0.02741-0.01219 0.24092-0.10759 0.47144-0.22475 0.69286-0.34872 0.07095-0.03976 0.13544-0.08202 0.20405-0.12334 0.14736-0.08888 0.2922-0.1805 0.42942-0.27562 0.07329-0.05146 0.14376-0.10535 0.21471-0.15837 0.12552-0.09434 0.24398-0.19105 0.35937-0.29085 0.0343-0.03041 0.07459-0.05639 0.10812-0.0868zm-23.367 3.1171c0.03353 0.03041 0.07381 0.05717 0.10812 0.0868 0.11539 0.10058 0.23537 0.19803 0.3609 0.29237 0.07017 0.05302 0.1399 0.10617 0.21319 0.15685 0.13722 0.0959 0.28129 0.18674 0.42942 0.27562 0.06861 0.04132 0.13462 0.08358 0.20557 0.12334 0.22142 0.12397 0.45042 0.24264 0.69134 0.35024 0.0086 0.0039 0.01731 0.0052 0.02588 0.0091 0.2339 0.1037 0.47762 0.19822 0.72789 0.28476 0.08498 0.02963 0.17307 0.05568 0.2604 0.08375 0.17932 0.05692 0.36108 0.11077 0.5482 0.15989 0.1037 0.02651 0.20766 0.05044 0.31369 0.07461 0.18088 0.04132 0.36565 0.07916 0.55277 0.11268 0.10837 0.01949 0.21668 0.03845 0.3274 0.05482 0.20193 0.03041 0.40703 0.05282 0.6152 0.07309 0.09824 0.0094 0.1964 0.02192 0.29542 0.02893 0.31031 0.02414 0.6222 0.03804 0.94108 0.03804s0.63081-0.01393 0.93955-0.03654c0.0998-7e-3 0.1964-0.01958 0.29542-0.02893 0.20817-0.02027 0.41327-0.04347 0.6152-0.07309 0.11071-0.01637 0.22055-0.03611 0.32892-0.05482 0.18712-0.03352 0.37036-0.07058 0.55124-0.11268 0.10603-0.02417 0.21-0.04733 0.31369-0.07461 0.18712-0.04834 0.3681-0.10372 0.5482-0.16141 0.08732-0.02807 0.17693-0.0526 0.26192-0.08223 0.24949-0.08732 0.4925-0.18032 0.72484-0.28324 0.0094-0.0039 0.01806-0.0083 0.02741-0.01219 0.24092-0.10759 0.47144-0.22475 0.69286-0.34872 0.07095-0.03976 0.13544-0.08202 0.20405-0.12334 0.14736-0.08888 0.2922-0.1805 0.42942-0.27562 0.07329-0.05146 0.14376-0.10383 0.21471-0.15684 0.12552-0.09434 0.24398-0.19258 0.35938-0.29237 0.0343-0.03041 0.07459-0.05639 0.10812-0.0868-0.0023 0.04288-0.0052 0.08655-0.01066 0.12944-0.0078 0.06081-0.01494 0.12341-0.02741 0.18578-0.01325 0.06549-0.03381 0.12942-0.0533 0.19492-0.01793 0.06081-0.03374 0.12196-0.05635 0.18121-0.02495 0.06393-0.05639 0.1272-0.0868 0.19035-0.02807 0.05847-0.05405 0.11742-0.0868 0.17512-0.03509 0.06159-0.07519 0.1227-0.11573 0.18273-0.03742 0.05613-0.07363 0.11293-0.11573 0.1675-0.04522 0.06003-0.09551 0.11742-0.14619 0.17512-0.046 0.05302-0.0902 0.10691-0.1401 0.15837-0.05536 0.0577-0.11661 0.11215-0.17664 0.1675-0.05302 0.0499-0.1045 0.10089-0.16142 0.14923-0.06393 0.05458-0.13392 0.10613-0.20253 0.15837-0.06081 0.046-0.1188 0.09183-0.18273 0.13705-0.07251 0.05068-0.15123 0.09937-0.22842 0.14771-0.06705 0.04288-0.13236 0.08507-0.20253 0.12639-0.0803 0.04678-0.16553 0.08956-0.24974 0.134-0.07407 0.03898-0.14592 0.07909-0.22232 0.11573-0.0881 0.0421-0.18058 0.08054-0.27258 0.1203-0.07797 0.0343-0.15342 0.07006-0.23451 0.10203-0.09668 0.0382-0.19941 0.07225-0.29999 0.10812-0.08108 0.02885-0.16022 0.05877-0.24364 0.08527-0.10369 0.03353-0.21297 0.06326-0.31978 0.09289-0.08498 0.02417-0.16776 0.04974-0.2543 0.07157-0.11149 0.02807-0.22575 0.05044-0.33958 0.07461-0.08654 0.01871-0.17077 0.03922-0.25887 0.05482-0.12397 0.02261-0.25134 0.04067-0.37765 0.05939-0.08186 0.01247-0.16327 0.02642-0.24669 0.03654-0.14112 0.01715-0.28597 0.0279-0.42942 0.03959-0.07173 0.0062-0.14068 0.01512-0.21319 0.0198-0.21674 0.01404-0.43716 0.02132-0.65936 0.02132s-0.44184-0.0065-0.65936-0.0198c-0.07251-0.0047-0.14298-0.01356-0.21471-0.0198-0.14424-0.0117-0.28908-0.02244-0.42942-0.03959-0.08342-0.01013-0.16252-0.0256-0.24517-0.03807-0.12631-0.01871-0.25368-0.03526-0.37765-0.05787-0.08732-0.01637-0.17233-0.03841-0.25887-0.05635-0.11461-0.02417-0.22883-0.04655-0.3411-0.07461-0.08654-0.02183-0.16858-0.04818-0.25278-0.07157-0.10759-0.03041-0.21683-0.05936-0.3213-0.09289-0.08342-0.02651-0.16256-0.05643-0.24364-0.08528-0.10058-0.03586-0.20253-0.06913-0.29999-0.10812-0.08108-0.03197-0.15576-0.0685-0.23451-0.10203-0.09122-0.03976-0.18448-0.0782-0.27258-0.1203-0.07641-0.03664-0.14826-0.07753-0.22232-0.11573-0.0842-0.04444-0.16943-0.08722-0.24974-0.134-0.07017-0.04054-0.13548-0.08351-0.20253-0.12639-0.07641-0.04834-0.15591-0.09703-0.22842-0.14771-0.06393-0.04444-0.12192-0.09027-0.18273-0.13705-0.06861-0.05224-0.1386-0.10379-0.20253-0.15837-0.05692-0.04834-0.1084-0.09933-0.16142-0.14923-0.06003-0.05536-0.12129-0.10981-0.17664-0.1675-0.04912-0.05146-0.09335-0.10613-0.13857-0.15837-0.0499-0.05847-0.10097-0.11508-0.14619-0.17512-0.04132-0.05458-0.07831-0.11137-0.11573-0.1675-0.04054-0.06081-0.08065-0.12114-0.11573-0.18273-0.03275-0.05691-0.06025-0.11664-0.08832-0.17512-0.03041-0.06315-0.06032-0.12642-0.08527-0.19035-0.02261-0.05926-0.03993-0.1204-0.05787-0.18121-0.01949-0.06471-0.03852-0.12864-0.05178-0.19492-0.01247-0.06159-0.01962-0.12493-0.02741-0.1873-0.0055-0.04288-0.0091-0.08577-0.01219-0.12944zm23.367 0.0016c-0.0023 0.04288-0.0052 0.08655-0.01066 0.12944-0.0078 0.06237-0.01416 0.12418-0.02741 0.18578-0.01325 0.06549-0.03381 0.13095-0.0533 0.19644-0.01793 0.06081-0.03374 0.12196-0.05635 0.18121-0.02495 0.06393-0.05639 0.1272-0.0868 0.19035-0.02807 0.05847-0.05405 0.1159-0.0868 0.1736-0.03509 0.06159-0.07519 0.1227-0.11573 0.18273-0.03742 0.05614-0.07363 0.11293-0.11573 0.1675-0.04522 0.06003-0.09551 0.11742-0.14619 0.17512-0.046 0.05302-0.0902 0.10691-0.1401 0.15837-0.05536 0.0577-0.11661 0.11367-0.17664 0.16903-0.05302 0.0499-0.1045 0.09937-0.16142 0.14771-0.06393 0.05458-0.13392 0.10613-0.20253 0.15837-0.06081 0.046-0.1188 0.09335-0.18273 0.13857-0.07251 0.05068-0.15123 0.09785-0.22842 0.14619-0.06705 0.04288-0.13236 0.08659-0.20253 0.12791-0.08031 0.04678-0.16553 0.08956-0.24974 0.134-0.07407 0.03898-0.14592 0.07756-0.22232 0.11421-0.0881 0.0421-0.18058 0.08206-0.27258 0.12182-0.07797 0.03431-0.15342 0.06854-0.23451 0.1005-0.09668 0.0382-0.19941 0.07225-0.29999 0.10812-0.08108 0.02885-0.16022 0.06029-0.24364 0.0868-0.10369 0.03353-0.21297 0.06174-0.31978 0.09137-0.08498 0.02417-0.16776 0.04974-0.2543 0.07157-0.11149 0.02807-0.22575 0.05044-0.33958 0.07461-0.08654 0.01871-0.17077 0.04075-0.25887 0.05635-0.12397 0.02261-0.25134 0.03915-0.37765 0.05787-0.08186 0.01248-0.16327 0.02794-0.24669 0.03807-0.14112 0.01715-0.28597 0.0279-0.42942 0.03959-0.07173 0.0062-0.14068 0.01512-0.21319 0.0198-0.21674 0.01318-0.43715 0.01972-0.65936 0.01972-0.39217 0-0.78055-0.02794-1.1649-0.07005-0.11461-0.01248-0.22879-0.03084-0.34262-0.04721-0.14892-0.02105-0.29425-0.05416-0.4416-0.08223v-1.5152c0.05458 0.0086 0.10988 0.01048 0.16446 0.01828 0.21051 0.03119 0.42215 0.05817 0.635 0.07766 0.0881 0.0086 0.17534 0.01661 0.26344 0.02284 0.29393 0.02182 0.5892 0.03654 0.88626 0.03654 0.31888 0 0.63081-0.01393 0.93955-0.03654 0.0998-7e-3 0.1964-0.01958 0.29542-0.02893 0.20817-0.02027 0.41327-0.04347 0.6152-0.07309 0.11071-0.01637 0.22055-0.03611 0.32892-0.05482 0.18712-0.03352 0.37036-0.07058 0.55124-0.11268 0.10603-0.02417 0.21-0.04733 0.31369-0.07461 0.18712-0.04834 0.3681-0.10372 0.5482-0.16141 0.08732-0.02807 0.17693-0.0526 0.26192-0.08223 0.24949-0.08732 0.4925-0.18032 0.72484-0.28324 0.0094-0.0039 0.01806-0.0083 0.02741-0.01219 0.24092-0.10759 0.47144-0.22475 0.69286-0.34872 0.07095-0.03976 0.13544-0.08202 0.20405-0.12334 0.14736-0.08888 0.2922-0.1805 0.42942-0.27562 0.07329-0.05146 0.14376-0.10535 0.21471-0.15837 0.12552-0.09434 0.24398-0.19105 0.35937-0.29085 0.0343-0.03041 0.07459-0.05639 0.10812-0.0868zm-34.683 2.983c-1.5047 0-2.7288 1.2241-2.7288 2.7288 0 1.5047 1.2241 2.7288 2.7288 2.7288 1.5047 0 2.7288-1.2241 2.7288-2.7288 0-1.5047-1.2241-2.7288-2.7288-2.7288zm11.316 0.134c0.03353 0.03041 0.07381 0.05717 0.10812 0.0868 0.11539 0.10058 0.23537 0.19803 0.3609 0.29237 0.07017 0.05302 0.1399 0.10617 0.21319 0.15685 0.13722 0.0959 0.28129 0.18674 0.42942 0.27562 0.06861 0.04132 0.13462 0.08358 0.20557 0.12334 0.22142 0.12397 0.45042 0.24265 0.69134 0.35024 0.0086 0.0039 0.01731 0.0052 0.02588 0.0091 0.2339 0.1037 0.47762 0.19822 0.72789 0.28476 0.08498 0.02963 0.17307 0.05568 0.2604 0.08375 0.17932 0.05692 0.36108 0.11077 0.5482 0.15989 0.1037 0.02651 0.20766 0.05044 0.31369 0.07461 0.18088 0.04132 0.36565 0.07916 0.55277 0.11269 0.10837 0.01949 0.21668 0.03845 0.3274 0.05482 0.20193 0.03041 0.40703 0.05282 0.6152 0.07309 0.09824 0.0094 0.1964 0.02192 0.29542 0.02893 0.31031 0.02417 0.6222 0.03807 0.94108 0.03807s0.63081-0.01393 0.93955-0.03654c0.0998-7e-3 0.1964-0.01958 0.29542-0.02893 0.20817-0.02027 0.41327-0.04347 0.6152-0.07309 0.11071-0.01637 0.22055-0.03611 0.32892-0.05482 0.18712-0.03353 0.37036-0.07058 0.55124-0.11268 0.10603-0.02417 0.21-0.04733 0.31369-0.07461 0.18712-0.04834 0.3681-0.10372 0.5482-0.16141 0.08732-0.02807 0.17693-0.0526 0.26192-0.08223 0.24949-0.08732 0.4925-0.18032 0.72484-0.28324 0.0094-0.0039 0.01806-0.0083 0.02741-0.01219 0.24092-0.10759 0.47144-0.22475 0.69286-0.34872 0.07095-0.03976 0.13544-0.08202 0.20405-0.12334 0.14736-0.08888 0.2922-0.1805 0.42942-0.27562 0.07329-0.05146 0.14376-0.10383 0.21471-0.15685 0.12552-0.09434 0.24398-0.19258 0.35938-0.29237 0.0343-0.03041 0.07459-0.05639 0.10812-0.0868-0.0023 0.04288-0.0052 0.08655-0.01066 0.12944-0.0078 0.06081-0.01494 0.12341-0.02741 0.18578-0.01325 0.06549-0.03381 0.12942-0.0533 0.19492-0.01793 0.06081-0.03374 0.12196-0.05635 0.18121-0.02495 0.06393-0.05639 0.1272-0.0868 0.19035-0.02807 0.05848-0.05405 0.11742-0.0868 0.17512-0.03509 0.06159-0.07519 0.1227-0.11573 0.18273-0.03742 0.05614-0.07363 0.11293-0.11573 0.16751-0.04522 0.06003-0.09551 0.11742-0.14619 0.17512-0.046 0.05302-0.0902 0.10691-0.1401 0.15837-0.05536 0.05769-0.11661 0.11215-0.17664 0.16751-0.05302 0.0499-0.1045 0.10089-0.16142 0.14923-0.06393 0.05458-0.13392 0.10613-0.20253 0.15837-0.06081 0.046-0.1188 0.09183-0.18273 0.13705-0.07251 0.05068-0.15123 0.09937-0.22842 0.14771-0.06705 0.04288-0.13236 0.08507-0.20253 0.12639-0.0803 0.04678-0.16553 0.08956-0.24974 0.134-0.07407 0.03898-0.14592 0.07909-0.22232 0.11573-0.0881 0.0421-0.18058 0.08054-0.27258 0.1203-0.07797 0.0343-0.15342 0.07006-0.23451 0.10203-0.09668 0.0382-0.19941 0.07225-0.29999 0.10812-0.08108 0.02885-0.16022 0.05877-0.24364 0.08528-0.10369 0.03353-0.21297 0.06326-0.31978 0.09289-0.08498 0.02417-0.16776 0.04974-0.2543 0.07157-0.11149 0.02807-0.22575 0.05044-0.33958 0.07461-0.08654 0.01871-0.17077 0.03923-0.25887 0.05482-0.12397 0.02261-0.25134 0.04068-0.37765 0.05939-0.08186 0.01247-0.16327 0.02642-0.24669 0.03654-0.14112 0.01715-0.28597 0.0279-0.42942 0.03959-0.07173 0.0062-0.14068 0.01512-0.21319 0.0198-0.21674 0.01404-0.43716 0.02132-0.65936 0.02132s-0.44184-0.0065-0.65936-0.0198c-0.07251-0.0047-0.14298-0.01356-0.21471-0.0198-0.14424-0.01169-0.28908-0.02244-0.42942-0.03959-0.08342-0.01014-0.16252-0.0256-0.24517-0.03807-0.12631-0.01871-0.25368-0.03526-0.37765-0.05787-0.08732-0.01637-0.17233-0.03841-0.25887-0.05635-0.11461-0.02417-0.22883-0.04655-0.3411-0.07461-0.08654-0.02183-0.16858-0.04818-0.25278-0.07157-0.10759-0.03041-0.21683-0.05936-0.3213-0.09289-0.08342-0.02651-0.16256-0.05643-0.24364-0.08527-0.10058-0.03587-0.20253-0.06913-0.29999-0.10812-0.08108-0.03197-0.15576-0.0685-0.23451-0.10203-0.09122-0.03976-0.18448-0.0782-0.27258-0.1203-0.07641-0.03664-0.14826-0.07753-0.22232-0.11573-0.0842-0.04444-0.16943-0.08723-0.24974-0.134-0.07017-0.04054-0.13548-0.08351-0.20253-0.12639-0.07641-0.04834-0.15591-0.09703-0.22842-0.14771-0.06393-0.04444-0.12192-0.09027-0.18273-0.13705-0.06861-0.05224-0.1386-0.10379-0.20253-0.15837-0.05692-0.04834-0.1084-0.09933-0.16142-0.14923-0.06003-0.05536-0.12129-0.10981-0.17664-0.16751-0.04912-0.05146-0.09335-0.10613-0.13857-0.15837-0.0499-0.05848-0.10097-0.11508-0.14619-0.17512-0.04132-0.05458-0.07831-0.11137-0.11573-0.16751-0.04054-0.06081-0.08065-0.12114-0.11573-0.18273-0.03275-0.05692-0.06025-0.11664-0.08832-0.17512-0.03041-0.06315-0.06032-0.12642-0.08527-0.19035-0.02261-0.05925-0.03993-0.1204-0.05787-0.18121-0.01949-0.06471-0.03852-0.12864-0.05178-0.19492-0.01247-0.06159-0.01962-0.12493-0.02741-0.1873-0.0055-0.04288-0.0091-0.08577-0.01219-0.12944zm23.367 0.0016c-0.0023 0.04288-0.0052 0.08655-0.01066 0.12944-0.0078 0.06081-0.01494 0.12341-0.02741 0.18578-0.01325 0.06549-0.03381 0.12942-0.0533 0.19492-0.01793 0.06081-0.03374 0.12196-0.05635 0.18121-0.02495 0.06393-0.05639 0.1272-0.0868 0.19035-0.02807 0.05848-0.05405 0.11742-0.0868 0.17512-0.03509 0.06159-0.07519 0.1227-0.11573 0.18273-0.03742 0.05614-0.07363 0.11293-0.11573 0.16751-0.04522 0.06003-0.09551 0.11742-0.14619 0.17512-0.046 0.05302-0.0902 0.10691-0.1401 0.15837-0.05536 0.05769-0.11661 0.11215-0.17664 0.16751-0.05302 0.0499-0.1045 0.10089-0.16142 0.14923-0.06393 0.05458-0.13392 0.10613-0.20253 0.15837-0.06081 0.046-0.1188 0.09183-0.18273 0.13705-0.07251 0.05068-0.15123 0.09937-0.22842 0.14771-0.06705 0.04288-0.13236 0.08507-0.20253 0.12639-0.08031 0.04678-0.16553 0.08956-0.24974 0.134-0.07407 0.03898-0.14592 0.07909-0.22232 0.11573-0.0881 0.0421-0.18058 0.08054-0.27258 0.1203-0.07797 0.0343-0.15342 0.07006-0.23451 0.10203-0.09668 0.0382-0.19941 0.07225-0.29999 0.10812-0.08108 0.02885-0.16022 0.05877-0.24364 0.08528-0.10369 0.03353-0.21297 0.06326-0.31978 0.09289-0.08498 0.02417-0.16776 0.04974-0.2543 0.07157-0.11149 0.02807-0.22575 0.05044-0.33958 0.07461-0.08654 0.01871-0.17077 0.03923-0.25887 0.05482-0.12397 0.02261-0.25134 0.04068-0.37765 0.05939-0.08186 0.01247-0.16327 0.02642-0.24669 0.03654-0.14112 0.01715-0.28597 0.0279-0.42942 0.03959-0.07173 0.0062-0.14068 0.01512-0.21319 0.0198-0.21674 0.014-0.43715 0.02129-0.65936 0.02129-0.30485 0-0.60518-0.01769-0.90301-0.04264-0.08108-7e-3 -0.16182-0.01427-0.24212-0.02284-0.25027-0.02651-0.4983-0.06215-0.74312-0.10659-0.03586-0.0062-0.07147-0.0097-0.10812-0.01675 0.03041-0.19413 0.04721-0.39124 0.04721-0.59084v-0.93498c0.05458 0.0086 0.10988 0.01048 0.16446 0.01827 0.21051 0.03119 0.42215 0.05817 0.635 0.07766 0.0881 0.0086 0.17534 0.01661 0.26344 0.02284 0.29393 0.02182 0.5892 0.03654 0.88626 0.03654 0.31888 0 0.63081-0.01393 0.93955-0.03654 0.0998-7e-3 0.1964-0.01958 0.29542-0.02893 0.20817-0.02027 0.41327-0.04347 0.6152-0.07309 0.11071-0.01637 0.22055-0.03611 0.32892-0.05482 0.18712-0.03353 0.37036-0.07058 0.55124-0.11269 0.10603-0.02417 0.21-0.04733 0.31369-0.07461 0.18712-0.04834 0.3681-0.10372 0.5482-0.16141 0.08732-0.02807 0.17693-0.0526 0.26192-0.08223 0.24949-0.08732 0.4925-0.18032 0.72484-0.28324 0.0094-0.0039 0.01806-0.0083 0.02741-0.01219 0.24092-0.10759 0.47144-0.22475 0.69286-0.34872 0.07095-0.03976 0.13544-0.08202 0.20405-0.12334 0.14736-0.08888 0.2922-0.1805 0.42942-0.27562 0.07329-0.05146 0.14376-0.10383 0.21471-0.15684 0.12552-0.09434 0.24398-0.19258 0.35938-0.29237 0.0343-0.03041 0.07459-0.05639 0.10812-0.0868zm-34.683 1.4238c0.64478 0 1.1695 0.52471 1.1695 1.1695 0 0.64478-0.52471 1.1695-1.1695 1.1695-0.64478 0-1.1695-0.52471-1.1695-1.1695 0-0.64478 0.52471-1.1695 1.1695-1.1695zm34.69 1.6872c-0.11851 2.056-3.1024 3.7704-6.6226 3.7704-1.2708 0-2.4939-0.21888-3.5526-0.62586 0.40698-0.36644 0.74923-0.76801 1.0081-1.1999 0.01403 0.0031 0.02861 0.0045 0.04264 0.0076 0.3602 0.07641 0.7268 0.13302 1.0979 0.17512 0.08186 0.0094 0.16482 0.01657 0.24669 0.02436 0.38203 0.03587 0.7667 0.05939 1.1573 0.05939 0.31888 0 0.63081-0.01393 0.93955-0.03654 0.0998-7e-3 0.1964-0.01958 0.29542-0.02893 0.20817-0.02027 0.41327-0.04347 0.6152-0.07309 0.11071-0.01637 0.22055-0.03611 0.32892-0.05482 0.18712-0.03352 0.37036-0.07058 0.55124-0.11268 0.10603-0.02417 0.21-0.04733 0.31369-0.07461 0.18712-0.04834 0.3681-0.10372 0.5482-0.16141 0.08732-0.02807 0.17693-0.0526 0.26192-0.08223 0.24949-0.08732 0.4925-0.18032 0.72484-0.28324 0.0094-0.0039 0.01806-0.0083 0.02741-0.01219 0.24092-0.10759 0.47144-0.22475 0.69286-0.34872 0.07095-0.03976 0.13544-0.08202 0.20405-0.12334 0.14736-0.08888 0.2922-0.1805 0.42942-0.27562 0.07329-0.05146 0.14376-0.10383 0.21471-0.15685 0.12552-0.09434 0.24398-0.19258 0.35938-0.29237 0.03742-0.03275 0.07987-0.06166 0.11573-0.09441zm-23.37 0.0076c0.03275 0.02963 0.07155 0.05564 0.10507 0.08528 0.11539 0.10058 0.23537 0.19803 0.3609 0.29237 0.07017 0.05302 0.14142 0.10617 0.21471 0.15684 0.13722 0.0959 0.28129 0.18674 0.42942 0.27562 0.06861 0.04132 0.1331 0.08358 0.20405 0.12334 0.22142 0.12397 0.45195 0.24265 0.69286 0.35024 0.0086 0.0039 0.01731 0.0052 0.02588 0.0091 0.2339 0.1037 0.47609 0.19822 0.72636 0.28476 0.08498 0.02963 0.1746 0.05568 0.26192 0.08375 0.17932 0.05691 0.36108 0.11077 0.5482 0.15989 0.1037 0.02651 0.20766 0.05044 0.31369 0.07461 0.18088 0.04132 0.36413 0.07916 0.55124 0.11268 0.10837 0.01949 0.21821 0.03845 0.32892 0.05482 0.20193 0.03041 0.40703 0.05282 0.6152 0.07309 0.09824 0.0094 0.19488 0.02192 0.2939 0.02893 0.30797 0.02415 0.62067 0.03805 0.93956 0.03805s0.63081-0.01393 0.93955-0.03654c0.0998-7e-3 0.1964-0.01958 0.29542-0.02893 0.20817-0.02027 0.41327-0.04347 0.6152-0.07309 0.11071-0.01637 0.22055-0.03611 0.32892-0.05482 0.18712-0.03353 0.37036-0.07058 0.55124-0.11268 0.10603-0.02417 0.21-0.04733 0.31369-0.07461 0.18712-0.04834 0.3681-0.10372 0.5482-0.16141 0.08732-0.02807 0.17693-0.0526 0.26192-0.08223 0.24949-0.08732 0.4925-0.18032 0.72484-0.28324 0.0094-0.0039 0.01806-0.0083 0.02741-0.01219 0.24092-0.10759 0.47144-0.22475 0.69286-0.34872 0.07095-0.03976 0.13544-0.08202 0.20405-0.12334 0.14736-0.08888 0.2922-0.1805 0.42942-0.27562 0.07329-0.05146 0.14376-0.10383 0.21471-0.15684 0.12552-0.09434 0.24398-0.19258 0.35938-0.29237 0.03352-0.02963 0.07233-0.05486 0.10507-0.08528-0.0055 0.0803-0.01107 0.16178-0.02588 0.24364-0.0031 0.02027-0.0037 0.0399-0.0076 0.05939-0.03041 0.13956-0.07475 0.28132-0.134 0.4279l-0.0016 0.0046c-0.21051 0.51847-0.60468 1.0071-1.1512 1.4375l-0.04568 0.03502c-0.16451 0.1263-0.34348 0.24703-0.5345 0.36242-0.0382 0.02339-0.07292 0.04821-0.11268 0.07005l-0.01675 0.0091c-1.2006 0.68451-2.8246 1.1116-4.582 1.1116-1.4868 0-2.8754-0.30939-3.9958-0.81773-0.07797-0.03508-0.15509-0.07147-0.22994-0.10812-0.10681-0.05302-0.21234-0.10602-0.31369-0.16294-0.06783-0.0382-0.1302-0.07901-0.19492-0.11878-0.18244-0.11071-0.35412-0.22631-0.51318-0.34872-0.0538-0.04132-0.11226-0.08199-0.16294-0.12487-0.07173-0.06003-0.13474-0.12188-0.20101-0.18426-0.06237-0.05848-0.12582-0.11813-0.18273-0.17816-0.05536-0.05848-0.10617-0.11813-0.15684-0.17816-0.05925-0.07095-0.11453-0.14294-0.16598-0.21623-0.0382-0.0538-0.07686-0.10836-0.11116-0.16294-0.05925-0.0959-0.11085-0.19414-0.15685-0.29237-0.01715-0.03586-0.03848-0.06995-0.0533-0.10659-0.05692-0.13644-0.1013-0.27538-0.13248-0.41572-0.0078-0.03586-9e-3 -0.07225-0.01523-0.10812-0.01325-0.07875-0.02121-0.15955-0.02589-0.23908z"/>
</svg>
