<?xml version="1.0" encoding="UTF-8"?>
<svg version="1.1" viewBox="0 0 48 48" xml:space="preserve" xmlns="http://www.w3.org/2000/svg">
<path d="m33.451 1-8.1688 8.2313c-0.54335 0.5475-1.013 1.132-1.4274 1.7537l-4.2732-4.3057-11.733 11.813c-6.465 6.5144-6.465 17.112 0 23.626 3.2325 3.2572 7.4782 4.8813 11.724 4.8813 4.2456 0 8.4911-1.6241 11.724-4.8813 3.1312-3.1551 4.8535-7.3495 4.8535-11.813 0-0.50112-0.02777-1.0116-0.06448-1.5034 2.0906-0.49183 3.9877-1.5496 5.5257-3.0993 2.1919-2.1993 3.3892-5.1226 3.3892-8.2313s-1.2064-6.0318-3.3798-8.2311zm-0.0096 2.6262 6.8703 6.9227c1.8327 1.8467 2.8458 4.3058 2.8458 6.9227s-1.0131 5.076-2.8458 6.9227c-1.2617 1.2621-2.7904 2.1438-4.485 2.5614-0.63545-3.183-2.1918-6.1155-4.5218-8.4633l-4.3561-4.38-1.2985 1.3084 4.3468 4.38c2.7813 2.8118 4.3193 6.5424 4.3193 10.505 0 3.9625-1.5288 7.6929-4.3193 10.505-5.7467 5.7906-15.094 5.7906-20.841 0-5.7467-5.7906-5.7467-15.209 0-21l10.416-10.505 3.3429 3.3686c-1.9156 4.2873-1.1326 9.5118 2.3578 13.029 1.7958 1.8096 4.0798 2.9509 6.594 3.3036l0.24858-1.8375c-2.109-0.28766-4.0245-1.2528-5.5441-2.7747-3.7851-3.814-3.7851-10.022 0-13.845zm5.5718 8.2311-1.2985 1.3084c1.142 1.1507 1.7682 2.6726 1.7682 4.2966 0 1.0579-0.2763 2.0973-0.78282 3.0067l1.6025 0.91873c0.6723-1.1878 1.0314-2.5427 1.0314-3.9254-0.01932-2.1158-0.838-4.1017-2.3207-5.605zm-28.549 9.2613c-1.9708 1.9766-3.2233 4.4914-3.6377 7.2567-0.40522 2.7097 0.036946 5.4286 1.271 7.8506l1.6391-0.84442c-2.1919-4.3244-1.3814-9.5303 2.0261-12.955zm27.242 0.64957c-0.3776 0.38048-0.81047 0.71451-1.2801 0.98363l0.91177 1.6147c0.60782-0.35265 1.1696-0.77955 1.6669-1.2899zm-27.048 15.126-1.4827 1.0949c0.3868 0.52896 0.81967 1.0394 1.2801 1.5034l1.2985-1.3084c-0.396-0.39902-0.76442-0.8352-1.096-1.2899z"/>
</svg>
