<?xml version="1.0" encoding="UTF-8"?>
<svg version="1.1" viewBox="0 0 48 48" xml:space="preserve" xmlns="http://www.w3.org/2000/svg">
<path d="m30.217 1.8326c-0.1473 0.00115-0.29527 0.039016-0.42676 0.1153-0.26143 0.1518-0.42376 0.43462-0.42376 0.73822v0.67682h-6.1333v2.3h-20.743c-0.8211 0-1.4899 0.66881-1.4899 1.4899v33.82c0 0.8211 0.66881 1.4899 1.4899 1.4899h0.043425v3.0667h7.6667v-3.0667h13.033v2.3h6.1333v0.54954c0 0.3036 0.16306 0.58638 0.42526 0.73971 0.13263 0.0782 0.28175 0.1153 0.43125 0.1153 0.1449 0 0.2897-0.03648 0.41927-0.10931l6.3939-3.5952h0.76367v3.0667h7.6667v-3.0667h0.04342c0.8211 0 1.4899-0.66881 1.4899-1.4899v-33.82c0-0.8211-0.66881-1.4899-1.4899-1.4899h-8.2477l-6.62-3.721c-0.13186-0.073983-0.27796-0.11046-0.42526-0.10931zm0.68281 2.0125 3.2344 1.8178h-0.1123l7.6113 4.2826v2.6174c-0.42397 0-0.76667 0.3427-0.76667 0.76667s0.3427 0.76667 0.76667 0.76667v0.76667c-0.42397 0-0.76667 0.3427-0.76667 0.76667s0.3427 0.76667 0.76667 0.76667v15.333c-0.42397 0-0.76667 0.3427-0.76667 0.76667 0 0.42397 0.3427 0.76667 0.76667 0.76667v0.76667c-0.42397 0-0.76667 0.3427-0.76667 0.76667 0 0.42397 0.3427 0.76667 0.76667 0.76667v2.5546l-10.733 6.0375zm-6.1333 1.0512h4.6v38.333h-4.6v-37.567zm2.3 0.70228c-0.42342 0-0.76667 0.34325-0.76667 0.76667s0.34325 0.76667 0.76667 0.76667c0.42342 0 0.76667-0.34325 0.76667-0.76667s-0.34325-0.76667-0.76667-0.76667zm18.4 1.5543 0.04342 33.777h-5.6362l3.2928-1.8508v-3.5159h0.76667c0.42397 0 0.76667-0.3427 0.76667-0.76667 0-0.42397-0.3427-0.76667-0.76667-0.76667h-0.76667v-0.76667h0.76667c0.42397 0 0.76667-0.3427 0.76667-0.76667 0-0.42397-0.3427-0.76667-0.76667-0.76667h-0.76667v-15.333h0.76667c0.42397 0 0.76667-0.3427 0.76667-0.76667 0-0.42397-0.3427-0.76667-0.76667-0.76667h-0.76667v-0.76667h0.76667c0.42397 0 0.76667-0.3427 0.76667-0.76667 0-0.42397-0.3427-0.76667-0.76667-0.76667h-0.76667v-3.5788l-3.2059-1.8029zm-42.977 0.043424h20.743v1.5333h-17.368c-0.9913 0-1.7984 0.80707-1.7984 1.7984v27.07c0 0.9913 0.80707 1.7984 1.7984 1.7984h17.368v1.5348l-13.033 0.02696v-0.02846h-7.6667zm24.577 3.0023c-0.42342 0-0.76667 0.34325-0.76667 0.76667 0 0.42342 0.34325 0.76667 0.76667 0.76667 0.42342 0 0.76667-0.34325 0.76667-0.76667 0-0.42342-0.34325-0.76667-0.76667-0.76667zm-21.202 0.06438h17.368v7.6667h-2.3v-6.9h-13.8v6.9h-1.5333v-7.4001c0-0.14567 0.11861-0.26654 0.26504-0.26654zm2.8016 2.3h3.0667v0.76667h-3.0667zm4.6 0h1.5333v5.3667h-1.5333zm3.0667 0h3.0667v0.76667h-3.0667zm10.733 2.2356c-0.42342 0-0.76667 0.34325-0.76667 0.76667 0 0.42342 0.34325 0.76667 0.76667 0.76667 0.42342 0 0.76667-0.34325 0.76667-0.76667 0-0.42342-0.34325-0.76667-0.76667-0.76667zm-18.4 0.06439h3.0667v0.76667h-3.0667zm7.6667 0h3.0667v0.76667h-3.0667zm16.1 0.70378c-0.42397 0-0.76667 0.3427-0.76667 0.76667s0.3427 0.76667 0.76667 0.76667c2.5407 0 4.609 2.0675 4.609 4.609v4.5835c0 2.54-2.0683 4.6075-4.609 4.6075-0.42397 0-0.76667 0.3427-0.76667 0.76667s0.3427 0.76667 0.76667 0.76667c3.3864 0 6.1423-2.756 6.1423-6.1423v-4.5835c0-3.3864-2.756-6.1408-6.1423-6.1408zm-23.767 1.5962h3.0667v0.76667h-3.0667zm7.6667 0h3.0667v0.76667h-3.0667zm16.1 1.4704c-0.42397 0-0.76667 0.3427-0.76667 0.76667s0.3427 0.76667 0.76667 0.76667c0.84947 0 1.5423 0.69208 1.5423 1.5423v4.5835c0 0.8487-0.69285 1.5408-1.5423 1.5408-0.42397 0-0.76667 0.3427-0.76667 0.76667s0.3427 0.76667 0.76667 0.76667c1.6959 0 3.0757-1.3798 3.0757-3.0757v-4.5835c0-1.6959-1.3798-3.0742-3.0757-3.0742zm-26.833 0.82956h17.633v8.4333h-2.3v-6.9h-13.8v6.9h-1.5333zm3.0667 3.0667h3.0667v0.76667h-3.0667zm4.6 0h1.5333v5.3667h-1.5333zm3.0667 0h3.0667v0.76667h-3.0667zm-7.6667 2.3h3.0667v0.76667h-3.0667zm7.6667 0h3.0667v0.76667h-3.0667zm-7.6667 2.3h3.0667v0.76667h-3.0667zm7.6667 0h3.0667v0.76667h-3.0667zm-10.733 2.3h17.633v8.4333h-2.3v-6.9h-13.8v6.9h-1.2683c-0.14643 0-0.26504-0.11937-0.26504-0.26504zm21.467 2.2356c-0.42342 0-0.76667 0.34325-0.76667 0.76667 0 0.42342 0.34325 0.76667 0.76667 0.76667 0.42342 0 0.76667-0.34325 0.76667-0.76667 0-0.42342-0.34325-0.76667-0.76667-0.76667zm-18.4 0.83105h3.0667v0.76667h-3.0667zm4.6 0h1.5333v5.3667h-1.5333zm3.0667 0h3.0667v0.76667h-3.0667zm-7.6667 2.3h3.0667v0.76667h-3.0667zm7.6667 0h3.0667v0.76667h-3.0667zm10.733 1.4689c-0.42342 0-0.76667 0.34325-0.76667 0.76667 0 0.42342 0.34325 0.76667 0.76667 0.76667 0.42342 0 0.76667-0.34325 0.76667-0.76667 0-0.42342-0.34325-0.76667-0.76667-0.76667zm-18.4 0.83105h3.0667v0.76667h-3.0667zm7.6667 0h3.0667v0.76667h-3.0667zm10.733 3.7689c-0.42342 0-0.76667 0.34325-0.76667 0.76667 0 0.42342 0.34325 0.76667 0.76667 0.76667 0.42342 0 0.76667-0.34325 0.76667-0.76667 0-0.42342-0.34325-0.76667-0.76667-0.76667zm-23 1.5977h4.6v1.5333h-4.6zm35.267 0h4.6v1.5333h-4.6z"/>
</svg>
