<?xml version="1.0" encoding="UTF-8"?>
<svg version="1.1" viewBox="0 0 48 48" xml:space="preserve" xmlns="http://www.w3.org/2000/svg">
<path d="m31.811 1c-2.4491 0-4.4821 1.9379-4.8211 4.4516h-6.8745c-6.6247 0-12.041 5.5949-12.403 12.613h-1.1897c0.25523-0.43848 0.41299-0.94078 0.41299-1.4839 0-1.6367-1.331-2.9677-2.9677-2.9677-0.5431 0-1.0454 0.15777-1.4839 0.41299v-4.8646h-1.4839v7.4194c0 1.6367 1.331 2.9677 2.9677 2.9677h3.7358c0.12464 2.4514 0.86444 4.7838 2.1606 6.8078-4.9932 0.74713-8.8641 5.0891-8.8641 10.257 0 5.7277 4.6594 10.387 10.387 10.387 0.25077 0 0.49561-0.01987 0.74194-0.03767v0.03767h23.742v-2.9677h4.4516v-4.4516h-18.986c0.28194-0.94152 0.43763-1.9365 0.43763-2.9677 0-1.5484-0.34892-3.0635-1.0115-4.4516h3.9792v2.9677h10.387v-3.1721c3.0545-0.63435 5.7429-2.7323 7.2223-5.7312h4.6487v-14.839h-4.6487c-1.7925-3.6377-5.2381-5.717-9.7988-5.9195v-4.4676zm-0.74194 1.5737v4.3618h0.74194c4.4924 0 7.8262 1.9501 9.3887 5.4921l0.19563 0.44342h4.1212v11.871h-4.1212l-0.19563 0.44342c-1.472 3.3365-4.6162 5.4921-8.012 5.4921h-3.9937v1.4839h3.9937c0.15358 0 0.30508-0.01 0.45791-0.01739v1.5013h-7.4194v-1.4839h1.4839v-1.4839h-7.5947c-0.07197 0-0.14324-0.0014-0.21447-0.0029-1.9134-2.7429-4.9899-4.3894-8.3308-4.4473-0.10313-0.13652-0.2028-0.27563-0.29851-0.41734-1.3815-2.0426-2.1099-4.4638-2.1099-7.0035 0-6.5453 4.9136-11.871 10.954-11.871h8.3105v-0.74194c0-1.7665 1.1318-3.2481 2.6431-3.6198zm3.3184 8.8134c-1.6367 0-2.9677 1.331-2.9677 2.9677s1.331 2.9677 2.9677 2.9677 2.9677-1.331 2.9677-2.9677-1.331-2.9677-2.9677-2.9677zm0 1.4839c0.81835 0 1.4839 0.66552 1.4839 1.4839s-0.66552 1.4839-1.4839 1.4839-1.4839-0.66552-1.4839-1.4839 0.66552-1.4839 1.4839-1.4839zm-30.419 2.2258c0.81835 0 1.4839 0.66552 1.4839 1.4839s-0.66552 1.4839-1.4839 1.4839-1.4839-0.66552-1.4839-1.4839 0.66552-1.4839 1.4839-1.4839zm7.4194 12.613c3.0345 0 5.8323 1.5303 7.4831 4.0922 0.92964 1.4408 1.4201 3.1038 1.4201 4.811 0 4.9094-3.9938 8.9032-8.9032 8.9032s-8.9032-3.9938-8.9032-8.9032c0-4.8166 3.9199-8.807 8.7395-8.8945 0.04229-0.0015 0.08436-0.0027 0.16375-0.0087zm-0.74194 1.4839v1.4839h-1.1129c-1.8407 0-3.3387 1.498-3.3387 3.3387s1.498 3.3387 3.3387 3.3387h3.7097c1.0231 0 1.8548 0.83171 1.8548 1.8548 0 1.0231-0.83171 1.8548-1.8548 1.8548h-3.7097c-1.0231 0-1.8548-0.83171-1.8548-1.8548v-0.37097h-1.4839v0.37097c0 1.8407 1.498 3.3387 3.3387 3.3387h1.1129v1.4839h1.4839v-1.4839h1.1129c1.8407 0 3.3387-1.498 3.3387-3.3387 0-1.8407-1.498-3.3387-3.3387-3.3387h-3.7097c-1.0231 0-1.8548-0.83171-1.8548-1.8548s0.83171-1.8548 1.8548-1.8548h3.7097c1.0231 0 1.8548 0.83171 1.8548 1.8548v0.37097h1.4839v-0.37097c0-1.8407-1.498-3.3387-3.3387-3.3387h-1.1129v-1.4839zm10.113 11.871h0.27388v1.4839h-1.1332c0.32719-0.46742 0.61151-0.96452 0.85931-1.4839zm1.7578 0h1.4839v1.4839h-1.4839zm2.9677 0h1.4839v1.4839h-1.4839zm2.9677 0h1.4868v1.4839h-1.4868zm2.9706 0h1.4839v1.4839h-1.4839zm2.9677 0h1.4853v1.4839h-1.4854zm2.9692 0h1.4795v1.4839h-1.4795zm-18.716 2.9677h0.90568v1.4839h-2.8388c0.70113-0.42068 1.3522-0.91555 1.9331-1.4839zm2.3896 0h1.4839v1.4839h-1.4839zm2.9677 0h1.4839v1.4839h-1.4839zm2.9677 0h1.4839v1.4839h-1.4839zm2.9677 0h1.4839v1.4839h-1.4839zm2.9677 0h1.4839v1.4839h-1.4839z"/>
</svg>
