<?xml version="1.0" encoding="UTF-8"?>
<svg version="1.1" viewBox="0 0 48 48" xml:space="preserve" xmlns="http://www.w3.org/2000/svg">
<path d="m23.235 1-0.81916 0.05541c-12.009 0.81965-21.416 10.896-21.416 22.942 0 12.683 10.319 23.002 23.002 23.002 5.3112 0 10.494-1.8595 14.597-5.2339l0.65293-0.53612-16.016-16.016zm1.5335 0v22.231h22.231l-0.05544-0.81916c-0.77667-11.398-9.958-20.579-21.356-21.356zm-3.067 1.6563v23.192l15.257 15.258c-3.7149 2.817-8.2827 4.3593-12.957 4.3593-11.838 0-21.469-9.6311-21.469-21.469 0-10.967 8.3544-20.187 19.169-21.341zm4.6004 0c1.877 0.20089 3.6837 0.64799 5.3867 1.3059-0.0046 0.0345-0.01947 0.06507-0.01947 0.10034 0 0.42324 0.3435 0.76674 0.76674 0.76674 0.23922 0 0.44522-0.11728 0.58554-0.28903 4.5859 2.14 8.2979 5.852 10.438 10.438-0.17175 0.14108-0.28902 0.34632-0.28902 0.58554 0 0.42324 0.3435 0.76674 0.76674 0.76674 0.03527 0 0.06586-0.01487 0.10034-0.01947 0.65786 1.7037 1.1035 3.5097 1.3044 5.3867h-19.04zm1.5335 0.63945c-0.42346 0-0.76674 0.34328-0.76674 0.76674 0 0.42346 0.34328 0.76674 0.76674 0.76674 0.42346 0 0.76674-0.34328 0.76674-0.76674 0-0.42346-0.34328-0.76674-0.76674-0.76674zm2.3002 2.3002c-0.42346 0-0.76674 0.34328-0.76674 0.76674 0 0.42346 0.34328 0.76674 0.76674 0.76674 0.42346 0 0.76674-0.34328 0.76674-0.76674 0-0.42346-0.34328-0.76674-0.76674-0.76674zm4.6004 0c-0.42346 0-0.76674 0.34328-0.76674 0.76674 0 0.42346 0.34328 0.76674 0.76674 0.76674 0.42346 0 0.76674-0.34328 0.76674-0.76674 0-0.42346-0.34328-0.76674-0.76674-0.76674zm-6.9007 2.3002c-0.42346 0-0.76674 0.34328-0.76674 0.76674 0 0.42346 0.34328 0.76674 0.76674 0.76674s0.76674-0.34328 0.76674-0.76674c0-0.42346-0.34328-0.76674-0.76674-0.76674zm4.6004 0c-0.42346 0-0.76674 0.34328-0.76674 0.76674 0 0.42346 0.34328 0.76674 0.76674 0.76674 0.42346 0 0.76674-0.34328 0.76674-0.76674 0-0.42346-0.34328-0.76674-0.76674-0.76674zm4.6004 0c-0.42346 0-0.76674 0.34328-0.76674 0.76674 0 0.42346 0.34328 0.76674 0.76674 0.76674 0.42346 0 0.76674-0.34328 0.76674-0.76674 0-0.42346-0.34328-0.76674-0.76674-0.76674zm-6.9007 2.3002c-0.42346 0-0.76674 0.34328-0.76674 0.76674s0.34328 0.76674 0.76674 0.76674c0.42346 0 0.76674-0.34328 0.76674-0.76674s-0.34328-0.76674-0.76674-0.76674zm4.6004 0c-0.42346 0-0.76674 0.34328-0.76674 0.76674s0.34328 0.76674 0.76674 0.76674c0.42346 0 0.76674-0.34328 0.76674-0.76674s-0.34328-0.76674-0.76674-0.76674zm4.6004 0c-0.42346 0-0.76674 0.34328-0.76674 0.76674s0.34328 0.76674 0.76674 0.76674c0.42346 0 0.76674-0.34328 0.76674-0.76674s-0.34328-0.76674-0.76674-0.76674zm-11.501 2.3002c-0.42346 0-0.76674 0.34328-0.76674 0.76674s0.34328 0.76674 0.76674 0.76674c0.42346 0 0.76674-0.34328 0.76674-0.76674s-0.34328-0.76674-0.76674-0.76674zm4.6004 0c-0.42346 0-0.76674 0.34328-0.76674 0.76674s0.34328 0.76674 0.76674 0.76674c0.42346 0 0.76674-0.34328 0.76674-0.76674s-0.34328-0.76674-0.76674-0.76674zm4.6004 0c-0.42346 0-0.76674 0.34328-0.76674 0.76674s0.34328 0.76674 0.76674 0.76674c0.42346 0 0.76674-0.34328 0.76674-0.76674s-0.34328-0.76674-0.76674-0.76674zm4.6004 0c-0.42346 0-0.76674 0.34328-0.76674 0.76674s0.34328 0.76674 0.76674 0.76674c0.42346 0 0.76674-0.34328 0.76674-0.76674s-0.34328-0.76674-0.76674-0.76674zm-11.501 2.3002c-0.42346 0-0.76674 0.34328-0.76674 0.76674s0.34328 0.76674 0.76674 0.76674c0.42346 0 0.76674-0.34328 0.76674-0.76674s-0.34328-0.76674-0.76674-0.76674zm4.6004 0c-0.42346 0-0.76674 0.34328-0.76674 0.76674s0.34328 0.76674 0.76674 0.76674c0.42346 0 0.76674-0.34328 0.76674-0.76674s-0.34328-0.76674-0.76674-0.76674zm4.6004 0c-0.42346 0-0.76674 0.34328-0.76674 0.76674s0.34328 0.76674 0.76674 0.76674c0.42346 0 0.76674-0.34328 0.76674-0.76674s-0.34328-0.76674-0.76674-0.76674zm-11.501 2.3002c-0.42346 0-0.76674 0.34328-0.76674 0.76674s0.34328 0.76674 0.76674 0.76674c0.42346 0 0.76674-0.34328 0.76674-0.76674s-0.34328-0.76674-0.76674-0.76674zm4.6004 0c-0.42346 0-0.76674 0.34328-0.76674 0.76674s0.34328 0.76674 0.76674 0.76674c0.42346 0 0.76674-0.34328 0.76674-0.76674s-0.34328-0.76674-0.76674-0.76674zm4.6004 0c-0.42346 0-0.76674 0.34328-0.76674 0.76674s0.34328 0.76674 0.76674 0.76674c0.42346 0 0.76674-0.34328 0.76674-0.76674s-0.34328-0.76674-0.76674-0.76674zm4.6004 0c-0.42346 0-0.76674 0.34328-0.76674 0.76674s0.34328 0.76674 0.76674 0.76674c0.42346 0 0.76674-0.34328 0.76674-0.76674s-0.34328-0.76674-0.76674-0.76674zm-11.501 2.3002c-0.42346 0-0.76674 0.34328-0.76674 0.76674 0 0.42346 0.34328 0.76674 0.76674 0.76674 0.42346 0 0.76674-0.34328 0.76674-0.76674 0-0.42346-0.34328-0.76674-0.76674-0.76674zm4.6004 0c-0.42346 0-0.76674 0.34328-0.76674 0.76674 0 0.42346 0.34328 0.76674 0.76674 0.76674 0.42346 0 0.76674-0.34328 0.76674-0.76674 0-0.42346-0.34328-0.76674-0.76674-0.76674zm4.6004 0c-0.42346 0-0.76674 0.34328-0.76674 0.76674 0 0.42346 0.34328 0.76674 0.76674 0.76674 0.42346 0 0.76674-0.34328 0.76674-0.76674 0-0.42346-0.34328-0.76674-0.76674-0.76674zm4.6004 0c-0.42346 0-0.76674 0.34328-0.76674 0.76674 0 0.42346 0.34328 0.76674 0.76674 0.76674 0.42346 0 0.76674-0.34328 0.76674-0.76674 0-0.42346-0.34328-0.76674-0.76674-0.76674zm-18.983 5.3672 15.408 15.41 0.54211-0.58853c3.5408-3.8398 5.6861-8.812 6.0396-14.002l0.05544-0.81916zm3.7019 1.5335h16.686c-0.17252 1.604-0.52682 3.1789-1.0513 4.6963-0.10658-0.05597-0.22311-0.09584-0.35193-0.09584-0.42324 0-0.76674 0.3435-0.76674 0.76674 0 0.35577 0.24612 0.64116 0.57506 0.7278-0.85415 2.005-2.0091 3.8851-3.4384 5.5574l-0.92698-0.92698c0.401-0.02454 0.72181-0.34985 0.72181-0.75776 0-0.42324-0.3435-0.76674-0.76674-0.76674-0.4079 0-0.73399 0.32004-0.75776 0.72182l-1.4975-1.4975c0.401-0.02377 0.72181-0.34985 0.72181-0.75776 0-0.42324-0.3435-0.76674-0.76674-0.76674-0.4079 0-0.73322 0.32004-0.75776 0.72182l-1.4975-1.4975c0.401-0.0253 0.72181-0.34985 0.72181-0.75776 0-0.42324-0.3435-0.76674-0.76674-0.76674-0.4079 0-0.73322 0.32004-0.75776 0.72182l-1.4975-1.4975c0.401-0.0253 0.72181-0.34985 0.72181-0.75776 0-0.42324-0.3435-0.76674-0.76674-0.76674-0.4079 0-0.73322 0.32004-0.75776 0.72182l-1.4975-1.4975c0.401-0.0253 0.72182-0.34985 0.72182-0.75776 0-0.42324-0.3435-0.76674-0.76674-0.76674-0.4079 0-0.73322 0.32004-0.75776 0.72182zm10.68 0c-0.42346 0-0.76674 0.34328-0.76674 0.76674 0 0.42346 0.34328 0.76674 0.76674 0.76674 0.42346 0 0.76674-0.34328 0.76674-0.76674 0-0.42346-0.34328-0.76674-0.76674-0.76674zm-4.6004 0c-0.42346 0-0.76674 0.34328-0.76674 0.76674 0 0.42346 0.34328 0.76674 0.76674 0.76674 0.42346 0 0.76674-0.34328 0.76674-0.76674 0-0.42346-0.34328-0.76674-0.76674-0.76674zm2.3002 2.3002c-0.42346 0-0.76674 0.34328-0.76674 0.76674 0 0.42346 0.34328 0.76674 0.76674 0.76674 0.42346 0 0.76674-0.34328 0.76674-0.76674 0-0.42346-0.34328-0.76674-0.76674-0.76674zm4.6004 0c-0.42346 0-0.76674 0.34328-0.76674 0.76674 0 0.42346 0.34328 0.76674 0.76674 0.76674 0.42346 0 0.76674-0.34328 0.76674-0.76674 0-0.42346-0.34328-0.76674-0.76674-0.76674zm-2.3002 2.3002c-0.42346 0-0.76674 0.34328-0.76674 0.76674s0.34328 0.76674 0.76674 0.76674c0.42346 0 0.76674-0.34328 0.76674-0.76674s-0.34328-0.76674-0.76674-0.76674zm2.3002 2.3002c-0.42346 0-0.76674 0.34328-0.76674 0.76674 0 0.42346 0.34328 0.76674 0.76674 0.76674 0.42346 0 0.76674-0.34328 0.76674-0.76674 0-0.42346-0.34328-0.76674-0.76674-0.76674z"/>
</svg>
