<?xml version="1.0" encoding="UTF-8"?>
<svg version="1.1" viewBox="0 0 48 48" xml:space="preserve" xmlns="http://www.w3.org/2000/svg">
<path d="m28.202 1.0051c-1.3357-0.0446-2.6652 0.19964-3.8979 0.71589-1.0384-0.32393-5.6169-1.5592-8.7917 0.72699-0.90915-0.54525-2.0041-0.68802-3.0226-0.39413-0.19916 0.0479-1.4864 0.39041-2.1048 1.3588-0.95983-0.0156-3.3116 0.28074-4.4037 3.2512-0.69747 0.29029-1.2826 0.79796-1.6684 1.4475-0.55514 0.94818-0.65798 2.1477-0.30631 3.5667-0.1317 0.58192-0.49287 2.677 0.65544 4.3579 0.7772 1.1372 2.0586 1.8263 3.8114 2.0503 0.41636 0.56305 1.6065 1.8319 3.8887 1.8319 0.55497-4e-3 1.1076-0.0715 1.6473-0.20114 0.0609 1.2796 0.58487 3.4857 3.0926 5.5137-3.5344 0.38291-5.1722-1.7808-5.2462-1.8809-0.17314-0.24082-0.50498-0.303-0.75357-0.14122-0.66331 0.43634-1.4439 0.66007-2.2376 0.64134-0.72623-5e-3 -1.4279-0.26342-1.9845-0.72998-1.4318-1.2153-0.6436-2.994-0.61071-3.0671 0.17362-0.37193-0.10247-0.79715-0.51285-0.78988h-0.0649c-0.87493 2.8e-4 -1.7037-0.3924-2.2577-1.0696-0.5507-0.66362-0.77358-1.5398-0.60691-2.3859 0.0377-0.18861 0.0898-0.37403 0.15612-0.5546 0.11208-0.30611-0.0624-0.64245-0.37731-0.72699-0.28675-0.0691-0.57894 0.0915-0.67441 0.37054-0.0813 0.22668-0.14577 0.45907-0.19273 0.69528-0.23195 1.1724 0.0759 2.3869 0.8384 3.3073 0.61609 0.75238 1.4838 1.2563 2.4426 1.4185-0.23191 1.0337-0.16244 2.5414 1.1417 3.6485 0.75395 0.63402 1.7053 0.9855 2.6903 0.99399 0.84658 0.01 1.6827-0.18791 2.4355-0.5752 0.65409 0.67935 2.2761 2.0045 4.9795 2.0042 0.71288-4e-3 1.423-0.0889 2.1168-0.25289 0.18361 0.1138 0.37184 0.22658 0.57086 0.33774 1.1415 0.65105 1.9214 1.7897 2.1159 3.0893 0.25092 1.6492 0.40142 4.3773-0.30305 7.9961-0.0139 0.06356-1.4256 6.3759-5.5064 8.3873-0.27219 0.13434-0.38632 0.46215-0.25643 0.73648 0.0984 0.19748 0.30173 0.3207 0.52235 0.3166h2.8868c0.29178 0.0048 0.54027-0.21107 0.57628-0.50066 0.0322-0.32653-0.2243-0.60961-0.55242-0.60962h-1.0853c3.3124-2.7818 4.4482-7.8512 4.5035-8.1062 0.73723-3.7866 0.57705-6.651 0.31308-8.387-0.24721-1.6382-1.2321-3.0726-2.6722-3.8917-3.4974-1.9535-4.25-4.3069-4.3658-5.6449 0.64037 0.25862 1.3146 0.42367 2.0021 0.49009 1.1081 3.384 4.4366 3.9956 4.5829 4.0207 0.33918 0.0583 0.64913-0.20286 0.6492-0.54701 0-1.9764-0.0858-4.0829-0.1556-5.4717 1.378 0.185 4.489 0.40056 6.8628-0.93788 0.3542 0.85478 1.0143 1.5469 1.8514 1.9411-0.62272 1.0857-1.7565 2.4851-3.6141 2.9381-0.0417-0.6033-0.0962-1.5943-0.10869-2.6906-3e-3 -0.3048-0.25033-0.55055-0.55514-0.55054h-6e-3c-0.3052-1e-4 -0.55184 0.24886-0.5489 0.55406 0.0206 1.8266 0.15261 3.3302 0.15857 3.3932 0.0255 0.28636 0.26549 0.50583 0.55298 0.50581 0.0232-6e-5 0.0463-2e-3 0.0693-4e-3 2.7833-0.34987 4.349-2.3614 5.1185-3.7759 0.36066 0.0808 0.72741 0.13136 1.0965 0.15126 0.0832 5e-3 0.16238 6e-3 0.2426 7e-3 -0.0139 0.0605-0.0277 0.12099-0.0439 0.18053-0.28575 1.031-0.91079 1.9356-1.7741 2.5675-0.78494 0.58455-1.5248 1.2273-2.2132 1.9229-1.4667 1.5118-2.1097 3.0506-2.0845 4.9898 0.0903 6.9688 2.116 11.308 3.7995 13.721 0.66536 0.96619 1.4461 1.8476 2.3249 2.6247h-0.53047c-0.29177-0.0048-0.54027 0.21107-0.57628 0.50066-0.0322 0.32654 0.22431 0.60961 0.55243 0.60962h2.232c0.21829 0.0042 0.42012-0.11563 0.52098-0.30928 0.13313-0.2701 0.027-0.5971-0.23935-0.73757-0.0169-9e-3 -1.7186-0.92531-3.4178-3.3875-1.5745-2.2813-3.4696-6.3949-3.5556-13.036-0.021-1.622 0.525-2.9177 1.7709-4.202 0.64657-0.65273 1.3414-1.2558 2.0785-1.8042 1.0644-0.78168 1.8342-1.8994 2.185-3.1725 0.0492-0.18472 0.0885-0.37274 0.11955-0.56218 1.4623-0.28522 2.6898-1.2732 3.281-2.6407 0.99467 0.27452 3.2088 0.72941 5.3261 0.0946 0.70892-0.21287 0.38961-1.2763-0.31931-1.0634-2.4264 0.72751-5.1379-0.23127-5.1646-0.2407l-3e-3 -8.4e-4c-9.8e-4 0-2e-3 -9.7e-4 -4e-3 -2e-3 -0.93465-0.33589-1.7637-0.91331-2.4027-1.6736-0.44527-0.59128-1.3322 0.0766-0.88692 0.66791 0.64815 0.78917 1.4689 1.419 2.3989 1.8408-0.34697 0.74361-1.2994 2.1273-3.5528 1.9964-2.3455-0.13643-2.9777-1.4295-3.143-2.0021 0.61578-0.53322 1.9272-1.9477 1.4572-4.015-0.17646-0.70167-1.2267-0.46285-1.0824 0.24613 0.42426 1.8665-1.2272 3.0375-1.2992 3.0874l-6e-3 6e-3c-2e-3 2e-3 -8e-3 5e-3 -0.0114 8e-3 -2.5906 1.9338-7.0304 1.1127-7.3182 1.0566-2.8126-0.74847-3.113-2.5397-3.1262-2.629-0.093-0.73441-1.1947-0.59481-1.1016 0.1396 0.0126 0.10242 0.33564 2.4297 3.5656 3.452 0.063 1.2015 0.14661 3.0974 0.16535 4.9694-0.83271-0.30782-2.244-1.0618-2.9381-2.7491 0.28821-0.0332 0.57311-0.0906 0.85169-0.17158 0.28388-0.0785 0.46158-0.35995 0.41039-0.65001-0.0651-0.31949-0.39014-0.5144-0.7026-0.42124-1.9939 0.59484-3.9866-0.57344-4.0055-0.58469-3e-3 -2e-3 -6e-3 -2e-3 -9e-3 -4e-3 -0.0227-0.0125-0.0462-0.0235-0.0705-0.0328-0.0114-5e-3 -0.0225-0.0108-0.0342-0.0147-0.0228-7e-3 -0.0459-0.0119-0.0693-0.0157-0.0139-3e-3 -0.0277-8e-3 -0.0431-9e-3h-3e-3c-0.0756-8e-3 -0.15222-1.3e-4 -0.22471 0.023h-2e-3c-3.7826 1.2109-5.078-1.0574-5.1294-1.1509-0.0871-0.16454-0.25086-0.27447-0.43614-0.29275-1.5424-0.15266-2.64-0.6899-3.2623-1.596-1.028-1.4968-0.47463-3.5704-0.46921-3.59 0.0268-0.0956 0.0274-0.19656 2e-3 -0.29248-0.54654-2.0548 0.12087-3.0554 0.72292-3.5236 0.0721 0.80996 0.4038 1.575 0.94575 2.1813 0.22149 0.24798 0.60981 0.24696 0.83-2e-3 0.18441-0.22323 0.17491-0.54854-0.0222-0.76061-0.5196-0.6023-0.75151-1.4008-0.63537-2.1878 1.0223-3.0863 3.5568-2.7202 3.6618-2.7039 0.26074 0.0447 0.51678-0.10089 0.61179-0.34777 0.24496-0.6369 1.184-0.97837 1.5237-1.0558 0.0139-3e-3 0.0279-7e-3 0.0418-0.0111 1.3184-0.40248 2.3482 0.40569 2.3889 0.43831 0.20539 0.16836 0.50125 0.16768 0.70586-2e-3 2.0317-1.6804 5.0287-1.4382 6.7969-1.0918-0.61422 0.22077-1.2475 0.38446-1.8918 0.489-0.28293 0.0423-0.4907 0.28779-0.48575 0.57384 0.0136 0.33277 0.31506 0.57877 0.64378 0.52533 2.0662-0.3342 3.3634-1.0826 3.6268-1.2456 3.9415-1.6703 7.0107 0.18139 7.1385 0.26049 0.15967 0.10015 0.35928 0.1123 0.52992 0.0323 2.21-1.0333 3.8214-0.0799 3.886-0.0407 0.0825 0.0517 0.17707 0.0808 0.27433 0.0843 1.7848 0.0654 3.0456 0.5158 3.7472 1.3388 0.41804 0.48473 0.62966 1.1139 0.58956 1.7527-0.0168 0.0796-0.23787 0.96121-1.7641 0.91999-0.32827-0.01-0.59225 0.26785-0.5668 0.59526 0.0298 0.2933 0.27714 0.51622 0.57195 0.51556h0.0832c1.464 0 2.2327-0.681 2.57-1.296 0.99453 0.27756 1.7239 0.76685 2.1715 1.46 0.80315 1.2438 0.46292 2.775 0.45972 2.7884-0.03845 0.16179-0.0023 0.33229 0.0984 0.4646 0.31777 0.41161 0.53548 0.89147 0.63592 1.4017 0.10824 0.56727 0.01576 1.1545-0.26158 1.6611-0.10956 0.22576-0.11511 0.48812-0.01518 0.71832 0.30533 0.59205 0.71055 1.653 0.36539 2.6613-0.2723 0.79552-0.97883 1.45-2.1002 1.9452-0.14958 0.066-0.26244 0.19466-0.30847 0.35157-0.03484 0.11908-0.89908 2.9038-4.7756 2.0243-0.20605-0.0468-0.42085 0.0273-0.55406 0.19137-0.0193 0.0237-1.9667 2.3731-4.9491 1.8281-0.32129-0.0584-0.62331 0.17186-0.65218 0.49713-0.0174 0.29525 0.19244 0.55536 0.48466 0.60095 0.35696 0.0641 0.71888 0.0966 1.0816 0.097 2.4096 0 4.0741-1.4565 4.6639-2.0647 3.8922 0.73432 5.3133-1.7794 5.6693-2.6066 1.2958-0.61773 2.1334-1.4592 2.4911-2.5041 0.44411-1.2965 0.02845-2.5804-0.34696-3.3634 0.33945-0.69758 0.44387-1.4863 0.29763-2.2482-0.11557-0.59531-0.35242-1.1604-0.69582-1.6603 0.08757-0.58984 0.19194-2.0648-0.64757-3.3742-0.61384-0.9565-1.5867-1.6149-2.8982-1.9617-0.0473-0.76901-0.33947-1.5027-0.83379-2.0937-0.89004-1.0606-2.3822-1.6473-4.4365-1.7446-0.49963-0.26036-2.2645-1.0111-4.5412-0.0621-1.1955-0.59714-2.5057-0.92934-3.8413-0.97392zm-9.6518 2.0991c-0.74019 0-0.74019 1.1103 0 1.1103h2e-3c0.74008 2e-3 0.74387-1.1079 4e-3 -1.1103zm5.7772 23.526c-0.30659 0-0.55514 0.24854-0.55514 0.55514v0.22091c0 0.3066 0.24855 0.55514 0.55514 0.55514s0.55514-0.24854 0.55514-0.55514v-0.22091c0-0.3066-0.24855-0.55514-0.55514-0.55514zm-0.12334 3.3425c-0.25262 0.0576-0.43183 0.28222-0.4318 0.54132v7.4611c9.7e-4 0.05607 0.059 5.6456-3.4965 8.007l-9.7e-4 0.0011c-0.0303 0.02032-0.0586 0.04356-0.0843 0.06939-0.0113 0.01124-0.02 0.02411-0.0301 0.03605-0.0137 0.01508-0.0265 0.03092-0.0385 0.04743-9e-3 0.01485-0.0172 0.03014-0.0247 0.04581-0.0207 0.03133-0.0353 0.06627-0.0431 0.103-5e-3 0.01651-0.0115 0.03254-0.0149 0.04961-7e-3 0.0357-0.0108 0.07201-0.0109 0.10843v0.0017c0 9e-3 2e-3 0.01754 3e-3 0.02656 7e-4 0.02718 4e-3 0.05427 8e-3 0.08105 4e-3 0.01776 0.01 0.03456 0.0152 0.05177 0.0104 0.04468 0.0289 0.08706 0.0548 0.12496 5e-3 0.0077 7e-3 0.01555 0.0122 0.02304l9.7e-4 0.0017c2e-3 0.0026 4e-3 0.0049 6e-3 0.0073 0.017 0.02413 0.0358 0.04688 0.0563 0.06804 5e-3 0.0049 0.01 0.0096 0.0138 0.01382 0.0227 0.02232 0.0473 0.04264 0.0734 0.06072l7e-3 0.0041c0.0247 0.01598 0.0506 0.02994 0.0775 0.04174 6e-3 0.0028 0.0124 0.0057 0.0189 0.0084 0.0286 0.01167 0.0582 0.02092 0.0884 0.02765 7e-3 0.0016 0.0138 0.0025 0.0209 0.0038 0.0323 0.0062 0.0652 0.0096 0.0981 0.01003h3.9538c0.0352-1.39e-4 0.0703-0.0037 0.10491-0.01058 0.0125-0.0023 0.0244-0.0066 0.0366-0.0098 0.0214-0.0053 0.0423-0.01193 0.0628-0.01979 0.0139-0.0054 0.0268-0.01245 0.0401-0.01898 0.0178-0.0084 0.0352-0.01772 0.0521-0.02792 0.0139-0.0087 0.0264-0.01861 0.0393-0.02847 0.01-0.0077 0.0205-0.01391 0.0301-0.02196 0.01-0.0081 0.0173-0.01635 0.0263-0.0244 1.5007-1.352 1.2539-4.087 1.2426-4.2034-0.0856-0.71893-1.1586-0.61521-1.1048 0.1068 0.0575 0.60802 0.0207 2.2902-0.75926 3.149h-2.2024c2.8297-2.9497 2.7826-7.7075 2.7787-7.9248v-7.4508c3e-5 -0.35638-0.33098-0.62049-0.67847-0.54131zm2.3233 6.2971c-0.30226 0.03369-0.52113 0.3043-0.4909 0.60692 0.0278 0.24371 0.64211 5.5337 3.0321 9.0129h-1.0674c-0.30628 2.77e-4 -0.55445 0.24859-0.55461 0.55487 0 0.3066 0.24855 0.55514 0.55514 0.55514h2.2008c0.0354-1.39e-4 0.0705-0.0037 0.10517-0.01058 0.0128-0.0025 0.0247-0.0067 0.0369-0.01003 0.0215-0.0052 0.0425-0.01171 0.0631-0.01952 0.0139-0.0055 0.0278-0.01299 0.0407-0.01978 0.0176-0.0083 0.0347-0.01747 0.0513-0.02765 0.0139-9e-3 0.0278-0.01955 0.0404-0.02982 0.0101-0.0078 0.0212-0.0139 0.0309-0.0225 4e-3 -0.0036 7e-3 -0.0079 0.0109-0.01165 0.0143-0.01394 0.0279-0.02859 0.0407-0.04391 0.011-0.01277 0.0219-0.02516 0.0317-0.03876 0.0101-0.01514 0.0194-0.0308 0.028-0.04689 9e-3 -0.0154 0.018-0.03066 0.0253-0.04663 7e-3 -0.01596 0.0123-0.03308 0.0182-0.04988 6e-3 -0.01679 0.0121-0.03441 0.0162-0.05232 4e-3 -0.0179 6e-3 -0.03295 8e-3 -0.04961 3e-3 -0.01975 5e-3 -0.03966 6e-3 -0.05963 0-0.0054 2e-3 -0.01031 2e-3 -0.01572 0-0.01138-3e-3 -0.02209-4e-3 -0.03334-9.7e-4 -0.01997-3e-3 -0.03988-6e-3 -0.05963-3e-3 -0.01718-7e-3 -0.03419-0.0119-0.05096-5e-3 -0.0178-0.01-0.03535-0.0163-0.05259-7e-3 -0.0172-0.0143-0.03403-0.0227-0.05041-8e-3 -0.01555-0.0156-0.03083-0.025-0.04581-0.0108-0.01676-0.0225-0.03296-0.035-0.04852-7e-3 -0.0087-0.0118-0.01864-0.0195-0.02711-2.7527-3.1034-3.4698-9.2612-3.4775-9.323-0.0373-0.30164-0.31027-0.51719-0.61234-0.48358z"/>
</svg>
