<?xml version="1.0" encoding="UTF-8"?>
<svg version="1.1" viewBox="0 0 48 48" xml:space="preserve" xmlns="http://www.w3.org/2000/svg">
<path d="m24.767 1.0002c-0.22348 0-0.44711 0.08507-0.61693 0.25554l-4.1673 4.1848h-12.849c-3.3818 0-6.1333 2.7622-6.1333 6.157v29.898c0 3.0346 2.4605 5.5046 5.4835 5.5046h40.517v-41.559h-13.078l-4.1673-4.1848c-0.33963-0.34094-0.89422-0.34094-1.2339 0l-1.5678 1.5753-1.5693-1.5753c-0.16982-0.17047-0.39344-0.25554-0.61693-0.25554zm0 1.8143 1.1021 1.1048-12.247 12.296h-2.2042l10.733-10.775zm4.3709 0 13.349 13.401h-4.1328l-8.6385-8.6733c-0.3243-0.31631-0.83151-0.31499-1.1635 9e-3l-8.6295 8.6643h-4.1343l12.249-12.296zm-22.004 4.1653h11.316l-1.5798 1.5858c-0.2323 0.07542-0.41002 0.25306-0.48516 0.48703l-7.1351 7.1626h-2.1158c-2.5369 0-4.6-2.0711-4.6-4.6177 0-2.5467 2.0631-4.6177 4.6-4.6177zm28.322 0h10.012v9.2354h-0.81159l-6.1333-6.157h0.04492c0.42397 0 0.76667-0.34402 0.76667-0.76962 0-0.4256-0.3427-0.76962-0.76667-0.76962h-1.5333c-0.01303 0-0.0244 0.0068-0.03744 0.0075zm-27.594 1.5392c-0.40555 0.02058-0.72773 0.35732-0.72773 0.76962 0 0.4256 0.3427 0.76962 0.76667 0.76962h1.5333c0.42397 0 0.76667-0.34402 0.76667-0.76962 0-0.4256-0.3427-0.76962-0.76667-0.76962h-1.5333c-0.013249 0-0.02585-6.64e-4 -0.038932 0zm4.6 0c-0.40555 0.02058-0.72774 0.35732-0.72774 0.76962 0 0.4256 0.3427 0.76962 0.76667 0.76962h1.5333c0.42396 0 0.76667-0.34402 0.76667-0.76962 0-0.4256-0.3427-0.76962-0.76667-0.76962h-1.5333c-0.01325 0-0.02585-6.64e-4 -0.03893 0zm29.133 0c-0.40555 0.02058-0.72773 0.35732-0.72773 0.76962 0 0.4256 0.3427 0.76962 0.76667 0.76962h1.5333c0.42396 0 0.76667-0.34402 0.76667-0.76962 0-0.4256-0.3427-0.76962-0.76667-0.76962h-1.5333c-0.01325 0-0.02585-6.64e-4 -0.03893 0zm-36.713 0.48402c-0.099535 3e-3 -0.20008 0.02601-0.29648 0.07065-0.5313 0.2432-1.0251 0.56369-1.4674 0.9485-0.3197 0.2786-0.35463 0.76435-0.077865 1.0853 0.1518 0.17547 0.36559 0.26606 0.57949 0.26606 0.17787 0 0.35673-0.06168 0.50163-0.1879 0.33197-0.28938 0.70265-0.52933 1.1021-0.7125 0.38487-0.17624 0.55517-0.63203 0.37884-1.0191-0.13225-0.28976-0.42164-0.4599-0.72025-0.45095zm24.256 0.13679 7.0497 7.0754h-14.096zm-26.453 6.6846c0.069 0.07311 0.13907 0.14418 0.21113 0.21345 0.065933 0.06388 0.13465 0.12559 0.20365 0.18639 0.085867 0.07542 0.17234 0.14866 0.26204 0.21946 0.072067 0.05695 0.14575 0.11147 0.22012 0.16535 0.092767 0.06696 0.1894 0.12933 0.286 0.1909 0.077433 0.04926 0.15536 0.09662 0.23509 0.1428 0.1012 0.05772 0.2042 0.11301 0.30846 0.16535 0.0805 0.04079 0.16128 0.08031 0.24408 0.11725 0.10963 0.04849 0.22049 0.09145 0.33242 0.13378 0.0828 0.03155 0.16573 0.06399 0.25007 0.09169 0.12037 0.03925 0.2427 0.0714 0.36536 0.10372 0.081266 0.02078 0.16128 0.04543 0.24408 0.06313 0.13877 0.03002 0.27894 0.05064 0.42077 0.07065 0.070533 0.01 0.13983 0.02387 0.21113 0.03157 0.21467 0.02309 0.43283 0.03607 0.65286 0.03607h38.335v1.5377h-0.76667c-0.42397 0-0.76667 0.34402-0.76667 0.76962 0 0.4256 0.3427 0.76962 0.76667 0.76962h0.76667v4.6177h-8.4333c-2.9586 0-5.3667 2.4174-5.3667 5.3873 0 2.97 2.4081 5.3873 5.3667 5.3873h8.4333v6.157h-0.76667c-0.42397 0-0.76667 0.34402-0.76667 0.76962 0 0.4256 0.3427 0.76962 0.76667 0.76962h0.76667v1.5392h-38.983c-2.1773-1e-6 -3.9501-1.7789-3.9501-3.9653v-1.6971c0.17863-0.1924 0.26391-0.46341 0.18418-0.73354-0.12267-0.42021-0.18418-0.85771-0.18418-1.3002v-21.055c0.17863-0.1924 0.26391-0.46341 0.18418-0.73354-0.014567-0.05002-0.019909-0.10179-0.032943-0.15182zm0.95384 2.154c-0.2208-0.0053-0.44241 0.08403-0.59896 0.26456-0.27677 0.32093-0.24183 0.80818 0.077865 1.0868 0.44237 0.38481 0.93615 0.70302 1.4674 0.94699 0.1035 0.04772 0.21238 0.07065 0.31895 0.07065 0.29133 0 0.56899-0.167 0.69779-0.44945 0.17557-0.38635 0.00603-0.8444-0.37884-1.0206-0.39867-0.18317-0.76862-0.42162-1.1006-0.711-0.13987-0.12155-0.31193-0.18377-0.48366-0.1879zm4.2227 1.3153c-0.40555 0.02058-0.72773 0.35732-0.72773 0.76962 0 0.4256 0.3427 0.76962 0.76667 0.76962h1.5333c0.42397 0 0.76667-0.34402 0.76667-0.76962 0-0.4256-0.3427-0.76962-0.76667-0.76962h-1.5333c-0.013249 0-0.02585-6.64e-4 -0.038932 0zm4.6 0c-0.40555 0.02058-0.72774 0.35732-0.72774 0.76962 0 0.4256 0.3427 0.76962 0.76667 0.76962h1.5333c0.42396 0 0.76667-0.34402 0.76667-0.76962 0-0.4256-0.3427-0.76962-0.76667-0.76962h-1.5333c-0.01325 0-0.02585-6.64e-4 -0.03893 0zm4.6 0c-0.40555 0.02058-0.72774 0.35732-0.72774 0.76962 0 0.4256 0.3427 0.76962 0.76667 0.76962h1.5333c0.42396 0 0.76667-0.34402 0.76667-0.76962 0-0.4256-0.3427-0.76962-0.76667-0.76962h-1.5333c-0.01325 0-0.02585-6.64e-4 -0.03893 0zm4.6 0c-0.40555 0.02058-0.72774 0.35732-0.72774 0.76962 0 0.4256 0.3427 0.76962 0.76667 0.76962h1.5333c0.42396 0 0.76667-0.34402 0.76667-0.76962 0-0.4256-0.3427-0.76962-0.76667-0.76962h-1.5333c-0.01325 0-0.02585-6.64e-4 -0.03893 0zm4.6 0c-0.40555 0.02058-0.72774 0.35732-0.72774 0.76962 0 0.4256 0.3427 0.76962 0.76667 0.76962h1.5333c0.42396 0 0.76667-0.34402 0.76667-0.76962 0-0.4256-0.3427-0.76962-0.76667-0.76962h-1.5333c-0.01325 0-0.02585-6.64e-4 -0.03893 0zm4.6 0c-0.40555 0.02058-0.72774 0.35732-0.72774 0.76962 0 0.4256 0.3427 0.76962 0.76667 0.76962h1.5333c0.42396 0 0.76667-0.34402 0.76667-0.76962 0-0.4256-0.3427-0.76962-0.76667-0.76962h-1.5333c-0.01325 0-0.02585-6.64e-4 -0.03893 0zm4.6 0c-0.40555 0.02058-0.72774 0.35732-0.72774 0.76962 0 0.4256 0.3427 0.76962 0.76667 0.76962h1.5333c0.42396 0 0.76667-0.34402 0.76667-0.76962 0-0.4256-0.3427-0.76962-0.76667-0.76962h-1.5333c-0.01325 0-0.02585-6.64e-4 -0.03893 0zm4.6 0c-0.40555 0.02058-0.72774 0.35732-0.72774 0.76962 0 0.4256 0.3427 0.76962 0.76667 0.76962h1.5333c0.42396 0 0.76667-0.34402 0.76667-0.76962 0-0.4256-0.3427-0.76962-0.76667-0.76962h-1.5333c-0.01325 0-0.02585-6.64e-4 -0.03893 0zm-3.0277 7.6962h8.4333v7.6962h-8.4333c-2.1137 0-3.8333-1.7263-3.8333-3.8481s1.7196-3.8481 3.8333-3.8481zm0.76667 0.76962c-1.6913 0-3.0667 1.3807-3.0667 3.0785 0 1.6978 1.3754 3.0785 3.0667 3.0785s3.0667-1.3807 3.0667-3.0785c0-1.6978-1.3754-3.0785-3.0667-3.0785zm0 1.5392c0.84563 0 1.5333 0.69035 1.5333 1.5392 0 0.84889-0.6877 1.5392-1.5333 1.5392s-1.5333-0.69035-1.5333-1.5392c0-0.84889 0.6877-1.5392 1.5333-1.5392zm-34.162 11.768c-0.2208-0.0053-0.44241 0.08403-0.59896 0.26456-0.27677 0.32093-0.24183 0.80819 0.077865 1.0868 0.44237 0.38481 0.93615 0.70302 1.4674 0.94699 0.1035 0.04772 0.21238 0.07065 0.31895 0.07065 0.29133 0 0.56899-0.167 0.69779-0.44944 0.17557-0.38635 0.00603-0.84441-0.37884-1.0206-0.39867-0.18317-0.76862-0.42162-1.1006-0.711-0.13987-0.12155-0.31193-0.18377-0.48366-0.1879zm4.2227 1.3153c-0.40555 0.02058-0.72773 0.35732-0.72773 0.76962 0 0.4256 0.3427 0.76962 0.76667 0.76962h1.5333c0.42397 0 0.76667-0.34402 0.76667-0.76962 0-0.4256-0.3427-0.76962-0.76667-0.76962h-1.5333c-0.013249 0-0.02585-6.64e-4 -0.038932 0zm4.6 0c-0.40555 0.02058-0.72774 0.35732-0.72774 0.76962 0 0.4256 0.3427 0.76962 0.76667 0.76962h1.5333c0.42396 0 0.76667-0.34402 0.76667-0.76962 0-0.4256-0.3427-0.76962-0.76667-0.76962h-1.5333c-0.01325 0-0.02585-6.64e-4 -0.03893 0zm4.6 0c-0.40555 0.02058-0.72774 0.35732-0.72774 0.76962 0 0.4256 0.3427 0.76962 0.76667 0.76962h1.5333c0.42396 0 0.76667-0.34402 0.76667-0.76962 0-0.4256-0.3427-0.76962-0.76667-0.76962h-1.5333c-0.01325 0-0.02585-6.64e-4 -0.03893 0zm4.6 0c-0.40555 0.02058-0.72774 0.35732-0.72774 0.76962 0 0.4256 0.3427 0.76962 0.76667 0.76962h1.5333c0.42396 0 0.76667-0.34402 0.76667-0.76962 0-0.4256-0.3427-0.76962-0.76667-0.76962h-1.5333c-0.01325 0-0.02585-6.64e-4 -0.03893 0zm4.6 0c-0.40555 0.02058-0.72774 0.35732-0.72774 0.76962 0 0.4256 0.3427 0.76962 0.76667 0.76962h1.5333c0.42396 0 0.76667-0.34402 0.76667-0.76962 0-0.4256-0.3427-0.76962-0.76667-0.76962h-1.5333c-0.01325 0-0.02585-6.64e-4 -0.03893 0zm4.6 0c-0.40555 0.02058-0.72774 0.35732-0.72774 0.76962 0 0.4256 0.3427 0.76962 0.76667 0.76962h1.5333c0.42396 0 0.76667-0.34402 0.76667-0.76962 0-0.4256-0.3427-0.76962-0.76667-0.76962h-1.5333c-0.01325 0-0.02585-6.64e-4 -0.03893 0zm4.6 0c-0.40555 0.02058-0.72774 0.35732-0.72774 0.76962 0 0.4256 0.3427 0.76962 0.76667 0.76962h1.5333c0.42396 0 0.76667-0.34402 0.76667-0.76962 0-0.4256-0.3427-0.76962-0.76667-0.76962h-1.5333c-0.01325 0-0.02585-6.64e-4 -0.03893 0zm4.6 0c-0.40555 0.02058-0.72774 0.35732-0.72774 0.76962 0 0.4256 0.3427 0.76962 0.76667 0.76962h1.5333c0.42396 0 0.76667-0.34402 0.76667-0.76962 0-0.4256-0.3427-0.76962-0.76667-0.76962h-1.5333c-0.01325 0-0.02585-6.64e-4 -0.03893 0z"/>
</svg>
