<?xml version="1.0" encoding="UTF-8"?>
<svg version="1.1" viewBox="0 0 48 48" xml:space="preserve" xmlns="http://www.w3.org/2000/svg">
<path d="m43.958 1-2.4385 5.6322-2.152-3.5502-1.9777 2.9365h-3.423v1.5178h4.2436l1.089-1.617 2.4481 4.039 2.1615-4.9926 1.0388 2.5706h2.0524v-1.5178h-1.0141zm-19.958 0.46506c-4.6576 0-8.4333 3.7376-8.4333 8.3481v2.2768c1e-3 1.2568 1.0303 2.2753 2.3 2.2767h1.0787c0.34481 1.3906 0.96884 2.6982 1.8347 3.8452 0.0992 0.13153 0.15295 0.29126 0.1533 0.45542v1.3848c-1e-3 0.33847-0.22762 0.63563-0.5561 0.72964l-4.9174 1.3909c-2.0795 0.59255-3.8505 1.9516-4.9483 3.7976-0.17778-0.3261-0.40253-0.62479-0.66746-0.88658l-0.41066-0.40651v-1.2034c0-1.2574-1.0298-2.2767-2.3-2.2767s-2.3 1.0193-2.3 2.2767v1.2034l-0.41066 0.40651c-0.72126 0.71005-1.1255 1.6761-1.1227 2.6831v9.3675c-9e-5 0.25856 0.0446 0.51524 0.13196 0.75891h-2.432v4.5535h1.5333v4.5535h1.5333v-4.5535h1.5333v4.5535h1.5333v-4.5535h5.3667v4.5535h1.5333v-1.5178h19.933v1.5178h1.5333v-4.5535h5.3667v4.5535h1.5333v-4.5535h1.5333v4.5535h1.5333v-4.5535h1.5333v-4.5535h-7.2929c0.12773-0.357 0.16341-0.73983 0.1037-1.1139l-1.2572-7.8817c-0.51838-3.2058-2.8617-5.8263-6.0134-6.7248l-4.9174-1.3909c-0.32848-0.094-0.55501-0.39117-0.5561-0.72964v-1.3848c3.8e-4 -0.16416 0.0541-0.32389 0.1533-0.45542 0.86584-1.147 1.4899-2.4546 1.8347-3.8452h1.0787c1.2697-1e-3 2.2986-1.0199 2.3-2.2767v-2.2768c0-4.6105-3.7757-8.3481-8.4333-8.3481zm0 1.5178c3.5606 0 6.5362 2.6822 6.8688 6.1914-0.23689-0.0795-0.48527-0.12009-0.73541-0.12007h-0.82226c-0.3808-2.6136-2.6434-4.5535-5.3111-4.5535-2.6676 0-4.9303 1.9399-5.3111 4.5535h-0.82226c-0.25014-1e-5 -0.49852 0.0405-0.73541 0.12007 0.33254-3.5092 3.3082-6.1914 6.8687-6.1914zm-20.7 0.75891c-1.2697 1e-3 -2.2986 1.0199-2.3 2.2768v8.878c-6.7e-4 0.34552 0.20959 0.65714 0.53233 0.78875 0.32223 0.1328 0.69364 0.0597 0.93999-0.1851l2.454-2.429c0.14348-0.14279 0.33861-0.22289 0.54206-0.22234h6.2649c1.2697-1e-3 2.2986-1.0199 2.3-2.2767v-4.5535c-1e-3 -1.2568-1.0303-2.2753-2.3-2.2768zm0 1.5178h8.4333c0.42322 4.7e-4 0.76618 0.33997 0.76666 0.75891v4.5535c-4.7e-4 0.41893-0.34344 0.75843-0.76666 0.75891h-6.2649c-0.61033-2e-3 -1.196 0.23845-1.6264 0.66683l-1.3087 1.2955v-7.2747c4.8e-4 -0.41894 0.34345-0.75843 0.76666-0.75891zm20.7 0.75891c2.1171 0 3.8333 1.6989 3.8333 3.7946v2.0238c-4e-3 1.9698-0.64929 3.8858-1.8399 5.4642-0.29769 0.39457-0.45905 0.87363-0.46007 1.3661v1.3848c5.7e-4 0.22288 0.0346 0.44438 0.10088 0.65738-1.0164 0.55844-2.252 0.55844-3.2684 0 0.0663-0.213 0.10032-0.4345 0.10089-0.65738v-1.3848c-1e-3 -0.49246-0.16238-0.97152-0.46007-1.3661-1.1906-1.5783-1.8358-3.4943-1.8399-5.4642v-2.0238c0-2.0957 1.7162-3.7946 3.8333-3.7946zm-19.933 1.5178v1.5178h6.9v-1.5178zm34.5 2.2768v1.6138c-1.353 0.34778-2.2982 1.556-2.3 2.9397 8.6e-4 0.83999-0.25038 1.6613-0.72174 2.3598l-0.48516 0.72019v1.9e-4c-0.86101 1.2786 0.0649 2.9912 1.6172 2.9912h1.8897v1.5178h1.5333v-1.5178h1.8897c1.5524-6e-5 2.4783-1.7128 1.6172-2.9914l-0.48515-0.7202c-0.47136-0.69849-0.72256-1.5198-0.72175-2.3598-2e-3 -1.3837-0.94701-2.5919-2.3-2.9397v-1.6138zm-20.7 0.75892h0.76667v2.2767h-0.76667c-0.42322-4.7e-4 -0.76618-0.33997-0.76667-0.75891v-0.75892c4.8e-4 -0.41894 0.34345-0.75843 0.76667-0.75891zm11.5 0h0.76667c0.42321 4.7e-4 0.76618 0.33997 0.76666 0.75891v0.75892c-4.8e-4 0.41894-0.34345 0.75843-0.76666 0.75891h-0.76667zm9.9667 2.2767c0.84683 0 1.5333 0.67956 1.5333 1.5178-1e-3 1.1397 0.33974 2.2542 0.9793 3.2019l0.48515 0.72019c0.1818 0.26992-0.0137 0.63139-0.3414 0.63144h-5.3128c-0.32773-5e-5 -0.52321-0.36171-0.34141-0.63163l0.48516-0.72019c0.63956-0.94768 0.9804-2.062 0.97929-3.2017 0-0.83827 0.6865-1.5178 1.5333-1.5178zm-28.289 1.1847-2.0849 4.1277h-2.5929v1.5178h3.5404l0.98173-1.9436 1.406 3.4792 2.4683-3.2578 1.1599 1.7222h1.9436v-1.5178h-1.123l-1.9067-2.8313-2.1317 2.8135zm21.518 1.43-0.11586 0.17194c-1.0334 1.5285-1.0334 3.523 0 5.0515l0.11586 0.17194 1.2758-0.84192-0.11586-0.17194c-0.68889-1.019-0.68889-2.3487 0-3.3677l0.11586-0.17194zm13.542 0-1.2758 0.84192 0.11567 0.17194c0.6889 1.019 0.6889 2.3487 0 3.3677l-0.11567 0.17194 1.2758 0.84192 0.11567-0.17194c1.0334-1.5285 1.0334-3.523 0-5.0515zm-24.654 6.4752c1.5656 0.94542 3.5338 0.94542 5.0994 0 0.19971 0.1344 0.41963 0.23641 0.65175 0.30238l4.9176 1.3909c0.5376 0.15234 1.0543 0.36919 1.5386 0.64589-0.15065-0.0302-0.30394-0.0454-0.45765-0.0454h-18.4c-0.1537-4e-5 -0.30699 0.0152-0.45764 0.0454 0.48432-0.2767 1.001-0.49356 1.5386-0.64589l4.9176-1.3909c0.23212-0.066 0.45203-0.16798 0.65174-0.30238zm-14.317 0.77596c0.42342 0 0.76666 0.33978 0.76666 0.75891v0.75892h-1.5333v-0.75892c0-0.41913 0.34325-0.75891 0.76667-0.75891zm36.8 2.8565-2.0071 3.9738h-1.0596v1.5178h2.0071l1.0596-2.0976 1.0596 2.0976h2.0071v-1.5178h-1.0596zm-31.232 9e-3c-0.13274 0.29218-0.2012 0.60884-0.20103 0.9292v6.8302h-2.2098l0.67084-4.2054c0.21374-1.3285 0.81897-2.5649 1.74-3.5541zm22.598 0c0.921 0.98918 1.5262 2.2256 1.74 3.5541l0.67084 4.2054h-2.2098v-6.8302c2e-4 -0.32036-0.0683-0.63702-0.20102-0.92919zm-29.381 0.17028h2.4314l0.41066 0.40651c0.43273 0.42605 0.67529 1.0056 0.67364 1.6097v1.2127l-1.2442 7.7996c-0.0597 0.3741-0.024 0.75709 0.10369 1.1141h-2.6929c-0.42321-4.7e-4 -0.76618-0.33998-0.76666-0.75891v-9.3675c-2e-3 -0.60416 0.24091-1.1837 0.67364-1.6097zm8.8824 0h18.4c0.42322 4.7e-4 0.76619 0.33998 0.76667 0.75892v11.384h-19.933v-11.384c4.8e-4 -0.41894 0.34345-0.75844 0.76666-0.75892zm9.2 3.0357c-1.2404 0-2.3586 0.73962-2.8332 1.874-0.47464 1.1343-0.2122 2.44 0.66485 3.3081 0.87706 0.86819 2.196 1.128 3.3419 0.65814 1.1459-0.46983 1.8931-1.5768 1.8931-2.8046-2e-3 -1.6758-1.3738-3.0338-3.0667-3.0357zm0.0376 1.5182c0.83196 0.0202 1.4958 0.69366 1.4957 1.5175-9.7e-4 0.83787-0.6869 1.5169-1.5333 1.5178-0.78877 1.9e-4 -1.449-0.59204-1.5263-1.3691-0.0773-0.77704 0.45354-1.4854 1.2272-1.6375 0.11083-0.0218 0.22376-0.0314 0.33673-0.0287zm-13.99 4.5531h2.452v3.0357h-2.0389c-0.4711-3e-5 -0.83075-0.41667-0.7573-0.87731zm25.452 0h2.452l0.34421 2.1584c0.0734 0.46063-0.28622 0.87728-0.7573 0.87731h-2.0389zm-32.967 4.5535h42.933v1.5178h-42.933zm11.5 3.0357h19.933v1.5178h-19.933z"/>
</svg>
