<?xml version="1.0" encoding="UTF-8"?>
<svg version="1.1" viewBox="0 0 48 48" xml:space="preserve" xmlns="http://www.w3.org/2000/svg">
<path d="m24 1c-1.6913 0-3.0667 1.3754-3.0667 3.0667 0 1.4303 0.98126 2.6323 2.306 2.9708-4e-3 0.03149-6e-3 0.06326-6e-3 0.09583v2.3c0 0.4232 0.34347 0.76667 0.76667 0.76667s0.76667-0.34347 0.76667-0.76667v-2.3c0-0.03257-2e-3 -0.06434-6e-3 -0.09583 1.3247-0.33856 2.306-1.5405 2.306-2.9708 0-1.6913-1.3754-3.0667-3.0667-3.0667zm0 1.5333c0.8464 0 1.5333 0.68694 1.5333 1.5333 0 0.84486-0.68694 1.5333-1.5333 1.5333s-1.5333-0.68847-1.5333-1.5333c0-0.8464 0.68694-1.5333 1.5333-1.5333zm-6.3969 1.0122c-0.42342 0-0.76667 0.34325-0.76667 0.76667 0 0.42342 0.34325 0.76667 0.76667 0.76667s0.76667-0.34325 0.76667-0.76667c0-0.42342-0.34325-0.76667-0.76667-0.76667zm12.794 0c-0.42342 0-0.76667 0.34325-0.76667 0.76667 0 0.42342 0.34325 0.76667 0.76667 0.76667s0.76667-0.34325 0.76667-0.76667c0-0.42342-0.34325-0.76667-0.76667-0.76667zm-15.795 1.2428c-0.42342 0-0.76667 0.34325-0.76667 0.76667s0.34325 0.76667 0.76667 0.76667c0.42342 0 0.76667-0.34325 0.76667-0.76667 0-0.42342-0.34325-0.76667-0.76667-0.76667zm18.795 0c-0.42342 0-0.76667 0.34325-0.76667 0.76667s0.34325 0.76667 0.76667 0.76667 0.76667-0.34325 0.76667-0.76667-0.34325-0.76667-0.76667-0.76667zm-24.731 0.81159c-1.6913 0-3.0667 1.3754-3.0667 3.0667 0 1.6928 1.3754 3.0667 3.0667 3.0667 0.57126 0 1.1079-0.15542 1.5663-0.42826 0.02159 0.02878 0.04272 0.05768 0.06888 0.08386l2.6294 2.6264c0.299 0.30053 0.78512 0.30053 1.0841 0 0.30053-0.299 0.30053-0.78059 0-1.0811l-2.6294-2.6294c-0.02593-0.02593-0.05236-0.05045-0.08085-0.07187 0.273-0.45835 0.42826-0.9945 0.42826-1.5663 0-1.6913-1.3754-3.0667-3.0667-3.0667zm30.667 0c-1.6913 0-3.0667 1.3754-3.0667 3.0667 0 0.57178 0.15525 1.1079 0.42826 1.5663-0.02849 0.02144-0.05494 0.04595-0.08085 0.07187l-2.6324 2.6264c-0.30053 0.30053-0.299 0.78512 0 1.0841 0.30053 0.30053 0.78658 0.299 1.0871 0l2.6294-2.6264c0.02616-0.02616 0.04729-0.05508 0.06888-0.08386 0.45836 0.27283 0.99502 0.42825 1.5663 0.42825 1.6913 0 3.0667-1.3739 3.0667-3.0667 0-1.6913-1.3754-3.0667-3.0667-3.0667zm-30.667 1.5333c0.8464 0 1.5333 0.68694 1.5333 1.5333 0 0.84486-0.68694 1.5333-1.5333 1.5333-0.8464 0-1.5333-0.68847-1.5333-1.5333 0-0.8464 0.68694-1.5333 1.5333-1.5333zm30.667 0c0.8464 0 1.5333 0.68694 1.5333 1.5333 0 0.84486-0.68694 1.5333-1.5333 1.5333-0.8464 0-1.5333-0.68847-1.5333-1.5333 0-0.8464 0.68694-1.5333 1.5333-1.5333zm-15.333 4.6c-6.7635 0-12.267 5.5031-12.267 12.267s5.5031 12.267 12.267 12.267 12.267-5.5031 12.267-12.267c0-6.7635-5.5031-12.267-12.267-12.267zm-0.0031 1.731c1.3156 0.9583 2.4191 2.1385 3.2793 3.468-2.1278 0.27715-4.3031 0.20157-6.4059-0.2306 0.83668-1.2359 1.8875-2.3345 3.1266-3.2374zm-2.4857 0.09583c-0.85205 0.82743-1.593 1.7503-2.2132 2.7462-0.16148-0.04796-0.32499-0.09738-0.48516-0.14974-0.40633-0.13033-0.83545 0.08788-0.96732 0.49114-0.13187 0.40327 0.08941 0.83545 0.49115 0.96732 0.06958 0.02269 0.13982 0.04393 0.20964 0.06589-0.83671 1.7361-1.3335 3.6402-1.4285 5.6152h-1.5184c-0.4232 0-0.76667 0.34347-0.76667 0.76667 0 0.4232 0.34347 0.76667 0.76667 0.76667h1.5243c0.10962 1.9307 0.60534 3.7922 1.4255 5.4924-0.83088 0.2599-1.6491 0.57407-2.4438 0.94036-1.7617-1.913-2.839-4.4637-2.839-7.2624 0-5.0607 3.5232-9.314 8.2447-10.44zm4.9773 0c1.7631 0.42041 3.3581 1.2746 4.6659 2.4467-0.73637 0.26018-1.4895 0.47403-2.2521 0.64088-0.65909-1.1251-1.4661-2.1674-2.4137-3.0876zm-20.933 0.27552c-0.42342 0-0.76667 0.34325-0.76667 0.76667 0 0.42342 0.34325 0.76667 0.76667 0.76667 0.42342 0 0.76667-0.34325 0.76667-0.76667 0-0.42342-0.34325-0.76667-0.76667-0.76667zm36.89 0c-0.42342 0-0.76667 0.34325-0.76667 0.76667 0 0.42342 0.34325 0.76667 0.76667 0.76667 0.42341 0 0.76666-0.34325 0.76666-0.76667 0-0.42342-0.34325-0.76667-0.76666-0.76667zm-38.133 3.0008c-0.42342 0-0.76667 0.34325-0.76667 0.76667s0.34325 0.76667 0.76667 0.76667c0.42342 0 0.76667-0.34325 0.76667-0.76667 0-0.42342-0.34325-0.76667-0.76667-0.76667zm39.376 0c-0.42341 0-0.76666 0.34325-0.76666 0.76667s0.34325 0.76667 0.76666 0.76667c0.42342 0 0.76667-0.34325 0.76667-0.76667 0-0.42342-0.34325-0.76667-0.76667-0.76667zm-11.383 0.37734c1.376 1.6807 2.252 3.7836 2.4018 6.0824h-3.8244c-0.08817-1.8322-0.52153-3.6048-1.2518-5.2379 0.89714-0.21652 1.7792-0.49533 2.6444-0.83255 0.01027-4e-3 0.01998-0.0077 0.02995-0.01196zm-12.255 0.87747c1.5388 0.35865 3.1187 0.54206 4.7168 0.54206 1.1187 0 2.2258-0.08795 3.3152-0.26354 0.73223 1.5258 1.1707 3.1943 1.2638 4.9264h-10.691c0.09865-1.8371 0.58152-3.6057 1.3956-5.205zm-15.983 2.8421c-1.6928 0-3.0667 1.3754-3.0667 3.0667 0 1.6928 1.3739 3.0667 3.0667 3.0667 1.4303 0 2.6323-0.98126 2.9708-2.306 0.0315 4e-3 0.06327 6e-3 0.09583 6e-3h1.5333c0.4232 0 0.76667-0.34346 0.76667-0.76667 0-0.4232-0.34347-0.76667-0.76667-0.76667h-1.5333c-0.03257 0-0.06434 2e-3 -0.09583 6e-3 -0.33856-1.3247-1.5405-2.306-2.9708-2.306zm39.867 0c-1.4303 0-2.6323 0.98126-2.9708 2.306-0.03149-4e-3 -0.06327-6e-3 -0.09583-6e-3h-2.3c-0.4232 0-0.76667 0.34347-0.76667 0.76667s0.34347 0.76667 0.76667 0.76667h2.3c0.03257 0 0.06434-2e-3 0.09583-6e-3 0.33857 1.3247 1.5405 2.306 2.9708 2.306 1.6928 0 3.0667-1.3754 3.0667-3.0667 0-1.6913-1.3739-3.0667-3.0667-3.0667zm-39.867 1.5333c0.84486 0 1.5333 0.68694 1.5333 1.5333 0 0.84486-0.68847 1.5333-1.5333 1.5333s-1.5333-0.68694-1.5333-1.5333 0.68847-1.5333 1.5333-1.5333zm39.867 0c0.84486 0 1.5333 0.68694 1.5333 1.5333 0 0.84486-0.68847 1.5333-1.5333 1.5333-0.84487 0-1.5333-0.68694-1.5333-1.5333s0.68847-1.5333 1.5333-1.5333zm-25.273 2.3629h10.679c-0.10715 1.6896-0.54416 3.3156-1.2608 4.8066-2.6628-0.426-5.3984-0.33029-8.026 0.27852-0.79802-1.5651-1.2788-3.2904-1.3926-5.0852zm12.216 0h3.8214c-0.17305 2.2498-1.0419 4.3066-2.3928 5.9566-0.87378-0.34232-1.7667-0.624-2.6744-0.84154 0.71443-1.5964 1.1443-3.327 1.2458-5.1151zm-26.564 4.8006c-0.42342 0-0.76667 0.34325-0.76667 0.76667s0.34325 0.76667 0.76667 0.76667c0.42342 0 0.76667-0.34325 0.76667-0.76667s-0.34325-0.76667-0.76667-0.76667zm39.376 0c-0.42341 0-0.76666 0.34325-0.76666 0.76667s0.34325 0.76667 0.76666 0.76667c0.42342 0 0.76667-0.34325 0.76667-0.76667s-0.34325-0.76667-0.76667-0.76667zm-19.08 1.2758c0.8915-0.0078 1.7834 0.04681 2.6684 0.16172-0.86018 1.3297-1.9636 2.5097-3.2793 3.468-1.2366-0.90116-2.2847-1.9982-3.1206-3.2314 1.2282-0.25198 2.4794-0.38733 3.7315-0.39831zm4.2945 0.44622c0.76164 0.1664 1.5138 0.37757 2.2521 0.63789-1.3095 1.1741-2.9059 2.0297-4.6719 2.4497 0.94921-0.92124 1.7598-1.9613 2.4198-3.0876zm-9.6013 0.3444c0.62018 0.99498 1.3615 1.9161 2.2132 2.7432-1.5517-0.36957-2.9732-1.0763-4.1837-2.0395 0.64433-0.27071 1.3029-0.50664 1.9706-0.70378zm-13.746 0.93438c-0.42342 0-0.76667 0.34325-0.76667 0.76667 0 0.42342 0.34325 0.76667 0.76667 0.76667s0.76667-0.34325 0.76667-0.76667c0-0.42342-0.34325-0.76667-0.76667-0.76667zm36.89 0c-0.42342 0-0.76667 0.34325-0.76667 0.76667 0 0.42342 0.34325 0.76667 0.76667 0.76667 0.42341 0 0.76666-0.34325 0.76666-0.76667 0-0.42342-0.34325-0.76667-0.76666-0.76667zm-28.969 1.126c-0.19588 1.92e-4 -0.39179 0.07734-0.54206 0.2276l-2.6324 2.6264c-0.02616 0.02616-0.04729 0.05508-0.06888 0.08386-0.45836-0.27301-0.99502-0.42826-1.5663-0.42826-1.6913 0-3.0667 1.3754-3.0667 3.0667 0 1.6928 1.3754 3.0667 3.0667 3.0667 1.6913 0 3.0667-1.3739 3.0667-3.0667 0-0.57126-0.15525-1.1079-0.42826-1.5663 0.02849-0.02144 0.05494-0.04595 0.08085-0.07187l2.6324-2.6264c0.299-0.299 0.29747-0.78511 0-1.0841-0.15027-0.15103-0.34618-0.2278-0.54206-0.2276zm21.104 0.0569c-0.19627 0-0.39256 0.0751-0.54206 0.22461-0.299 0.299-0.299 0.78665 0 1.0841l2.6294 2.6294c0.0078 0.0078 0.01592 0.01365 0.02397 0.02096-0.2709 0.45708-0.42527 0.99143-0.42527 1.5603 0 1.6928 1.3754 3.0667 3.0667 3.0667 1.6913 0 3.0667-1.3739 3.0667-3.0667 0-1.6913-1.3754-3.0667-3.0667-3.0667-0.56886 0-1.1032 0.15437-1.5603 0.42526-0.0074-8e-3 -0.01319-0.01616-0.02096-0.02397l-2.6294-2.6294c-0.1495-0.1495-0.34579-0.22461-0.54206-0.22461zm-25.914 3.9861c0.8464 0 1.5333 0.68694 1.5333 1.5333 0 0.84486-0.68694 1.5333-1.5333 1.5333-0.8464 0-1.5333-0.68847-1.5333-1.5333 0-0.8464 0.68694-1.5333 1.5333-1.5333zm15.333 0c-0.4232 0-0.76667 0.34347-0.76667 0.76667v2.3c0 0.03257 2e-3 0.06434 6e-3 0.09583-1.3247 0.33887-2.306 1.5418-2.306 2.9708 0 1.6928 1.3754 3.0667 3.0667 3.0667s3.0667-1.3739 3.0667-3.0667c0-1.429-0.98126-2.632-2.306-2.9708 4e-3 -0.03149 6e-3 -0.06327 6e-3 -0.09583v-2.3c0-0.4232-0.34347-0.76667-0.76667-0.76667zm15.333 0c0.84486 0 1.5333 0.68694 1.5333 1.5333 0 0.84486-0.68847 1.5333-1.5333 1.5333s-1.5333-0.68847-1.5333-1.5333c0-0.8464 0.68847-1.5333 1.5333-1.5333zm-24.731 3.8783c-0.42342 0-0.76667 0.34325-0.76667 0.76667 0 0.42342 0.34325 0.76667 0.76667 0.76667 0.42342 0 0.76667-0.34325 0.76667-0.76667 0-0.42342-0.34325-0.76667-0.76667-0.76667zm18.795 0c-0.42342 0-0.76667 0.34325-0.76667 0.76667 0 0.42342 0.34325 0.76667 0.76667 0.76667s0.76667-0.34325 0.76667-0.76667c0-0.42342-0.34325-0.76667-0.76667-0.76667zm-9.3977 0.72174c0.8464 0 1.5333 0.68694 1.5333 1.5333 0 0.84486-0.68694 1.5333-1.5333 1.5333s-1.5333-0.68847-1.5333-1.5333c0-0.8464 0.68694-1.5333 1.5333-1.5333zm-6.3969 0.52109c-0.42342 0-0.76667 0.34325-0.76667 0.76667s0.34325 0.76667 0.76667 0.76667 0.76667-0.34325 0.76667-0.76667-0.34325-0.76667-0.76667-0.76667zm12.794 0c-0.42342 0-0.76667 0.34325-0.76667 0.76667s0.34325 0.76667 0.76667 0.76667c0.42342 0 0.76667-0.34325 0.76667-0.76667s-0.34325-0.76667-0.76667-0.76667z"/>
</svg>
